<?xml version="1.0" encoding="utf-8"?>
<!-- Generator: Adobe Illustrator 29.8.1, SVG Export Plug-In . SVG Version: 9.03 Build 0)  -->
<svg version="1.0"
	 id="svg2" xmlns:dc="http://purl.org/dc/elements/1.1/" xmlns:sodipodi="http://sodipodi.sourceforge.net/DTD/sodipodi-0.dtd" xmlns:rdf="http://www.w3.org/1999/02/22-rdf-syntax-ns#" xmlns:cc="http://creativecommons.org/ns#" xmlns:svg="http://www.w3.org/2000/svg" xmlns:inkscape="http://www.inkscape.org/namespaces/inkscape" inkscape:output_extension="org.inkscape.output.svg.inkscape" sodipodi:docname="Fr_1700b.svg"
	 xmlns="http://www.w3.org/2000/svg" xmlns:xlink="http://www.w3.org/1999/xlink" x="0px" y="0px" viewBox="0 0 400 400"
	 style="enable-background:new 0 0 400 400;" xml:space="preserve">
<style type="text/css">
	.st0{fill-rule:evenodd;clip-rule:evenodd;fill:#002495;}
	.st1{fill-rule:evenodd;clip-rule:evenodd;fill:#FFCF00;stroke:#FFBF00;}
</style>
<sodipodi:namedview  bordercolor="#666666" borderopacity="1.0" gridtolerance="10.0" guidetolerance="10.0" id="base" inkscape:current-layer="svg2" inkscape:cx="304.55529" inkscape:cy="188.89139" inkscape:pageopacity="0.0" inkscape:pageshadow="2" inkscape:window-height="669" inkscape:window-width="757" inkscape:window-x="569" inkscape:window-y="56" inkscape:zoom="1.0076756" objecttolerance="10.0" pagecolor="#ffffff" showgrid="true">
	<inkscape:grid  enabled="false" id="grid2393" type="xygrid" visible="true"></inkscape:grid>
</sodipodi:namedview>
<defs>
	
		<inkscape:perspective  id="perspective18" inkscape:persp3d-origin="300 : 133.33333 : 1" inkscape:vp_x="0 : 200 : 1" inkscape:vp_y="0 : 1000 : 0" inkscape:vp_z="600 : 200 : 1" sodipodi:type="inkscape:persp3d">
		</inkscape:perspective>
	
		<inkscape:perspective  id="perspective2455" inkscape:persp3d-origin="372.04724 : 350.78739 : 1" inkscape:vp_x="0 : 526.18109 : 1" inkscape:vp_y="0 : 1000 : 0" inkscape:vp_z="744.09448 : 526.18109 : 1" sodipodi:type="inkscape:persp3d">
		</inkscape:perspective>
	
		<inkscape:perspective  id="perspective2453" inkscape:persp3d-origin="372.04724 : 350.78739 : 1" inkscape:vp_x="0 : 526.18109 : 1" inkscape:vp_y="0 : 1000 : 0" inkscape:vp_z="744.09448 : 526.18109 : 1" sodipodi:type="inkscape:persp3d">
		</inkscape:perspective>
	
		<inkscape:perspective  id="perspective2456" inkscape:persp3d-origin="372.04724 : 350.78739 : 1" inkscape:vp_x="0 : 526.18109 : 1" inkscape:vp_y="0 : 1000 : 0" inkscape:vp_z="744.09448 : 526.18109 : 1" sodipodi:type="inkscape:persp3d">
		</inkscape:perspective>
	
		<inkscape:perspective  id="perspective2457" inkscape:persp3d-origin="372.04724 : 350.78739 : 1" inkscape:vp_x="0 : 526.18109 : 1" inkscape:vp_y="0 : 1000 : 0" inkscape:vp_z="744.09448 : 526.18109 : 1" sodipodi:type="inkscape:persp3d">
		</inkscape:perspective>
</defs>
<rect id="Upper_left_blue_field_1_" x="-100" class="st0" width="600" height="400"/>
<g id="g2469" transform="translate(1596.6727,113.58011)">
	<g id="g3158">
		<path id="path2461" sodipodi:nodetypes="csccscsccccsscssccsscssccsscssccccscsccsc" class="st1" d="M-1546.67,103.3
			c6.16-4.12,16.54-9.4,16.55-15.89c0-10.97-10.63-11.51-10.63-35.44h8.35c0,8.83,4.39,19.66,11.01,23.09
			c9.77,5.07,20.34-3.23,15.13-16.26c-0.34,1.51-1.4,2.58-2.6,3.51c-4.32,3.37-13.56-0.67-13.56-10.35h8.42V35.9l-8.42,0
			c0-8.18,4.35-15.4,8.2-18.4c2.42-1.89,7.29-4.58,13.06-1.01c3.92,2.43,4.74,6.56,3.19,12.27c24.56-7.53,22.82-26.06,17.31-36.93
			c-5.68-11.22-21.7-14.89-30.44-10.63c-15.25,7.44-21.3,26.23-21.3,54.7h-8.35c0-14-0.42-28.8,9.88-49.66
			c7.36-14.91,28.78-24.17,0.47-48.18c-5.69-4.83-11.46-12.25-16.26-18.64c-4.8,6.39-10.57,13.81-16.26,18.64
			c-28.31,24.01-6.89,33.27,0.47,48.18c10.29,20.86,9.88,35.66,9.88,49.66h-8.35c0-28.47-6.05-47.27-21.3-54.7
			c-8.74-4.26-24.76-0.59-30.44,10.63c-5.51,10.88-7.26,29.41,17.31,36.93c-1.55-5.7-0.73-9.83,3.19-12.27
			c5.76-3.57,10.64-0.88,13.06,1.01c3.84,2.99,8.2,10.22,8.2,18.4l-8.42,0v16.07h8.42c0,9.68-9.24,13.72-13.56,10.35
			c-1.2-0.93-2.25-2-2.6-3.51c-5.2,13.03,5.36,21.33,15.13,16.26c6.62-3.43,11.01-14.27,11.01-23.09h8.35
			c0,23.93-10.63,24.47-10.63,35.44C-1563.22,93.9-1552.83,99.17-1546.67,103.3z"/>
		<path id="path3156" sodipodi:nodetypes="ccccc" class="st1" d="M-1514,51.97V35.9h-65.34v16.07H-1514z"/>
	</g>
	<g id="g3162" transform="translate(300,0)">
		<path id="path3164" sodipodi:nodetypes="csccscsccccsscssccsscssccsscssccccscsccsc" class="st1" d="M-1546.67,103.3
			c6.16-4.12,16.54-9.4,16.55-15.89c0-10.97-10.63-11.51-10.63-35.44h8.35c0,8.83,4.39,19.66,11.01,23.09
			c9.77,5.07,20.34-3.23,15.13-16.26c-0.34,1.51-1.4,2.58-2.6,3.51c-4.32,3.37-13.56-0.67-13.56-10.35h8.42V35.9l-8.42,0
			c0-8.18,4.35-15.4,8.2-18.4c2.42-1.89,7.29-4.58,13.06-1.01c3.92,2.43,4.74,6.56,3.19,12.27c24.56-7.53,22.82-26.06,17.31-36.93
			c-5.68-11.22-21.7-14.89-30.44-10.63c-15.25,7.44-21.3,26.23-21.3,54.7h-8.35c0-14-0.42-28.8,9.88-49.66
			c7.36-14.91,28.78-24.17,0.47-48.18c-5.69-4.83-11.46-12.25-16.26-18.64c-4.8,6.39-10.57,13.81-16.26,18.64
			c-28.31,24.01-6.89,33.27,0.47,48.18c10.29,20.86,9.88,35.66,9.88,49.66h-8.35c0-28.47-6.05-47.27-21.3-54.7
			c-8.74-4.26-24.76-0.59-30.44,10.63c-5.51,10.88-7.26,29.41,17.31,36.93c-1.55-5.7-0.73-9.83,3.19-12.27
			c5.76-3.57,10.64-0.88,13.06,1.01c3.84,2.99,8.2,10.22,8.2,18.4l-8.42,0v16.07h8.42c0,9.68-9.24,13.72-13.56,10.35
			c-1.2-0.93-2.25-2-2.6-3.51c-5.2,13.03,5.36,21.33,15.13,16.26c6.62-3.43,11.01-14.27,11.01-23.09h8.35
			c0,23.93-10.63,24.47-10.63,35.44C-1563.22,93.9-1552.83,99.17-1546.67,103.3z"/>
		<path id="path3166" sodipodi:nodetypes="ccccc" class="st1" d="M-1514,51.97V35.9h-65.34v16.07H-1514z"/>
	</g>
	<g id="g3168" transform="translate(150,150)">
		<path id="path3170" sodipodi:nodetypes="csccscsccccsscssccsscssccsscssccccscsccsc" class="st1" d="M-1546.67,103.3
			c6.16-4.12,16.54-9.4,16.55-15.89c0-10.97-10.63-11.51-10.63-35.44h8.35c0,8.83,4.39,19.66,11.01,23.09
			c9.77,5.07,20.34-3.23,15.13-16.26c-0.34,1.51-1.4,2.58-2.6,3.51c-4.32,3.37-13.56-0.67-13.56-10.35h8.42V35.9l-8.42,0
			c0-8.18,4.35-15.4,8.2-18.4c2.42-1.89,7.29-4.58,13.06-1.01c3.92,2.43,4.74,6.56,3.19,12.27c24.56-7.53,22.82-26.06,17.31-36.93
			c-5.68-11.22-21.7-14.89-30.44-10.63c-15.25,7.44-21.3,26.23-21.3,54.7h-8.35c0-14-0.42-28.8,9.88-49.66
			c7.36-14.91,28.78-24.17,0.47-48.18c-5.69-4.83-11.46-12.25-16.26-18.64c-4.8,6.39-10.57,13.81-16.26,18.64
			c-28.31,24.01-6.89,33.27,0.47,48.18c10.29,20.86,9.88,35.66,9.88,49.66h-8.35c0-28.47-6.05-47.27-21.3-54.7
			c-8.74-4.26-24.76-0.59-30.44,10.63c-5.51,10.88-7.26,29.41,17.31,36.93c-1.55-5.7-0.73-9.83,3.19-12.27
			c5.76-3.57,10.64-0.88,13.06,1.01c3.84,2.99,8.2,10.22,8.2,18.4l-8.42,0v16.07h8.42c0,9.68-9.24,13.72-13.56,10.35
			c-1.2-0.93-2.25-2-2.6-3.51c-5.2,13.03,5.36,21.33,15.13,16.26c6.62-3.43,11.01-14.27,11.01-23.09h8.35
			c0,23.93-10.63,24.47-10.63,35.44C-1563.22,93.9-1552.83,99.17-1546.67,103.3z"/>
		<path id="path3172" sodipodi:nodetypes="ccccc" class="st1" d="M-1514,51.97V35.9h-65.34v16.07H-1514z"/>
	</g>
</g>
</svg>
