<?xml version="1.0" encoding="UTF-8"?>
<svg id="Calque_1" xmlns="http://www.w3.org/2000/svg" version="1.1" viewBox="0 0 640 640">
  <!-- Generator: Adobe Illustrator 29.8.1, SVG Export Plug-In . SVG Version: 2.1.1 Build 2)  -->
  <defs>
    <style>
      .st0 {
        fill: #4a5d23;
      }

      .st1, .st2 {
        fill: #fcd116;
      }

      .st2 {
        stroke: #806600;
        stroke-linecap: square;
        stroke-width: 1.98px;
      }
    </style>
  </defs>
  <path class="st0" d="M-.89,0l1000,640H-.89V0Z"/>
  <path class="st1" d="M3.56,632.94l.65,1.93h2.11l-1.71,1.19.65,1.93-1.71-1.19-1.71,1.19.65-1.93-1.71-1.19h2.11l.65-1.93ZM3.56,599.87l.65,1.93h2.11l-1.71,1.19.65,1.93-1.71-1.19-1.71,1.19.65-1.93-1.71-1.19h2.11l.65-1.93ZM3.56,566.81l.65,1.93h2.11l-1.71,1.19.65,1.93-1.71-1.19-1.71,1.19.65-1.93-1.71-1.19h2.11l.65-1.93ZM3.56,533.74l.65,1.93h2.11l-1.71,1.19.65,1.93-1.71-1.19-1.71,1.19.65-1.93-1.71-1.19h2.11l.65-1.93ZM3.56,500.67l.65,1.93h2.11s-1.71,1.19-1.71,1.19l.65,1.93-1.71-1.19-1.71,1.19.65-1.93-1.71-1.19h2.11s.65-1.93.65-1.93ZM3.56,467.61l.65,1.93h2.11l-1.71,1.19.65,1.93-1.71-1.19-1.71,1.19.65-1.93-1.71-1.19h2.11l.65-1.93ZM3.56,434.54l.65,1.93h2.11l-1.71,1.19.65,1.93-1.71-1.19-1.71,1.19.65-1.93-1.71-1.19h2.11l.65-1.93ZM3.56,401.47l.65,1.93h2.11l-1.71,1.19.65,1.93-1.71-1.19-1.71,1.19.65-1.93-1.71-1.19h2.11l.65-1.93ZM3.56,368.41l.65,1.93h2.11l-1.71,1.19.65,1.93-1.71-1.19-1.71,1.19.65-1.93-1.71-1.19h2.11l.65-1.93ZM3.56,335.34l.65,1.93h2.11l-1.71,1.19.65,1.93-1.71-1.19-1.71,1.19.65-1.93-1.71-1.19h2.11l.65-1.93ZM3.56,302.27l.65,1.93h2.11l-1.71,1.19.65,1.93-1.71-1.19-1.71,1.19.65-1.93-1.71-1.19h2.11l.65-1.93ZM3.56,269.21l.65,1.93h2.11l-1.71,1.19.65,1.93-1.71-1.19-1.71,1.19.65-1.93-1.71-1.19h2.11l.65-1.93ZM3.56,236.14l.65,1.93h2.11s-1.71,1.19-1.71,1.19l.65,1.93-1.71-1.19-1.71,1.19.65-1.93-1.71-1.19h2.11s.65-1.93.65-1.93ZM3.56,203.07l.65,1.93h2.11s-1.71,1.19-1.71,1.19l.65,1.93-1.71-1.19-1.71,1.19.65-1.93-1.71-1.19h2.11s.65-1.93.65-1.93ZM3.56,170.01l.65,1.93h2.11s-1.71,1.19-1.71,1.19l.65,1.93-1.71-1.19-1.71,1.19.65-1.93-1.71-1.19h2.11s.65-1.93.65-1.93ZM3.56,136.94l.65,1.93h2.11s-1.71,1.19-1.71,1.19l.65,1.93-1.71-1.19-1.71,1.19.65-1.93-1.71-1.19h2.11s.65-1.93.65-1.93ZM3.56,103.87l.65,1.93h2.11s-1.71,1.19-1.71,1.19l.65,1.93-1.71-1.19-1.71,1.19.65-1.93-1.71-1.19h2.11s.65-1.93.65-1.93ZM3.56,70.81l.65,1.93h2.11s-1.71,1.19-1.71,1.19l.65,1.93-1.71-1.19-1.71,1.19.65-1.93-1.71-1.19h2.11s.65-1.93.65-1.93ZM3.56,37.74l.65,1.93h2.11s-1.71,1.19-1.71,1.19l.65,1.93-1.71-1.19-1.71,1.19.65-1.93-1.71-1.19h2.11s.65-1.93.65-1.93ZM3.56,4.67l.65,1.93h2.11s-1.71,1.19-1.71,1.19l.65,1.93-1.71-1.19-1.71,1.19.65-1.93-1.71-1.19h2.11s.65-1.93.65-1.93ZM29.35,616.41l.65,1.93h2.11l-1.71,1.19.65,1.93-1.71-1.19-1.71,1.19.65-1.93-1.71-1.19h2.11l.65-1.93ZM29.35,583.34l.65,1.93h2.11l-1.71,1.19.65,1.93-1.71-1.19-1.71,1.19.65-1.93-1.71-1.19h2.11l.65-1.93ZM29.35,550.27l.65,1.93h2.11l-1.71,1.19.65,1.93-1.71-1.19-1.71,1.19.65-1.93-1.71-1.19h2.11l.65-1.93ZM29.35,517.21l.65,1.93h2.11l-1.71,1.19.65,1.93-1.71-1.19-1.71,1.19.65-1.93-1.71-1.19h2.11l.65-1.93ZM29.35,484.14l.65,1.93h2.11l-1.71,1.19.65,1.93-1.71-1.19-1.71,1.19.65-1.93-1.71-1.19h2.11l.65-1.93ZM29.35,451.07l.65,1.93h2.11l-1.71,1.19.65,1.93-1.71-1.19-1.71,1.19.65-1.93-1.71-1.19h2.11l.65-1.93ZM29.35,418.01l.65,1.93h2.11l-1.71,1.19.65,1.93-1.71-1.19-1.71,1.19.65-1.93-1.71-1.19h2.11l.65-1.93ZM29.35,384.94l.65,1.93h2.11l-1.71,1.19.65,1.93-1.71-1.19-1.71,1.19.65-1.93-1.71-1.19h2.11l.65-1.93ZM29.35,351.87l.65,1.93h2.11l-1.71,1.19.65,1.93-1.71-1.19-1.71,1.19.65-1.93-1.71-1.19h2.11l.65-1.93ZM29.35,318.81l.65,1.93h2.11l-1.71,1.19.65,1.93-1.71-1.19-1.71,1.19.65-1.93-1.71-1.19h2.11l.65-1.93ZM29.35,285.74l.65,1.93h2.11l-1.71,1.19.65,1.93-1.71-1.19-1.71,1.19.65-1.93-1.71-1.19h2.11l.65-1.93ZM29.35,252.67l.65,1.93h2.11s-1.71,1.19-1.71,1.19l.65,1.93-1.71-1.19-1.71,1.19.65-1.93-1.71-1.19h2.11s.65-1.93.65-1.93ZM29.35,219.61l.65,1.93h2.11s-1.71,1.19-1.71,1.19l.65,1.93-1.71-1.19-1.71,1.19.65-1.93-1.71-1.19h2.11s.65-1.93.65-1.93ZM29.35,186.54l.65,1.93h2.11s-1.71,1.19-1.71,1.19l.65,1.93-1.71-1.19-1.71,1.19.65-1.93-1.71-1.19h2.11s.65-1.93.65-1.93ZM29.35,153.47l.65,1.93h2.11s-1.71,1.19-1.71,1.19l.65,1.93-1.71-1.19-1.71,1.19.65-1.93-1.71-1.19h2.11s.65-1.93.65-1.93ZM29.35,120.41l.65,1.93h2.11s-1.71,1.19-1.71,1.19l.65,1.93-1.71-1.19-1.71,1.19.65-1.93-1.71-1.19h2.11s.65-1.93.65-1.93ZM29.35,87.34l.65,1.93h2.11s-1.71,1.19-1.71,1.19l.65,1.93-1.71-1.19-1.71,1.19.65-1.93-1.71-1.19h2.11s.65-1.93.65-1.93ZM29.35,54.27l.65,1.93h2.11s-1.71,1.19-1.71,1.19l.65,1.93-1.71-1.19-1.71,1.19.65-1.93-1.71-1.19h2.11s.65-1.93.65-1.93ZM29.35,21.21l.65,1.93h2.11s-1.71,1.19-1.71,1.19l.65,1.93-1.71-1.19-1.71,1.19.65-1.93-1.71-1.19h2.11s.65-1.93.65-1.93ZM55.14,632.94l.65,1.93h2.11l-1.71,1.19.65,1.93-1.71-1.19-1.71,1.19.65-1.93-1.71-1.19h2.11l.65-1.93ZM55.14,599.87l.65,1.93h2.11l-1.71,1.19.65,1.93-1.71-1.19-1.71,1.19.65-1.93-1.71-1.19h2.11l.65-1.93ZM55.14,566.81l.65,1.93h2.11l-1.71,1.19.65,1.93-1.71-1.19-1.71,1.19.65-1.93-1.71-1.19h2.11l.65-1.93ZM55.14,533.74l.65,1.93h2.11l-1.71,1.19.65,1.93-1.71-1.19-1.71,1.19.65-1.93-1.71-1.19h2.11l.65-1.93ZM55.14,500.67l.65,1.93h2.11s-1.71,1.19-1.71,1.19l.65,1.93-1.71-1.19-1.71,1.19.65-1.93-1.71-1.19h2.11s.65-1.93.65-1.93ZM55.14,467.61l.65,1.93h2.11l-1.71,1.19.65,1.93-1.71-1.19-1.71,1.19.65-1.93-1.71-1.19h2.11l.65-1.93ZM55.14,434.54l.65,1.93h2.11l-1.71,1.19.65,1.93-1.71-1.19-1.71,1.19.65-1.93-1.71-1.19h2.11l.65-1.93ZM55.14,401.47l.65,1.93h2.11l-1.71,1.19.65,1.93-1.71-1.19-1.71,1.19.65-1.93-1.71-1.19h2.11l.65-1.93ZM55.14,368.41l.65,1.93h2.11l-1.71,1.19.65,1.93-1.71-1.19-1.71,1.19.65-1.93-1.71-1.19h2.11l.65-1.93ZM55.14,335.34l.65,1.93h2.11l-1.71,1.19.65,1.93-1.71-1.19-1.71,1.19.65-1.93-1.71-1.19h2.11l.65-1.93ZM55.14,302.27l.65,1.93h2.11l-1.71,1.19.65,1.93-1.71-1.19-1.71,1.19.65-1.93-1.71-1.19h2.11l.65-1.93ZM55.14,269.21l.65,1.93h2.11l-1.71,1.19.65,1.93-1.71-1.19-1.71,1.19.65-1.93-1.71-1.19h2.11l.65-1.93ZM55.14,236.14l.65,1.93h2.11s-1.71,1.19-1.71,1.19l.65,1.93-1.71-1.19-1.71,1.19.65-1.93-1.71-1.19h2.11s.65-1.93.65-1.93ZM55.14,203.07l.65,1.93h2.11s-1.71,1.19-1.71,1.19l.65,1.93-1.71-1.19-1.71,1.19.65-1.93-1.71-1.19h2.11s.65-1.93.65-1.93ZM55.14,170.01l.65,1.93h2.11s-1.71,1.19-1.71,1.19l.65,1.93-1.71-1.19-1.71,1.19.65-1.93-1.71-1.19h2.11s.65-1.93.65-1.93ZM55.14,136.94l.65,1.93h2.11s-1.71,1.19-1.71,1.19l.65,1.93-1.71-1.19-1.71,1.19.65-1.93-1.71-1.19h2.11s.65-1.93.65-1.93ZM55.14,103.87l.65,1.93h2.11s-1.71,1.19-1.71,1.19l.65,1.93-1.71-1.19-1.71,1.19.65-1.93-1.71-1.19h2.11s.65-1.93.65-1.93ZM55.14,70.81l.65,1.93h2.11s-1.71,1.19-1.71,1.19l.65,1.93-1.71-1.19-1.71,1.19.65-1.93-1.71-1.19h2.11s.65-1.93.65-1.93ZM55.14,37.74l.65,1.93h2.11s-1.71,1.19-1.71,1.19l.65,1.93-1.71-1.19-1.71,1.19.65-1.93-1.71-1.19h2.11s.65-1.93.65-1.93ZM80.93,616.41l.65,1.93h2.11l-1.71,1.19.65,1.93-1.71-1.19-1.71,1.19.65-1.93-1.71-1.19h2.11l.65-1.93ZM80.93,583.34l.65,1.93h2.11l-1.71,1.19.65,1.93-1.71-1.19-1.71,1.19.65-1.93-1.71-1.19h2.11l.65-1.93ZM80.93,550.27l.65,1.93h2.11l-1.71,1.19.65,1.93-1.71-1.19-1.71,1.19.65-1.93-1.71-1.19h2.11l.65-1.93ZM80.93,517.21l.65,1.93h2.11l-1.71,1.19.65,1.93-1.71-1.19-1.71,1.19.65-1.93-1.71-1.19h2.11l.65-1.93ZM80.93,484.14l.65,1.93h2.11l-1.71,1.19.65,1.93-1.71-1.19-1.71,1.19.65-1.93-1.71-1.19h2.11l.65-1.93ZM80.93,451.07l.65,1.93h2.11l-1.71,1.19.65,1.93-1.71-1.19-1.71,1.19.65-1.93-1.71-1.19h2.11l.65-1.93ZM80.93,418.01l.65,1.93h2.11l-1.71,1.19.65,1.93-1.71-1.19-1.71,1.19.65-1.93-1.71-1.19h2.11l.65-1.93ZM80.93,384.94l.65,1.93h2.11l-1.71,1.19.65,1.93-1.71-1.19-1.71,1.19.65-1.93-1.71-1.19h2.11l.65-1.93ZM80.93,351.87l.65,1.93h2.11l-1.71,1.19.65,1.93-1.71-1.19-1.71,1.19.65-1.93-1.71-1.19h2.11l.65-1.93ZM80.93,318.81l.65,1.93h2.11l-1.71,1.19.65,1.93-1.71-1.19-1.71,1.19.65-1.93-1.71-1.19h2.11l.65-1.93ZM80.93,285.74l.65,1.93h2.11l-1.71,1.19.65,1.93-1.71-1.19-1.71,1.19.65-1.93-1.71-1.19h2.11l.65-1.93ZM80.93,252.67l.65,1.93h2.11s-1.71,1.19-1.71,1.19l.65,1.93-1.71-1.19-1.71,1.19.65-1.93-1.71-1.19h2.11s.65-1.93.65-1.93ZM80.93,219.61l.65,1.93h2.11s-1.71,1.19-1.71,1.19l.65,1.93-1.71-1.19-1.71,1.19.65-1.93-1.71-1.19h2.11s.65-1.93.65-1.93ZM80.93,186.54l.65,1.93h2.11s-1.71,1.19-1.71,1.19l.65,1.93-1.71-1.19-1.71,1.19.65-1.93-1.71-1.19h2.11s.65-1.93.65-1.93ZM80.93,153.47l.65,1.93h2.11s-1.71,1.19-1.71,1.19l.65,1.93-1.71-1.19-1.71,1.19.65-1.93-1.71-1.19h2.11s.65-1.93.65-1.93ZM80.93,120.41l.65,1.93h2.11s-1.71,1.19-1.71,1.19l.65,1.93-1.71-1.19-1.71,1.19.65-1.93-1.71-1.19h2.11s.65-1.93.65-1.93ZM80.93,87.34l.65,1.93h2.11s-1.71,1.19-1.71,1.19l.65,1.93-1.71-1.19-1.71,1.19.65-1.93-1.71-1.19h2.11s.65-1.93.65-1.93ZM80.93,54.27l.65,1.93h2.11s-1.71,1.19-1.71,1.19l.65,1.93-1.71-1.19-1.71,1.19.65-1.93-1.71-1.19h2.11s.65-1.93.65-1.93ZM106.71,632.94l.65,1.93h2.11l-1.71,1.19.65,1.93-1.71-1.19-1.71,1.19.65-1.93-1.71-1.19h2.11l.65-1.93ZM106.71,599.87l.65,1.93h2.11l-1.71,1.19.65,1.93-1.71-1.19-1.71,1.19.65-1.93-1.71-1.19h2.11l.65-1.93ZM106.71,566.81l.65,1.93h2.11l-1.71,1.19.65,1.93-1.71-1.19-1.71,1.19.65-1.93-1.71-1.19h2.11l.65-1.93ZM106.71,533.74l.65,1.93h2.11l-1.71,1.19.65,1.93-1.71-1.19-1.71,1.19.65-1.93-1.71-1.19h2.11l.65-1.93ZM106.71,500.67l.65,1.93h2.11s-1.71,1.19-1.71,1.19l.65,1.93-1.71-1.19-1.71,1.19.65-1.93-1.71-1.19h2.11s.65-1.93.65-1.93ZM106.71,467.61l.65,1.93h2.11l-1.71,1.19.65,1.93-1.71-1.19-1.71,1.19.65-1.93-1.71-1.19h2.11l.65-1.93ZM106.71,434.54l.65,1.93h2.11l-1.71,1.19.65,1.93-1.71-1.19-1.71,1.19.65-1.93-1.71-1.19h2.11l.65-1.93ZM106.71,401.47l.65,1.93h2.11l-1.71,1.19.65,1.93-1.71-1.19-1.71,1.19.65-1.93-1.71-1.19h2.11l.65-1.93ZM106.71,368.41l.65,1.93h2.11l-1.71,1.19.65,1.93-1.71-1.19-1.71,1.19.65-1.93-1.71-1.19h2.11l.65-1.93ZM106.71,335.34l.65,1.93h2.11l-1.71,1.19.65,1.93-1.71-1.19-1.71,1.19.65-1.93-1.71-1.19h2.11l.65-1.93ZM106.71,302.27l.65,1.93h2.11l-1.71,1.19.65,1.93-1.71-1.19-1.71,1.19.65-1.93-1.71-1.19h2.11l.65-1.93ZM106.71,269.21l.65,1.93h2.11l-1.71,1.19.65,1.93-1.71-1.19-1.71,1.19.65-1.93-1.71-1.19h2.11l.65-1.93ZM106.71,236.14l.65,1.93h2.11s-1.71,1.19-1.71,1.19l.65,1.93-1.71-1.19-1.71,1.19.65-1.93-1.71-1.19h2.11s.65-1.93.65-1.93ZM106.71,203.07l.65,1.93h2.11s-1.71,1.19-1.71,1.19l.65,1.93-1.71-1.19-1.71,1.19.65-1.93-1.71-1.19h2.11s.65-1.93.65-1.93ZM106.71,170.01l.65,1.93h2.11s-1.71,1.19-1.71,1.19l.65,1.93-1.71-1.19-1.71,1.19.65-1.93-1.71-1.19h2.11s.65-1.93.65-1.93ZM106.71,136.94l.65,1.93h2.11s-1.71,1.19-1.71,1.19l.65,1.93-1.71-1.19-1.71,1.19.65-1.93-1.71-1.19h2.11s.65-1.93.65-1.93ZM106.71,103.87l.65,1.93h2.11s-1.71,1.19-1.71,1.19l.65,1.93-1.71-1.19-1.71,1.19.65-1.93-1.71-1.19h2.11s.65-1.93.65-1.93ZM106.71,70.81l.65,1.93h2.11s-1.71,1.19-1.71,1.19l.65,1.93-1.71-1.19-1.71,1.19.65-1.93-1.71-1.19h2.11s.65-1.93.65-1.93ZM132.5,616.41l.65,1.93h2.11l-1.71,1.19.65,1.93-1.71-1.19-1.71,1.19.65-1.93-1.71-1.19h2.11l.65-1.93ZM132.5,583.34l.65,1.93h2.11l-1.71,1.19.65,1.93-1.71-1.19-1.71,1.19.65-1.93-1.71-1.19h2.11l.65-1.93ZM132.5,550.27l.65,1.93h2.11l-1.71,1.19.65,1.93-1.71-1.19-1.71,1.19.65-1.93-1.71-1.19h2.11l.65-1.93ZM132.5,517.21l.65,1.93h2.11l-1.71,1.19.65,1.93-1.71-1.19-1.71,1.19.65-1.93-1.71-1.19h2.11l.65-1.93ZM132.5,484.14l.65,1.93h2.11l-1.71,1.19.65,1.93-1.71-1.19-1.71,1.19.65-1.93-1.71-1.19h2.11l.65-1.93ZM132.5,451.07l.65,1.93h2.11l-1.71,1.19.65,1.93-1.71-1.19-1.71,1.19.65-1.93-1.71-1.19h2.11l.65-1.93ZM132.5,418.01l.65,1.93h2.11l-1.71,1.19.65,1.93-1.71-1.19-1.71,1.19.65-1.93-1.71-1.19h2.11l.65-1.93ZM132.5,384.94l.65,1.93h2.11l-1.71,1.19.65,1.93-1.71-1.19-1.71,1.19.65-1.93-1.71-1.19h2.11l.65-1.93ZM132.5,351.87l.65,1.93h2.11l-1.71,1.19.65,1.93-1.71-1.19-1.71,1.19.65-1.93-1.71-1.19h2.11l.65-1.93ZM132.5,318.81l.65,1.93h2.11l-1.71,1.19.65,1.93-1.71-1.19-1.71,1.19.65-1.93-1.71-1.19h2.11l.65-1.93ZM132.5,285.74l.65,1.93h2.11l-1.71,1.19.65,1.93-1.71-1.19-1.71,1.19.65-1.93-1.71-1.19h2.11l.65-1.93ZM132.5,252.67l.65,1.93h2.11s-1.71,1.19-1.71,1.19l.65,1.93-1.71-1.19-1.71,1.19.65-1.93-1.71-1.19h2.11s.65-1.93.65-1.93ZM132.5,219.61l.65,1.93h2.11s-1.71,1.19-1.71,1.19l.65,1.93-1.71-1.19-1.71,1.19.65-1.93-1.71-1.19h2.11s.65-1.93.65-1.93ZM132.5,186.54l.65,1.93h2.11s-1.71,1.19-1.71,1.19l.65,1.93-1.71-1.19-1.71,1.19.65-1.93-1.71-1.19h2.11s.65-1.93.65-1.93ZM132.5,153.47l.65,1.93h2.11s-1.71,1.19-1.71,1.19l.65,1.93-1.71-1.19-1.71,1.19.65-1.93-1.71-1.19h2.11s.65-1.93.65-1.93ZM132.5,120.41l.65,1.93h2.11s-1.71,1.19-1.71,1.19l.65,1.93-1.71-1.19-1.71,1.19.65-1.93-1.71-1.19h2.11s.65-1.93.65-1.93ZM132.5,87.34l.65,1.93h2.11s-1.71,1.19-1.71,1.19l.65,1.93-1.71-1.19-1.71,1.19.65-1.93-1.71-1.19h2.11s.65-1.93.65-1.93ZM158.29,632.94l.65,1.93h2.11l-1.71,1.19.65,1.93-1.71-1.19-1.71,1.19.65-1.93-1.71-1.19h2.11l.65-1.93ZM158.29,599.87l.65,1.93h2.11l-1.71,1.19.65,1.93-1.71-1.19-1.71,1.19.65-1.93-1.71-1.19h2.11l.65-1.93ZM158.29,566.81l.65,1.93h2.11l-1.71,1.19.65,1.93-1.71-1.19-1.71,1.19.65-1.93-1.71-1.19h2.11l.65-1.93ZM158.29,533.74l.65,1.93h2.11l-1.71,1.19.65,1.93-1.71-1.19-1.71,1.19.65-1.93-1.71-1.19h2.11l.65-1.93ZM158.29,500.67l.65,1.93h2.11s-1.71,1.19-1.71,1.19l.65,1.93-1.71-1.19-1.71,1.19.65-1.93-1.71-1.19h2.11s.65-1.93.65-1.93ZM158.29,467.61l.65,1.93h2.11l-1.71,1.19.65,1.93-1.71-1.19-1.71,1.19.65-1.93-1.71-1.19h2.11l.65-1.93ZM158.29,434.54l.65,1.93h2.11l-1.71,1.19.65,1.93-1.71-1.19-1.71,1.19.65-1.93-1.71-1.19h2.11l.65-1.93ZM158.29,401.47l.65,1.93h2.11l-1.71,1.19.65,1.93-1.71-1.19-1.71,1.19.65-1.93-1.71-1.19h2.11l.65-1.93ZM158.29,368.41l.65,1.93h2.11l-1.71,1.19.65,1.93-1.71-1.19-1.71,1.19.65-1.93-1.71-1.19h2.11l.65-1.93ZM158.29,335.34l.65,1.93h2.11l-1.71,1.19.65,1.93-1.71-1.19-1.71,1.19.65-1.93-1.71-1.19h2.11l.65-1.93ZM158.29,302.27l.65,1.93h2.11l-1.71,1.19.65,1.93-1.71-1.19-1.71,1.19.65-1.93-1.71-1.19h2.11l.65-1.93ZM158.29,269.21l.65,1.93h2.11l-1.71,1.19.65,1.93-1.71-1.19-1.71,1.19.65-1.93-1.71-1.19h2.11l.65-1.93ZM158.29,236.14l.65,1.93h2.11s-1.71,1.19-1.71,1.19l.65,1.93-1.71-1.19-1.71,1.19.65-1.93-1.71-1.19h2.11s.65-1.93.65-1.93ZM158.29,203.07l.65,1.93h2.11s-1.71,1.19-1.71,1.19l.65,1.93-1.71-1.19-1.71,1.19.65-1.93-1.71-1.19h2.11s.65-1.93.65-1.93ZM158.29,170.01l.65,1.93h2.11s-1.71,1.19-1.71,1.19l.65,1.93-1.71-1.19-1.71,1.19.65-1.93-1.71-1.19h2.11s.65-1.93.65-1.93ZM158.29,136.94l.65,1.93h2.11s-1.71,1.19-1.71,1.19l.65,1.93-1.71-1.19-1.71,1.19.65-1.93-1.71-1.19h2.11s.65-1.93.65-1.93ZM158.29,103.87l.65,1.93h2.11s-1.71,1.19-1.71,1.19l.65,1.93-1.71-1.19-1.71,1.19.65-1.93-1.71-1.19h2.11s.65-1.93.65-1.93ZM184.08,616.41l.65,1.93h2.11l-1.71,1.19.65,1.93-1.71-1.19-1.71,1.19.65-1.93-1.71-1.19h2.11l.65-1.93ZM184.08,583.34l.65,1.93h2.11l-1.71,1.19.65,1.93-1.71-1.19-1.71,1.19.65-1.93-1.71-1.19h2.11l.65-1.93ZM184.08,550.27l.65,1.93h2.11l-1.71,1.19.65,1.93-1.71-1.19-1.71,1.19.65-1.93-1.71-1.19h2.11l.65-1.93ZM184.08,517.21l.65,1.93h2.11l-1.71,1.19.65,1.93-1.71-1.19-1.71,1.19.65-1.93-1.71-1.19h2.11l.65-1.93ZM184.08,484.14l.65,1.93h2.11l-1.71,1.19.65,1.93-1.71-1.19-1.71,1.19.65-1.93-1.71-1.19h2.11l.65-1.93ZM184.08,318.81l.65,1.93h2.11l-1.71,1.19.65,1.93-1.71-1.19-1.71,1.19.65-1.93-1.71-1.19h2.11l.65-1.93ZM184.08,285.74l.65,1.93h2.11l-1.71,1.19.65,1.93-1.71-1.19-1.71,1.19.65-1.93-1.71-1.19h2.11l.65-1.93ZM184.08,252.67l.65,1.93h2.11s-1.71,1.19-1.71,1.19l.65,1.93-1.71-1.19-1.71,1.19.65-1.93-1.71-1.19h2.11s.65-1.93.65-1.93ZM184.08,219.61l.65,1.93h2.11s-1.71,1.19-1.71,1.19l.65,1.93-1.71-1.19-1.71,1.19.65-1.93-1.71-1.19h2.11s.65-1.93.65-1.93ZM184.08,186.54l.65,1.93h2.11s-1.71,1.19-1.71,1.19l.65,1.93-1.71-1.19-1.71,1.19.65-1.93-1.71-1.19h2.11s.65-1.93.65-1.93ZM184.08,153.47l.65,1.93h2.11s-1.71,1.19-1.71,1.19l.65,1.93-1.71-1.19-1.71,1.19.65-1.93-1.71-1.19h2.11s.65-1.93.65-1.93ZM184.08,120.41l.65,1.93h2.11s-1.71,1.19-1.71,1.19l.65,1.93-1.71-1.19-1.71,1.19.65-1.93-1.71-1.19h2.11s.65-1.93.65-1.93ZM209.87,632.94l.65,1.93h2.11l-1.71,1.19.65,1.93-1.71-1.19-1.71,1.19.65-1.93-1.71-1.19h2.11l.65-1.93ZM209.87,599.87l.65,1.93h2.11l-1.71,1.19.65,1.93-1.71-1.19-1.71,1.19.65-1.93-1.71-1.19h2.11l.65-1.93ZM209.87,566.81l.65,1.93h2.11l-1.71,1.19.65,1.93-1.71-1.19-1.71,1.19.65-1.93-1.71-1.19h2.11l.65-1.93ZM209.87,302.27l.65,1.93h2.11l-1.71,1.19.65,1.93-1.71-1.19-1.71,1.19.65-1.93-1.71-1.19h2.11l.65-1.93ZM209.87,269.21l.65,1.93h2.11l-1.71,1.19.65,1.93-1.71-1.19-1.71,1.19.65-1.93-1.71-1.19h2.11l.65-1.93ZM209.87,236.14l.65,1.93h2.11s-1.71,1.19-1.71,1.19l.65,1.93-1.71-1.19-1.71,1.19.65-1.93-1.71-1.19h2.11s.65-1.93.65-1.93ZM209.87,203.07l.65,1.93h2.11s-1.71,1.19-1.71,1.19l.65,1.93-1.71-1.19-1.71,1.19.65-1.93-1.71-1.19h2.11s.65-1.93.65-1.93ZM209.87,170.01l.65,1.93h2.11s-1.71,1.19-1.71,1.19l.65,1.93-1.71-1.19-1.71,1.19.65-1.93-1.71-1.19h2.11s.65-1.93.65-1.93ZM209.87,136.94l.65,1.93h2.11s-1.71,1.19-1.71,1.19l.65,1.93-1.71-1.19-1.71,1.19.65-1.93-1.71-1.19h2.11s.65-1.93.65-1.93ZM235.66,616.41l.65,1.93h2.11l-1.71,1.19.65,1.93-1.71-1.19-1.71,1.19.65-1.93-1.71-1.19h2.11l.65-1.93ZM235.66,583.34l.65,1.93h2.11l-1.71,1.19.65,1.93-1.71-1.19-1.71,1.19.65-1.93-1.71-1.19h2.11l.65-1.93ZM235.66,550.27l.65,1.93h2.11l-1.71,1.19.65,1.93-1.71-1.19-1.71,1.19.65-1.93-1.71-1.19h2.11l.65-1.93ZM235.66,285.74l.65,1.93h2.11l-1.71,1.19.65,1.93-1.71-1.19-1.71,1.19.65-1.93-1.71-1.19h2.11l.65-1.93ZM235.66,252.67l.65,1.93h2.11s-1.71,1.19-1.71,1.19l.65,1.93-1.71-1.19-1.71,1.19.65-1.93-1.71-1.19h2.11s.65-1.93.65-1.93ZM235.66,219.61l.65,1.93h2.11s-1.71,1.19-1.71,1.19l.65,1.93-1.71-1.19-1.71,1.19.65-1.93-1.71-1.19h2.11s.65-1.93.65-1.93ZM235.66,186.54l.65,1.93h2.11s-1.71,1.19-1.71,1.19l.65,1.93-1.71-1.19-1.71,1.19.65-1.93-1.71-1.19h2.11s.65-1.93.65-1.93ZM235.66,153.47l.65,1.93h2.11s-1.71,1.19-1.71,1.19l.65,1.93-1.71-1.19-1.71,1.19.65-1.93-1.71-1.19h2.11s.65-1.93.65-1.93ZM261.45,632.94l.65,1.93h2.11l-1.71,1.19.65,1.93-1.71-1.19-1.71,1.19.65-1.93-1.71-1.19h2.11l.65-1.93ZM261.45,599.87l.65,1.93h2.11l-1.71,1.19.65,1.93-1.71-1.19-1.71,1.19.65-1.93-1.71-1.19h2.11l.65-1.93ZM261.45,566.81l.65,1.93h2.11l-1.71,1.19.65,1.93-1.71-1.19-1.71,1.19.65-1.93-1.71-1.19h2.11l.65-1.93ZM261.45,532.35l.65,1.93h2.11l-1.71,1.19.65,1.93-1.71-1.19-1.71,1.19.65-1.93-1.71-1.19h2.11l.65-1.93ZM261.45,269.21l.65,1.93h2.11l-1.71,1.19.65,1.93-1.71-1.19-1.71,1.19.65-1.93-1.71-1.19h2.11l.65-1.93ZM261.45,236.14l.65,1.93h2.11s-1.71,1.19-1.71,1.19l.65,1.93-1.71-1.19-1.71,1.19.65-1.93-1.71-1.19h2.11s.65-1.93.65-1.93ZM261.45,203.07l.65,1.93h2.11s-1.71,1.19-1.71,1.19l.65,1.93-1.71-1.19-1.71,1.19.65-1.93-1.71-1.19h2.11s.65-1.93.65-1.93ZM261.45,170.01l.65,1.93h2.11s-1.71,1.19-1.71,1.19l.65,1.93-1.71-1.19-1.71,1.19.65-1.93-1.71-1.19h2.11s.65-1.93.65-1.93ZM287.24,616.41l.65,1.93h2.11l-1.71,1.19.65,1.93-1.71-1.19-1.71,1.19.65-1.93-1.71-1.19h2.11l.65-1.93ZM287.24,583.34l.65,1.93h2.11l-1.71,1.19.65,1.93-1.71-1.19-1.71,1.19.65-1.93-1.71-1.19h2.11l.65-1.93ZM287.24,550.27l.65,1.93h2.11l-1.71,1.19.65,1.93-1.71-1.19-1.71,1.19.65-1.93-1.71-1.19h2.11l.65-1.93ZM287.24,252.67l.65,1.93h2.11s-1.71,1.19-1.71,1.19l.65,1.93-1.71-1.19-1.71,1.19.65-1.93-1.71-1.19h2.11s.65-1.93.65-1.93ZM287.24,219.61l.65,1.93h2.11s-1.71,1.19-1.71,1.19l.65,1.93-1.71-1.19-1.71,1.19.65-1.93-1.71-1.19h2.11s.65-1.93.65-1.93ZM287.24,186.54l.65,1.93h2.11s-1.71,1.19-1.71,1.19l.65,1.93-1.71-1.19-1.71,1.19.65-1.93-1.71-1.19h2.11s.65-1.93.65-1.93ZM313.03,632.94l.65,1.93h2.11l-1.71,1.19.65,1.93-1.71-1.19-1.71,1.19.65-1.93-1.71-1.19h2.11l.65-1.93ZM313.03,599.87l.65,1.93h2.11l-1.71,1.19.65,1.93-1.71-1.19-1.71,1.19.65-1.93-1.71-1.19h2.11l.65-1.93ZM313.03,566.81l.65,1.93h2.11l-1.71,1.19.65,1.93-1.71-1.19-1.71,1.19.65-1.93-1.71-1.19h2.11l.65-1.93ZM313.03,269.21l.65,1.93h2.11l-1.71,1.19.65,1.93-1.71-1.19-1.71,1.19.65-1.93-1.71-1.19h2.11l.65-1.93ZM313.03,236.14l.65,1.93h2.11s-1.71,1.19-1.71,1.19l.65,1.93-1.71-1.19-1.71,1.19.65-1.93-1.71-1.19h2.11s.65-1.93.65-1.93ZM313.03,203.07l.65,1.93h2.11s-1.71,1.19-1.71,1.19l.65,1.93-1.71-1.19-1.71,1.19.65-1.93-1.71-1.19h2.11s.65-1.93.65-1.93ZM338.82,616.41l.65,1.93h2.11l-1.71,1.19.65,1.93-1.71-1.19-1.71,1.19.65-1.93-1.71-1.19h2.11l.65-1.93ZM338.82,583.34l.65,1.93h2.11l-1.71,1.19.65,1.93-1.71-1.19-1.71,1.19.65-1.93-1.71-1.19h2.11l.65-1.93ZM338.82,550.27l.65,1.93h2.11l-1.71,1.19.65,1.93-1.71-1.19-1.71,1.19.65-1.93-1.71-1.19h2.11l.65-1.93ZM338.82,285.74l.65,1.93h2.11l-1.71,1.19.65,1.93-1.71-1.19-1.71,1.19.65-1.93-1.71-1.19h2.11l.65-1.93ZM338.82,252.67l.65,1.93h2.11s-1.71,1.19-1.71,1.19l.65,1.93-1.71-1.19-1.71,1.19.65-1.93-1.71-1.19h2.11s.65-1.93.65-1.93ZM338.82,219.61l.65,1.93h2.11s-1.71,1.19-1.71,1.19l.65,1.93-1.71-1.19-1.71,1.19.65-1.93-1.71-1.19h2.11s.65-1.93.65-1.93ZM364.61,632.94l.65,1.93h2.11l-1.71,1.19.65,1.93-1.71-1.19-1.71,1.19.65-1.93-1.71-1.19h2.11l.65-1.93ZM364.61,599.87l.65,1.93h2.11l-1.71,1.19.65,1.93-1.71-1.19-1.71,1.19.65-1.93-1.71-1.19h2.11l.65-1.93ZM364.61,566.81l.65,1.93h2.11l-1.71,1.19.65,1.93-1.71-1.19-1.71,1.19.65-1.93-1.71-1.19h2.11l.65-1.93ZM364.61,302.27l.65,1.93h2.11l-1.71,1.19.65,1.93-1.71-1.19-1.71,1.19.65-1.93-1.71-1.19h2.11l.65-1.93ZM364.61,269.21l.65,1.93h2.11l-1.71,1.19.65,1.93-1.71-1.19-1.71,1.19.65-1.93-1.71-1.19h2.11l.65-1.93ZM364.61,236.14l.65,1.93h2.11s-1.71,1.19-1.71,1.19l.65,1.93-1.71-1.19-1.71,1.19.65-1.93-1.71-1.19h2.11s.65-1.93.65-1.93ZM390.4,616.41l.65,1.93h2.11l-1.71,1.19.65,1.93-1.71-1.19-1.71,1.19.65-1.93-1.71-1.19h2.11l.65-1.93ZM390.4,583.34l.65,1.93h2.11l-1.71,1.19.65,1.93-1.71-1.19-1.71,1.19.65-1.93-1.71-1.19h2.11l.65-1.93ZM390.4,550.27l.65,1.93h2.11l-1.71,1.19.65,1.93-1.71-1.19-1.71,1.19.65-1.93-1.71-1.19h2.11l.65-1.93ZM390.4,318.81l.65,1.93h2.11l-1.71,1.19.65,1.93-1.71-1.19-1.71,1.19.65-1.93-1.71-1.19h2.11l.65-1.93ZM390.4,285.74l.65,1.93h2.11l-1.71,1.19.65,1.93-1.71-1.19-1.71,1.19.65-1.93-1.71-1.19h2.11l.65-1.93ZM390.4,252.67l.65,1.93h2.11s-1.71,1.19-1.71,1.19l.65,1.93-1.71-1.19-1.71,1.19.65-1.93-1.71-1.19h2.11s.65-1.93.65-1.93ZM416.19,632.94l.65,1.93h2.11l-1.71,1.19.65,1.93-1.71-1.19-1.71,1.19.65-1.93-1.71-1.19h2.11l.65-1.93ZM416.19,599.87l.65,1.93h2.11l-1.71,1.19.65,1.93-1.71-1.19-1.71,1.19.65-1.93-1.71-1.19h2.11l.65-1.93ZM416.19,566.81l.65,1.93h2.11l-1.71,1.19.65,1.93-1.71-1.19-1.71,1.19.65-1.93-1.71-1.19h2.11l.65-1.93ZM416.19,335.34l.65,1.93h2.11l-1.71,1.19.65,1.93-1.71-1.19-1.71,1.19.65-1.93-1.71-1.19h2.11l.65-1.93ZM416.19,302.27l.65,1.93h2.11l-1.71,1.19.65,1.93-1.71-1.19-1.71,1.19.65-1.93-1.71-1.19h2.11l.65-1.93ZM416.19,269.21l.65,1.93h2.11l-1.71,1.19.65,1.93-1.71-1.19-1.71,1.19.65-1.93-1.71-1.19h2.11l.65-1.93ZM441.98,616.41l.65,1.93h2.11l-1.71,1.19.65,1.93-1.71-1.19-1.71,1.19.65-1.93-1.71-1.19h2.11l.65-1.93ZM441.98,583.34l.65,1.93h2.11l-1.71,1.19.65,1.93-1.71-1.19-1.71,1.19.65-1.93-1.71-1.19h2.11l.65-1.93ZM441.98,550.27l.65,1.93h2.11l-1.71,1.19.65,1.93-1.71-1.19-1.71,1.19.65-1.93-1.71-1.19h2.11l.65-1.93ZM441.98,517.21l.65,1.93h2.11l-1.71,1.19.65,1.93-1.71-1.19-1.71,1.19.65-1.93-1.71-1.19h2.11l.65-1.93ZM441.98,451.07l.65,1.93h2.11l-1.71,1.19.65,1.93-1.71-1.19-1.71,1.19.65-1.93-1.71-1.19h2.11l.65-1.93ZM441.98,418.01l.65,1.93h2.11l-1.71,1.19.65,1.93-1.71-1.19-1.71,1.19.65-1.93-1.71-1.19h2.11l.65-1.93ZM441.98,384.94l.65,1.93h2.11l-1.71,1.19.65,1.93-1.71-1.19-1.71,1.19.65-1.93-1.71-1.19h2.11l.65-1.93ZM441.98,351.87l.65,1.93h2.11l-1.71,1.19.65,1.93-1.71-1.19-1.71,1.19.65-1.93-1.71-1.19h2.11l.65-1.93ZM441.98,318.81l.65,1.93h2.11l-1.71,1.19.65,1.93-1.71-1.19-1.71,1.19.65-1.93-1.71-1.19h2.11l.65-1.93ZM441.98,285.74l.65,1.93h2.11l-1.71,1.19.65,1.93-1.71-1.19-1.71,1.19.65-1.93-1.71-1.19h2.11l.65-1.93ZM467.77,632.94l.65,1.93h2.11l-1.71,1.19.65,1.93-1.71-1.19-1.71,1.19.65-1.93-1.71-1.19h2.11l.65-1.93ZM467.77,599.87l.65,1.93h2.11l-1.71,1.19.65,1.93-1.71-1.19-1.71,1.19.65-1.93-1.71-1.19h2.11l.65-1.93ZM467.77,566.81l.65,1.93h2.11l-1.71,1.19.65,1.93-1.71-1.19-1.71,1.19.65-1.93-1.71-1.19h2.11l.65-1.93ZM467.77,533.74l.65,1.93h2.11l-1.71,1.19.65,1.93-1.71-1.19-1.71,1.19.65-1.93-1.71-1.19h2.11l.65-1.93ZM467.77,500.67l.65,1.93h2.11s-1.71,1.19-1.71,1.19l.65,1.93-1.71-1.19-1.71,1.19.65-1.93-1.71-1.19h2.11s.65-1.93.65-1.93ZM467.77,467.61l.65,1.93h2.11l-1.71,1.19.65,1.93-1.71-1.19-1.71,1.19.65-1.93-1.71-1.19h2.11l.65-1.93ZM467.77,434.54l.65,1.93h2.11l-1.71,1.19.65,1.93-1.71-1.19-1.71,1.19.65-1.93-1.71-1.19h2.11l.65-1.93ZM467.77,401.47l.65,1.93h2.11l-1.71,1.19.65,1.93-1.71-1.19-1.71,1.19.65-1.93-1.71-1.19h2.11l.65-1.93ZM467.77,368.41l.65,1.93h2.11l-1.71,1.19.65,1.93-1.71-1.19-1.71,1.19.65-1.93-1.71-1.19h2.11l.65-1.93ZM467.77,335.34l.65,1.93h2.11l-1.71,1.19.65,1.93-1.71-1.19-1.71,1.19.65-1.93-1.71-1.19h2.11l.65-1.93ZM467.77,302.27l.65,1.93h2.11l-1.71,1.19.65,1.93-1.71-1.19-1.71,1.19.65-1.93-1.71-1.19h2.11l.65-1.93ZM493.56,616.41l.65,1.93h2.11l-1.71,1.19.65,1.93-1.71-1.19-1.71,1.19.65-1.93-1.71-1.19h2.11l.65-1.93ZM493.56,583.34l.65,1.93h2.11l-1.71,1.19.65,1.93-1.71-1.19-1.71,1.19.65-1.93-1.71-1.19h2.11l.65-1.93ZM493.56,550.27l.65,1.93h2.11l-1.71,1.19.65,1.93-1.71-1.19-1.71,1.19.65-1.93-1.71-1.19h2.11l.65-1.93ZM493.56,517.21l.65,1.93h2.11l-1.71,1.19.65,1.93-1.71-1.19-1.71,1.19.65-1.93-1.71-1.19h2.11l.65-1.93ZM493.56,484.14l.65,1.93h2.11l-1.71,1.19.65,1.93-1.71-1.19-1.71,1.19.65-1.93-1.71-1.19h2.11l.65-1.93ZM493.56,451.07l.65,1.93h2.11l-1.71,1.19.65,1.93-1.71-1.19-1.71,1.19.65-1.93-1.71-1.19h2.11l.65-1.93ZM493.56,418.01l.65,1.93h2.11l-1.71,1.19.65,1.93-1.71-1.19-1.71,1.19.65-1.93-1.71-1.19h2.11l.65-1.93ZM493.56,384.94l.65,1.93h2.11l-1.71,1.19.65,1.93-1.71-1.19-1.71,1.19.65-1.93-1.71-1.19h2.11l.65-1.93ZM493.56,351.87l.65,1.93h2.11l-1.71,1.19.65,1.93-1.71-1.19-1.71,1.19.65-1.93-1.71-1.19h2.11l.65-1.93ZM493.56,318.81l.65,1.93h2.11l-1.71,1.19.65,1.93-1.71-1.19-1.71,1.19.65-1.93-1.71-1.19h2.11l.65-1.93ZM519.35,632.94l.65,1.93h2.11l-1.71,1.19.65,1.93-1.71-1.19-1.71,1.19.65-1.93-1.71-1.19h2.11l.65-1.93ZM519.35,599.87l.65,1.93h2.11l-1.71,1.19.65,1.93-1.71-1.19-1.71,1.19.65-1.93-1.71-1.19h2.11l.65-1.93ZM519.35,566.81l.65,1.93h2.11l-1.71,1.19.65,1.93-1.71-1.19-1.71,1.19.65-1.93-1.71-1.19h2.11l.65-1.93ZM519.35,533.74l.65,1.93h2.11l-1.71,1.19.65,1.93-1.71-1.19-1.71,1.19.65-1.93-1.71-1.19h2.11l.65-1.93ZM519.35,500.67l.65,1.93h2.11s-1.71,1.19-1.71,1.19l.65,1.93-1.71-1.19-1.71,1.19.65-1.93-1.71-1.19h2.11s.65-1.93.65-1.93ZM519.35,467.61l.65,1.93h2.11l-1.71,1.19.65,1.93-1.71-1.19-1.71,1.19.65-1.93-1.71-1.19h2.11l.65-1.93ZM519.35,434.54l.65,1.93h2.11l-1.71,1.19.65,1.93-1.71-1.19-1.71,1.19.65-1.93-1.71-1.19h2.11l.65-1.93ZM519.35,401.47l.65,1.93h2.11l-1.71,1.19.65,1.93-1.71-1.19-1.71,1.19.65-1.93-1.71-1.19h2.11l.65-1.93ZM519.35,368.41l.65,1.93h2.11l-1.71,1.19.65,1.93-1.71-1.19-1.71,1.19.65-1.93-1.71-1.19h2.11l.65-1.93ZM519.35,335.34l.65,1.93h2.11l-1.71,1.19.65,1.93-1.71-1.19-1.71,1.19.65-1.93-1.71-1.19h2.11l.65-1.93ZM545.14,616.41l.65,1.93h2.11l-1.71,1.19.65,1.93-1.71-1.19-1.71,1.19.65-1.93-1.71-1.19h2.11l.65-1.93ZM545.14,583.34l.65,1.93h2.11l-1.71,1.19.65,1.93-1.71-1.19-1.71,1.19.65-1.93-1.71-1.19h2.11l.65-1.93ZM545.14,550.28l.65,1.93h2.11l-1.71,1.19.65,1.93-1.71-1.19-1.71,1.19.65-1.93-1.71-1.19h2.11l.65-1.93ZM545.14,517.21l.65,1.93h2.11l-1.71,1.19.65,1.93-1.71-1.19-1.71,1.19.65-1.93-1.71-1.19h2.11l.65-1.93ZM545.14,484.14l.65,1.93h2.11l-1.71,1.19.65,1.93-1.71-1.19-1.71,1.19.65-1.93-1.71-1.19h2.11l.65-1.93ZM545.14,451.08l.65,1.93h2.11l-1.71,1.19.65,1.93-1.71-1.19-1.71,1.19.65-1.93-1.71-1.19h2.11l.65-1.93ZM545.14,418.01l.65,1.93h2.11l-1.71,1.19.65,1.93-1.71-1.19-1.71,1.19.65-1.93-1.71-1.19h2.11l.65-1.93ZM545.14,384.94l.65,1.93h2.11l-1.71,1.19.65,1.93-1.71-1.19-1.71,1.19.65-1.93-1.71-1.19h2.11l.65-1.93ZM545.14,351.88l.65,1.93h2.11l-1.71,1.19.65,1.93-1.71-1.19-1.71,1.19.65-1.93-1.71-1.19h2.11l.65-1.93ZM570.93,632.94l.65,1.93h2.11l-1.71,1.19.65,1.93-1.71-1.19-1.71,1.19.65-1.93-1.71-1.19h2.11l.65-1.93ZM570.93,599.88l.65,1.93h2.11l-1.71,1.19.65,1.93-1.71-1.19-1.71,1.19.65-1.93-1.71-1.19h2.11l.65-1.93ZM570.93,566.81l.65,1.93h2.11l-1.71,1.19.65,1.93-1.71-1.19-1.71,1.19.65-1.93-1.71-1.19h2.11l.65-1.93ZM570.93,533.74l.65,1.93h2.11l-1.71,1.19.65,1.93-1.71-1.19-1.71,1.19.65-1.93-1.71-1.19h2.11l.65-1.93ZM570.93,500.68l.65,1.93h2.11s-1.71,1.19-1.71,1.19l.65,1.93-1.71-1.19-1.71,1.19.65-1.93-1.71-1.19h2.11s.65-1.93.65-1.93ZM570.93,467.61l.65,1.93h2.11l-1.71,1.19.65,1.93-1.71-1.19-1.71,1.19.65-1.93-1.71-1.19h2.11l.65-1.93ZM570.93,434.54l.65,1.93h2.11l-1.71,1.19.65,1.93-1.71-1.19-1.71,1.19.65-1.93-1.71-1.19h2.11l.65-1.93ZM570.93,401.48l.65,1.93h2.11l-1.71,1.19.65,1.93-1.71-1.19-1.71,1.19.65-1.93-1.71-1.19h2.11l.65-1.93ZM570.93,368.41l.65,1.93h2.11l-1.71,1.19.65,1.93-1.71-1.19-1.71,1.19.65-1.93-1.71-1.19h2.11l.65-1.93ZM596.71,616.41l.65,1.93h2.11l-1.71,1.19.65,1.93-1.71-1.19-1.71,1.19.65-1.93-1.71-1.19h2.11l.65-1.93ZM596.71,583.34l.65,1.93h2.11l-1.71,1.19.65,1.93-1.71-1.19-1.71,1.19.65-1.93-1.71-1.19h2.11l.65-1.93ZM596.71,550.28l.65,1.93h2.11l-1.71,1.19.65,1.93-1.71-1.19-1.71,1.19.65-1.93-1.71-1.19h2.11l.65-1.93ZM596.71,517.21l.65,1.93h2.11l-1.71,1.19.65,1.93-1.71-1.19-1.71,1.19.65-1.93-1.71-1.19h2.11l.65-1.93ZM596.71,484.14l.65,1.93h2.11l-1.71,1.19.65,1.93-1.71-1.19-1.71,1.19.65-1.93-1.71-1.19h2.11l.65-1.93ZM596.71,451.08l.65,1.93h2.11l-1.71,1.19.65,1.93-1.71-1.19-1.71,1.19.65-1.93-1.71-1.19h2.11l.65-1.93ZM596.71,418.01l.65,1.93h2.11l-1.71,1.19.65,1.93-1.71-1.19-1.71,1.19.65-1.93-1.71-1.19h2.11l.65-1.93ZM596.71,384.94l.65,1.93h2.11l-1.71,1.19.65,1.93-1.71-1.19-1.71,1.19.65-1.93-1.71-1.19h2.11l.65-1.93ZM622.5,632.94l.65,1.93h2.11l-1.71,1.19.65,1.93-1.71-1.19-1.71,1.19.65-1.93-1.71-1.19h2.11l.65-1.93ZM622.5,599.88l.65,1.93h2.11l-1.71,1.19.65,1.93-1.71-1.19-1.71,1.19.65-1.93-1.71-1.19h2.11l.65-1.93ZM622.5,566.81l.65,1.93h2.11l-1.71,1.19.65,1.93-1.71-1.19-1.71,1.19.65-1.93-1.71-1.19h2.11l.65-1.93ZM622.5,533.74l.65,1.93h2.11l-1.71,1.19.65,1.93-1.71-1.19-1.71,1.19.65-1.93-1.71-1.19h2.11l.65-1.93ZM622.5,500.68l.65,1.93h2.11s-1.71,1.19-1.71,1.19l.65,1.93-1.71-1.19-1.71,1.19.65-1.93-1.71-1.19h2.11s.65-1.93.65-1.93ZM622.5,467.61l.65,1.93h2.11l-1.71,1.19.65,1.93-1.71-1.19-1.71,1.19.65-1.93-1.71-1.19h2.11l.65-1.93ZM622.5,434.54l.65,1.93h2.11l-1.71,1.19.65,1.93-1.71-1.19-1.71,1.19.65-1.93-1.71-1.19h2.11l.65-1.93ZM622.5,401.48l.65,1.93h2.11l-1.71,1.19.65,1.93-1.71-1.19-1.71,1.19.65-1.93-1.71-1.19h2.11l.65-1.93ZM648.29,616.41l.65,1.93h2.11l-1.71,1.19.65,1.93-1.71-1.19-1.71,1.19.65-1.93-1.71-1.19h2.11l.65-1.93ZM648.29,583.34l.65,1.93h2.11l-1.71,1.19.65,1.93-1.71-1.19-1.71,1.19.65-1.93-1.71-1.19h2.11l.65-1.93ZM648.29,550.28l.65,1.93h2.11l-1.71,1.19.65,1.93-1.71-1.19-1.71,1.19.65-1.93-1.71-1.19h2.11l.65-1.93ZM648.29,517.21l.65,1.93h2.11l-1.71,1.19.65,1.93-1.71-1.19-1.71,1.19.65-1.93-1.71-1.19h2.11l.65-1.93ZM648.29,484.14l.65,1.93h2.11l-1.71,1.19.65,1.93-1.71-1.19-1.71,1.19.65-1.93-1.71-1.19h2.11l.65-1.93ZM648.29,451.08l.65,1.93h2.11l-1.71,1.19.65,1.93-1.71-1.19-1.71,1.19.65-1.93-1.71-1.19h2.11l.65-1.93ZM648.29,418.01l.65,1.93h2.11l-1.71,1.19.65,1.93-1.71-1.19-1.71,1.19.65-1.93-1.71-1.19h2.11l.65-1.93ZM674.08,632.94l.65,1.93h2.11l-1.71,1.19.65,1.93-1.71-1.19-1.71,1.19.65-1.93-1.71-1.19h2.11l.65-1.93ZM674.08,599.88l.65,1.93h2.11l-1.71,1.19.65,1.93-1.71-1.19-1.71,1.19.65-1.93-1.71-1.19h2.11l.65-1.93ZM674.08,566.81l.65,1.93h2.11l-1.71,1.19.65,1.93-1.71-1.19-1.71,1.19.65-1.93-1.71-1.19h2.11l.65-1.93ZM674.08,533.74l.65,1.93h2.11l-1.71,1.19.65,1.93-1.71-1.19-1.71,1.19.65-1.93-1.71-1.19h2.11l.65-1.93ZM674.08,500.68l.65,1.93h2.11s-1.71,1.19-1.71,1.19l.65,1.93-1.71-1.19-1.71,1.19.65-1.93-1.71-1.19h2.11s.65-1.93.65-1.93ZM674.08,467.61l.65,1.93h2.11l-1.71,1.19.65,1.93-1.71-1.19-1.71,1.19.65-1.93-1.71-1.19h2.11l.65-1.93ZM674.08,434.54l.65,1.93h2.11l-1.71,1.19.65,1.93-1.71-1.19-1.71,1.19.65-1.93-1.71-1.19h2.11l.65-1.93ZM699.87,616.41l.65,1.93h2.11l-1.71,1.19.65,1.93-1.71-1.19-1.71,1.19.65-1.93-1.71-1.19h2.11l.65-1.93ZM699.87,583.34l.65,1.93h2.11l-1.71,1.19.65,1.93-1.71-1.19-1.71,1.19.65-1.93-1.71-1.19h2.11l.65-1.93ZM699.87,550.28l.65,1.93h2.11l-1.71,1.19.65,1.93-1.71-1.19-1.71,1.19.65-1.93-1.71-1.19h2.11l.65-1.93ZM699.87,517.21l.65,1.93h2.11l-1.71,1.19.65,1.93-1.71-1.19-1.71,1.19.65-1.93-1.71-1.19h2.11l.65-1.93ZM699.87,484.14l.65,1.93h2.11l-1.71,1.19.65,1.93-1.71-1.19-1.71,1.19.65-1.93-1.71-1.19h2.11l.65-1.93ZM699.87,451.08l.65,1.93h2.11l-1.71,1.19.65,1.93-1.71-1.19-1.71,1.19.65-1.93-1.71-1.19h2.11l.65-1.93ZM725.66,632.94l.65,1.93h2.11l-1.71,1.19.65,1.93-1.71-1.19-1.71,1.19.65-1.93-1.71-1.19h2.11l.65-1.93ZM725.66,599.88l.65,1.93h2.11l-1.71,1.19.65,1.93-1.71-1.19-1.71,1.19.65-1.93-1.71-1.19h2.11l.65-1.93ZM725.66,566.81l.65,1.93h2.11l-1.71,1.19.65,1.93-1.71-1.19-1.71,1.19.65-1.93-1.71-1.19h2.11l.65-1.93ZM725.66,533.74l.65,1.93h2.11l-1.71,1.19.65,1.93-1.71-1.19-1.71,1.19.65-1.93-1.71-1.19h2.11l.65-1.93ZM725.66,500.68l.65,1.93h2.11s-1.71,1.19-1.71,1.19l.65,1.93-1.71-1.19-1.71,1.19.65-1.93-1.71-1.19h2.11s.65-1.93.65-1.93ZM725.66,467.61l.65,1.93h2.11l-1.71,1.19.65,1.93-1.71-1.19-1.71,1.19.65-1.93-1.71-1.19h2.11l.65-1.93ZM751.45,616.41l.65,1.93h2.11l-1.71,1.19.65,1.93-1.71-1.19-1.71,1.19.65-1.93-1.71-1.19h2.11l.65-1.93ZM751.45,583.34l.65,1.93h2.11l-1.71,1.19.65,1.93-1.71-1.19-1.71,1.19.65-1.93-1.71-1.19h2.11l.65-1.93ZM751.45,550.28l.65,1.93h2.11l-1.71,1.19.65,1.93-1.71-1.19-1.71,1.19.65-1.93-1.71-1.19h2.11l.65-1.93ZM751.45,517.21l.65,1.93h2.11l-1.71,1.19.65,1.93-1.71-1.19-1.71,1.19.65-1.93-1.71-1.19h2.11l.65-1.93ZM751.45,484.14l.65,1.93h2.11l-1.71,1.19.65,1.93-1.71-1.19-1.71,1.19.65-1.93-1.71-1.19h2.11l.65-1.93ZM777.24,632.94l.65,1.93h2.11l-1.71,1.19.65,1.93-1.71-1.19-1.71,1.19.65-1.93-1.71-1.19h2.11l.65-1.93ZM777.24,599.88l.65,1.93h2.11l-1.71,1.19.65,1.93-1.71-1.19-1.71,1.19.65-1.93-1.71-1.19h2.11l.65-1.93ZM777.24,566.81l.65,1.93h2.11l-1.71,1.19.65,1.93-1.71-1.19-1.71,1.19.65-1.93-1.71-1.19h2.11l.65-1.93ZM777.24,533.74l.65,1.93h2.11l-1.71,1.19.65,1.93-1.71-1.19-1.71,1.19.65-1.93-1.71-1.19h2.11l.65-1.93ZM777.24,500.68l.65,1.93h2.11s-1.71,1.19-1.71,1.19l.65,1.93-1.71-1.19-1.71,1.19.65-1.93-1.71-1.19h2.11s.65-1.93.65-1.93ZM803.03,616.41l.65,1.93h2.11l-1.71,1.19.65,1.93-1.71-1.19-1.71,1.19.65-1.93-1.71-1.19h2.11l.65-1.93ZM803.03,583.34l.65,1.93h2.11l-1.71,1.19.65,1.93-1.71-1.19-1.71,1.19.65-1.93-1.71-1.19h2.11l.65-1.93ZM803.03,550.28l.65,1.93h2.11l-1.71,1.19.65,1.93-1.71-1.19-1.71,1.19.65-1.93-1.71-1.19h2.11l.65-1.93ZM803.03,517.21l.65,1.93h2.11l-1.71,1.19.65,1.93-1.71-1.19-1.71,1.19.65-1.93-1.71-1.19h2.11l.65-1.93ZM828.82,632.94l.65,1.93h2.11l-1.71,1.19.65,1.93-1.71-1.19-1.71,1.19.65-1.93-1.71-1.19h2.11l.65-1.93ZM828.82,599.88l.65,1.93h2.11l-1.71,1.19.65,1.93-1.71-1.19-1.71,1.19.65-1.93-1.71-1.19h2.11l.65-1.93ZM828.82,566.81l.65,1.93h2.11l-1.71,1.19.65,1.93-1.71-1.19-1.71,1.19.65-1.93-1.71-1.19h2.11l.65-1.93ZM828.82,533.74l.65,1.93h2.11l-1.71,1.19.65,1.93-1.71-1.19-1.71,1.19.65-1.93-1.71-1.19h2.11l.65-1.93ZM854.61,616.41l.65,1.93h2.11l-1.71,1.19.65,1.93-1.71-1.19-1.71,1.19.65-1.93-1.71-1.19h2.11l.65-1.93ZM854.61,583.34l.65,1.93h2.11l-1.71,1.19.65,1.93-1.71-1.19-1.71,1.19.65-1.93-1.71-1.19h2.11l.65-1.93ZM854.61,550.28l.65,1.93h2.11l-1.71,1.19.65,1.93-1.71-1.19-1.71,1.19.65-1.93-1.71-1.19h2.11l.65-1.93ZM880.4,632.94l.65,1.93h2.11l-1.71,1.19.65,1.93-1.71-1.19-1.71,1.19.65-1.93-1.71-1.19h2.11l.65-1.93ZM880.4,599.88l.65,1.93h2.11l-1.71,1.19.65,1.93-1.71-1.19-1.71,1.19.65-1.93-1.71-1.19h2.11l.65-1.93ZM880.4,566.81l.65,1.93h2.11l-1.71,1.19.65,1.93-1.71-1.19-1.71,1.19.65-1.93-1.71-1.19h2.11l.65-1.93ZM906.19,616.41l.65,1.93h2.11l-1.71,1.19.65,1.93-1.71-1.19-1.71,1.19.65-1.93-1.71-1.19h2.11l.65-1.93ZM906.19,583.34l.65,1.93h2.11l-1.71,1.19.65,1.93-1.71-1.19-1.71,1.19.65-1.93-1.71-1.19h2.11l.65-1.93ZM931.98,632.94l.65,1.93h2.11l-1.71,1.19.65,1.93-1.71-1.19-1.71,1.19.65-1.93-1.71-1.19h2.11l.65-1.93ZM931.98,599.88l.65,1.93h2.11l-1.71,1.19.65,1.93-1.71-1.19-1.71,1.19.65-1.93-1.71-1.19h2.11l.65-1.93ZM957.77,616.41l.65,1.93h2.11l-1.71,1.19.65,1.93-1.71-1.19-1.71,1.19.65-1.93-1.71-1.19h2.11l.65-1.93ZM983.56,632.94l.65,1.93h2.11l-1.71,1.19.65,1.93-1.71-1.19-1.71,1.19.65-1.93-1.71-1.19h2.11l.65-1.93ZM209.87,499.07l.65,1.93h2.11l-1.71,1.19.65,1.93-1.71-1.19-1.71,1.19.65-1.93-1.71-1.19h2.11l.65-1.93ZM209.87,532.14l.65,1.93h2.11l-1.71,1.19.65,1.93-1.71-1.19-1.71,1.19.65-1.93-1.71-1.19h2.11l.65-1.93ZM235.66,517.85l.65,1.93h2.11l-1.71,1.19.65,1.93-1.71-1.19-1.71,1.19.65-1.93-1.71-1.19h2.11l.65-1.93ZM313.03,532.89l.65,1.93h2.11l-1.71,1.19.65,1.93-1.71-1.19-1.71,1.19.65-1.93-1.71-1.19h2.11l.65-1.93ZM364.61,532.78l.65,1.93h2.11l-1.71,1.19.65,1.93-1.71-1.19-1.71,1.19.65-1.93-1.71-1.19h2.11l.65-1.93ZM390.4,517.74l.65,1.93h2.11l-1.71,1.19.65,1.93-1.71-1.19-1.71,1.19.65-1.93-1.71-1.19h2.11l.65-1.93ZM416.19,466.01l.65,1.93h2.11l-1.71,1.19.65,1.93-1.71-1.19-1.71,1.19.65-1.93-1.71-1.19h2.11l.65-1.93ZM416.19,499.07l.65,1.93h2.11l-1.71,1.19.65,1.93-1.71-1.19-1.71,1.19.65-1.93-1.71-1.19h2.11l.65-1.93ZM416.19,533.31l.65,1.93h2.11l-1.71,1.19.65,1.93-1.71-1.19-1.71,1.19.65-1.93-1.71-1.19h2.11l.65-1.93ZM441.98,482.54l.65,1.93h2.11s-1.71,1.19-1.71,1.19l.65,1.93-1.71-1.19-1.71,1.19.65-1.93-1.71-1.19h2.11s.65-1.93.65-1.93ZM184.08,418.11l.65,1.93h2.11l-1.71,1.19.65,1.93-1.71-1.19-1.71,1.19.65-1.93-1.71-1.19h2.11l.65-1.93ZM184.08,385.05l.65,1.93h2.11l-1.71,1.19.65,1.93-1.71-1.19-1.71,1.19.65-1.93-1.71-1.19h2.11l.65-1.93ZM184.08,351.98l.65,1.93h2.11s-1.71,1.19-1.71,1.19l.65,1.93-1.71-1.19-1.71,1.19.65-1.93-1.71-1.19h2.11s.65-1.93.65-1.93ZM209.87,401.58l.65,1.93h2.11l-1.71,1.19.65,1.93-1.71-1.19-1.71,1.19.65-1.93-1.71-1.19h2.11l.65-1.93ZM209.87,368.51l.65,1.93h2.11l-1.71,1.19.65,1.93-1.71-1.19-1.71,1.19.65-1.93-1.71-1.19h2.11l.65-1.93ZM209.87,335.45l.65,1.93h2.11l-1.71,1.19.65,1.93-1.71-1.19-1.71,1.19.65-1.93-1.71-1.19h2.11l.65-1.93ZM235.66,385.05l.65,1.93h2.11l-1.71,1.19.65,1.93-1.71-1.19-1.71,1.19.65-1.93-1.71-1.19h2.11l.65-1.93ZM235.66,351.98l.65,1.93h2.11s-1.71,1.19-1.71,1.19l.65,1.93-1.71-1.19-1.71,1.19.65-1.93-1.71-1.19h2.11s.65-1.93.65-1.93ZM235.66,318.91l.65,1.93h2.11l-1.71,1.19.65,1.93-1.71-1.19-1.71,1.19.65-1.93-1.71-1.19h2.11l.65-1.93ZM261.45,368.51l.65,1.93h2.11l-1.71,1.19.65,1.93-1.71-1.19-1.71,1.19.65-1.93-1.71-1.19h2.11l.65-1.93ZM261.45,335.45l.65,1.93h2.11l-1.71,1.19.65,1.93-1.71-1.19-1.71,1.19.65-1.93-1.71-1.19h2.11l.65-1.93ZM261.45,302.38l.65,1.93h2.11l-1.71,1.19.65,1.93-1.71-1.19-1.71,1.19.65-1.93-1.71-1.19h2.11l.65-1.93ZM287.24,351.98l.65,1.93h2.11s-1.71,1.19-1.71,1.19l.65,1.93-1.71-1.19-1.71,1.19.65-1.93-1.71-1.19h2.11s.65-1.93.65-1.93ZM287.24,318.91l.65,1.93h2.11l-1.71,1.19.65,1.93-1.71-1.19-1.71,1.19.65-1.93-1.71-1.19h2.11l.65-1.93ZM287.24,285.85l.65,1.93h2.11l-1.71,1.19.65,1.93-1.71-1.19-1.71,1.19.65-1.93-1.71-1.19h2.11l.65-1.93ZM313.03,368.51l.65,1.93h2.11l-1.71,1.19.65,1.93-1.71-1.19-1.71,1.19.65-1.93-1.71-1.19h2.11l.65-1.93ZM313.03,335.45l.65,1.93h2.11l-1.71,1.19.65,1.93-1.71-1.19-1.71,1.19.65-1.93-1.71-1.19h2.11l.65-1.93ZM313.03,302.38l.65,1.93h2.11l-1.71,1.19.65,1.93-1.71-1.19-1.71,1.19.65-1.93-1.71-1.19h2.11l.65-1.93ZM338.82,385.05l.65,1.93h2.11l-1.71,1.19.65,1.93-1.71-1.19-1.71,1.19.65-1.93-1.71-1.19h2.11l.65-1.93ZM338.82,351.98l.65,1.93h2.11s-1.71,1.19-1.71,1.19l.65,1.93-1.71-1.19-1.71,1.19.65-1.93-1.71-1.19h2.11s.65-1.93.65-1.93ZM338.82,318.91l.65,1.93h2.11l-1.71,1.19.65,1.93-1.71-1.19-1.71,1.19.65-1.93-1.71-1.19h2.11l.65-1.93ZM364.61,401.58l.65,1.93h2.11l-1.71,1.19.65,1.93-1.71-1.19-1.71,1.19.65-1.93-1.71-1.19h2.11l.65-1.93ZM364.61,368.51l.65,1.93h2.11l-1.71,1.19.65,1.93-1.71-1.19-1.71,1.19.65-1.93-1.71-1.19h2.11l.65-1.93ZM364.61,335.45l.65,1.93h2.11l-1.71,1.19.65,1.93-1.71-1.19-1.71,1.19.65-1.93-1.71-1.19h2.11l.65-1.93ZM390.4,418.11l.65,1.93h2.11l-1.71,1.19.65,1.93-1.71-1.19-1.71,1.19.65-1.93-1.71-1.19h2.11l.65-1.93ZM390.4,385.05l.65,1.93h2.11l-1.71,1.19.65,1.93-1.71-1.19-1.71,1.19.65-1.93-1.71-1.19h2.11l.65-1.93ZM390.4,351.98l.65,1.93h2.11s-1.71,1.19-1.71,1.19l.65,1.93-1.71-1.19-1.71,1.19.65-1.93-1.71-1.19h2.11s.65-1.93.65-1.93ZM416.19,434.65l.65,1.93h2.11l-1.71,1.19.65,1.93-1.71-1.19-1.71,1.19.65-1.93-1.71-1.19h2.11l.65-1.93ZM416.19,401.58l.65,1.93h2.11l-1.71,1.19.65,1.93-1.71-1.19-1.71,1.19.65-1.93-1.71-1.19h2.11l.65-1.93ZM416.19,368.51l.65,1.93h2.11l-1.71,1.19.65,1.93-1.71-1.19-1.71,1.19.65-1.93-1.71-1.19h2.11l.65-1.93ZM184.08,451.82l.65,1.93h2.11l-1.71,1.19.65,1.93-1.71-1.19-1.71,1.19.65-1.93-1.71-1.19h2.11l.65-1.93ZM209.87,468.35l.65,1.93h2.11l-1.71,1.19.65,1.93-1.71-1.19-1.71,1.19.65-1.93-1.71-1.19h2.11l.65-1.93ZM209.87,435.29l.65,1.93h2.11l-1.71,1.19.65,1.93-1.71-1.19-1.71,1.19.65-1.93-1.71-1.19h2.11l.65-1.93ZM235.66,451.82l.65,1.93h2.11l-1.71,1.19.65,1.93-1.71-1.19-1.71,1.19.65-1.93-1.71-1.19h2.11l.65-1.93ZM235.66,418.75l.65,1.93h2.11l-1.71,1.19.65,1.93-1.71-1.19-1.71,1.19.65-1.93-1.71-1.19h2.11l.65-1.93ZM261.45,468.35l.65,1.93h2.11l-1.71,1.19.65,1.93-1.71-1.19-1.71,1.19.65-1.93-1.71-1.19h2.11l.65-1.93ZM261.45,435.29l.65,1.93h2.11l-1.71,1.19.65,1.93-1.71-1.19-1.71,1.19.65-1.93-1.71-1.19h2.11l.65-1.93ZM261.45,402.22l.65,1.93h2.11l-1.71,1.19.65,1.93-1.71-1.19-1.71,1.19.65-1.93-1.71-1.19h2.11l.65-1.93ZM287.24,451.82l.65,1.93h2.11l-1.71,1.19.65,1.93-1.71-1.19-1.71,1.19.65-1.93-1.71-1.19h2.11l.65-1.93ZM287.24,418.75l.65,1.93h2.11l-1.71,1.19.65,1.93-1.71-1.19-1.71,1.19.65-1.93-1.71-1.19h2.11l.65-1.93ZM287.24,385.69l.65,1.93h2.11l-1.71,1.19.65,1.93-1.71-1.19-1.71,1.19.65-1.93-1.71-1.19h2.11l.65-1.93ZM313.03,468.35l.65,1.93h2.11l-1.71,1.19.65,1.93-1.71-1.19-1.71,1.19.65-1.93-1.71-1.19h2.11l.65-1.93ZM313.03,435.29l.65,1.93h2.11l-1.71,1.19.65,1.93-1.71-1.19-1.71,1.19.65-1.93-1.71-1.19h2.11l.65-1.93ZM313.03,402.22l.65,1.93h2.11l-1.71,1.19.65,1.93-1.71-1.19-1.71,1.19.65-1.93-1.71-1.19h2.11l.65-1.93ZM338.82,451.82l.65,1.93h2.11l-1.71,1.19.65,1.93-1.71-1.19-1.71,1.19.65-1.93-1.71-1.19h2.11l.65-1.93ZM338.82,418.75l.65,1.93h2.11l-1.71,1.19.65,1.93-1.71-1.19-1.71,1.19.65-1.93-1.71-1.19h2.11l.65-1.93ZM364.61,468.35l.65,1.93h2.11l-1.71,1.19.65,1.93-1.71-1.19-1.71,1.19.65-1.93-1.71-1.19h2.11l.65-1.93ZM364.61,435.29l.65,1.93h2.11l-1.71,1.19.65,1.93-1.71-1.19-1.71,1.19.65-1.93-1.71-1.19h2.11l.65-1.93ZM390.4,451.82l.65,1.93h2.11l-1.71,1.19.65,1.93-1.71-1.19-1.71,1.19.65-1.93-1.71-1.19h2.11l.65-1.93ZM235.66,483.93l.65,1.93h2.11l-1.71,1.19.65,1.93-1.71-1.19-1.71,1.19.65-1.93-1.71-1.19h2.11l.65-1.93ZM261.45,500.46l.65,1.93h2.11l-1.71,1.19.65,1.93-1.71-1.19-1.71,1.19.65-1.93-1.71-1.19h2.11l.65-1.93ZM287.24,516.99l.65,1.93h2.11l-1.71,1.19.65,1.93-1.71-1.19-1.71,1.19.65-1.93-1.71-1.19h2.11l.65-1.93ZM287.24,483.93l.65,1.93h2.11l-1.71,1.19.65,1.93-1.71-1.19-1.71,1.19.65-1.93-1.71-1.19h2.11l.65-1.93ZM313.03,500.46l.65,1.93h2.11l-1.71,1.19.65,1.93-1.71-1.19-1.71,1.19.65-1.93-1.71-1.19h2.11l.65-1.93ZM338.82,516.99l.65,1.93h2.11l-1.71,1.19.65,1.93-1.71-1.19-1.71,1.19.65-1.93-1.71-1.19h2.11l.65-1.93ZM338.82,483.93l.65,1.93h2.11l-1.71,1.19.65,1.93-1.71-1.19-1.71,1.19.65-1.93-1.71-1.19h2.11l.65-1.93ZM364.61,500.46l.65,1.93h2.11l-1.71,1.19.65,1.93-1.71-1.19-1.71,1.19.65-1.93-1.71-1.19h2.11l.65-1.93ZM390.4,483.93l.65,1.93h2.11l-1.71,1.19.65,1.93-1.71-1.19-1.71,1.19.65-1.93-1.71-1.19h2.11l.65-1.93Z"/>
  <g>
    <path class="st1" d="M228.09,304.09l18.79,80.61-4.15,1.54-43.56-70.16,38.99,73-3.74,2.44-60.06-56.34,56.51,60.42-2.79,3.46-72.75-38.97,70.09,43.58-1.59,4.15-80.53-18.77,78.77,23.9-.24,4.47-.17,5.38.75,4.37,1.4,5.21,1.54,4.16,2.83,4.57,2.44,3.75,4.08,3.56,3.45,2.8,4.6,2.66,4.15,1.6,5.12,1.76,4.46.24,5.37.17,4.37-.75,5.21-1.4,4.15-1.54,4.57-2.83,3.74-2.44,3.56-4.09,2.79-3.46,2.66-4.61,1.59-4.15,80.53,18.77-78.77-23.9.24-4.47,82.65-2.7-82.48-2.68-.75-4.37,79.14-24.02-80.53,18.81-1.54-4.16,70.09-43.6-72.92,39.03-2.44-3.75,56.28-60.12-60.36,56.56-3.45-2.8,38.93-72.82-43.53,70.16-4.15-1.6,18.75-80.61-23.87,78.85-4.46-.24-2.7-82.73-2.67,82.56-4.37.75-24-79.22h0Z"/>
    <path class="st1" d="M174.21,504.95l56.51-60.44-2.83-3.41-72.75,39,70.2-43.74-2.02-3.99-80.15,18.77,79.11-24.09-.7-4.39-82.47-2.62,82.47-2.7.69-4.39-79.13-24.01,80.17,18.69,2.02-3.99,2.54-4.74,2.83-3.41,3.81-3.82,3.41-2.83,4.73-2.55,3.98-2.03,5.31-1.04,4.39-.7h5.31s4.39.69,4.39.69l5.31,1.04,3.99,2.02,4.74,2.54,3.41,2.83,3.81,3.81,2.83,3.41,2.54,4.74,2.02,3.99,1.04,5.32.7,4.39v5.32s-.69,4.39-.69,4.39l79.13,24.01-80.17-18.69-2.02,3.99,70.25,43.67-72.78-38.93-2.83,3.41,56.57,60.38-60.38-56.57-3.41,2.83,38.96,72.82-43.69-70.27-3.98,2.03,18.75,80.23-24.06-79.19-4.39.7-2.62,82.55-2.7-82.55-4.39-.69-23.99,79.21,18.67-80.25-3.99-2.02-43.63,70.32,38.89-72.86-3.41-2.83-60.32,56.62h0Z"/>
    <path class="st2" d="M307.1,406.73c7.1,26.54-8.63,53.81-35.14,60.92-26.51,7.11-53.76-8.64-60.86-35.17s8.63-53.81,35.14-60.92c26.51-7.11,53.76,8.64,60.86,35.17h0Z"/>
  </g>
</svg>