<?xml version="1.0" encoding="UTF-8"?>
<svg xmlns="http://www.w3.org/2000/svg" version="1.1" xmlns:cc="http://creativecommons.org/ns#" xmlns:dc="http://purl.org/dc/elements/1.1/" xmlns:inkscape="http://www.inkscape.org/namespaces/inkscape" xmlns:rdf="http://www.w3.org/1999/02/22-rdf-syntax-ns#" xmlns:sodipodi="http://sodipodi.sourceforge.net/DTD/sodipodi-0.dtd" xmlns:svg="http://www.w3.org/2000/svg" viewBox="0 0 600 600">
  <!-- Generator: Adobe Illustrator 29.8.1, SVG Export Plug-In . SVG Version: 2.1.1 Build 2)  -->
  <defs>
    <style>
      .st0 {
        fill: #ae1c28;
      }

      .st1 {
        fill: #fff;
      }

      .st2 {
        fill: #21468b;
      }

      .st3 {
        fill-rule: evenodd;
      }
    </style>
  </defs>
  <g id="svg2" inkscape:output_extension="org.inkscape.output.svg.inkscape" sodipodi:docname="Flag_of_the_Dutch_East_India_Company.svg">
    <sodipodi:namedview id="base" bordercolor="#666666" borderopacity="1.0" gridtolerance="10.0" guidetolerance="10.0" inkscape:current-layer="svg2" inkscape:cx="467.09983" inkscape:cy="385.20838" inkscape:pageopacity="0.0" inkscape:pageshadow="2" inkscape:window-height="1017" inkscape:window-maximized="1" inkscape:window-width="1920" inkscape:window-x="-4" inkscape:window-y="-4" inkscape:zoom="0.5" objecttolerance="10.0" pagecolor="#ffffff" showgrid="false"/>
    <g id="_x3C_defs">
      <inkscape:perspective id="perspective14" inkscape:persp3d-origin="450 : 200 : 1" inkscape:vp_x="0 : 300 : 1" inkscape:vp_y="0 : 1000 : 0" inkscape:vp_z="900 : 300 : 1" sodipodi:type="inkscape:persp3d"/>
    </g>
    <rect id="blue" class="st2" x="-150" width="900" height="600"/>
    <rect id="white" class="st1" x="-150" width="900" height="400"/>
    <rect id="red" class="st0" x="-150" width="900" height="200"/>
    <g id="g834">
      <path id="path817" class="st3" d="M307.5,358.25l-60.57-115.38c-4.04-8.08,12.11-7.5,13.85-9.23v-5.77l-48.46-.58-2.31,2.88s2.31,4.62,5.77,5.77c5.19,1.15,8.65,2.31,11.54,4.04l72.69,134.42h5.77l5.19-8.08,58.27-121.15,5.19-8.65,3.46-1.73,6.35-1.15,5.77-2.88v-3.46l-4.62-1.73h-35.77s-1.63,1.26-2.88,2.31c-3.46,2.88,1.73,4.62,1.73,4.62l11.54,2.31,2.31,2.31v3.46l-54.8,117.69Z" inkscape:connector-curvature="0"/>
      <path id="path819" d="M267.14,260.49c-7.39-.09-14.79,1.25-18.49,3.15-24.81,12.69-21.92,41.54-12.69,53.07,11.32,14.15,25.38,20.19,47.31,12.69,18.65-6.38,25.73-42.79,1.73-64.61-3.17-2.88-10.46-4.21-17.85-4.3ZM256.85,265.57c9.7-.3,20.54,7.26,27.57,17.11,8.65,12.11,12.69,35.19-2.31,43.27s-32.31-3.46-38.08-17.88-4.62-35.77,6.35-40.96c2.06-.97,4.23-1.46,6.47-1.53Z" inkscape:connector-curvature="0"/>
      <path id="path821" d="M366.92,295.94h4.04l8.65-24.81h-8.08l-.58,1.15s-5.79-3.82-8.65-5.77c-14.42-9.8-34.61-7.5-45.57,7.5-6.06,8.29-12.11,25.38-3.46,42.69,2.58,5.16,14.01,12.57,20.19,14.42,28.84,8.65,31.73-13.85,31.73-13.85l-3.46-2.31s-8.65,12.69-19.61,12.69c-13.27,0-23.16-12.69-22.5-21.92l.58-8.08,4.62-14.42c3.14-9.81,19.36-20.83,30-16.15,14.42,6.35,12.11,28.84,12.11,28.84Z" inkscape:connector-curvature="0"/>
    </g>
  </g>
</svg>