<?xml version="1.0" encoding="UTF-8"?>
<svg id="Calque_1" xmlns="http://www.w3.org/2000/svg" version="1.1" viewBox="0 0 800 800">
  <!-- Generator: Adobe Illustrator 29.8.1, SVG Export Plug-In . SVG Version: 2.1.1 Build 2)  -->
  <defs>
    <style>
      .st0 {
        stroke-width: 1.55px;
      }

      .st0, .st1, .st2, .st3, .st4, .st5, .st6, .st7, .st8, .st9, .st10, .st11, .st12, .st13, .st14, .st15, .st16, .st17, .st18, .st19, .st20, .st21, .st22, .st23, .st24, .st25, .st26, .st27, .st28, .st29, .st30, .st31, .st32, .st33, .st34, .st35, .st36, .st37, .st38, .st39, .st40, .st41, .st42, .st43, .st44, .st45, .st46, .st47, .st48, .st49, .st50, .st51, .st52, .st53, .st54, .st55, .st56, .st57, .st58, .st59, .st60, .st61, .st62, .st63, .st64 {
        stroke: #000;
      }

      .st0, .st3, .st4, .st7, .st11, .st16, .st19, .st21, .st24, .st27, .st36, .st42, .st43, .st58 {
        fill: none;
      }

      .st1 {
        stroke-width: .42px;
      }

      .st1, .st2, .st6, .st9, .st10, .st12, .st13, .st14, .st15, .st17, .st18, .st20, .st22, .st23, .st25, .st26, .st29, .st30, .st32, .st33, .st34, .st35, .st38, .st39, .st41, .st45, .st46, .st47, .st50, .st51, .st52, .st54, .st55, .st56, .st57, .st60, .st62, .st63, .st64 {
        fill-rule: evenodd;
      }

      .st1, .st6, .st8, .st9, .st14, .st21, .st22, .st28, .st31, .st33, .st34, .st35, .st37, .st38, .st40, .st41, .st48, .st51, .st53, .st56, .st59, .st61, .st63 {
        stroke-linecap: round;
      }

      .st1, .st6, .st8, .st14, .st21, .st27, .st28, .st31, .st32, .st33, .st34, .st35, .st37, .st38, .st40, .st41, .st46, .st48, .st51, .st52, .st53, .st56, .st59, .st61 {
        stroke-linejoin: round;
      }

      .st1, .st9, .st13, .st15, .st20, .st25, .st30, .st31, .st32, .st33, .st37, .st38, .st39, .st46, .st47, .st51, .st57, .st64 {
        fill: #ed1c24;
      }

      .st2, .st5 {
        fill: #e3e4e5;
      }

      .st2, .st9, .st10, .st20, .st42, .st54 {
        stroke-width: .8px;
      }

      .st3, .st25, .st29 {
        stroke-width: 1.7px;
      }

      .st4, .st13, .st62 {
        stroke-width: 1.99px;
      }

      .st5 {
        stroke-width: 1.12px;
      }

      .st6, .st8, .st10, .st17, .st18, .st22, .st23, .st28, .st40, .st41, .st44, .st45, .st49, .st53, .st56, .st61, .st62 {
        fill: #eac102;
      }

      .st6, .st14, .st15, .st17, .st18, .st22, .st36, .st49, .st50, .st51, .st53, .st55, .st63 {
        stroke-width: .42px;
      }

      .st7, .st45, .st64 {
        stroke-width: 2.07px;
      }

      .st65 {
        fill: #da121a;
      }

      .st8 {
        stroke-width: 1.07px;
      }

      .st11, .st33, .st46 {
        stroke-width: 1.42px;
      }

      .st12, .st39, .st43 {
        stroke-width: 1.96px;
      }

      .st14, .st34, .st55, .st63 {
        fill: #0071bc;
      }

      .st15, .st18, .st36, .st49, .st50, .st55 {
        stroke-miterlimit: 1.99;
      }

      .st16, .st57 {
        stroke-width: 1.99px;
      }

      .st17, .st22, .st63 {
        stroke-linejoin: bevel;
      }

      .st19, .st30 {
        stroke-width: 1.77px;
      }

      .st21, .st37, .st59 {
        stroke-width: 1.71px;
      }

      .st23, .st44 {
        stroke-width: .81px;
      }

      .st24, .st47 {
        stroke-width: 2.22px;
      }

      .st26 {
        stroke-miterlimit: 1.03;
        stroke-width: .42px;
      }

      .st26, .st35, .st52, .st60 {
        fill: #fff;
      }

      .st27 {
        stroke-width: 2.57px;
      }

      .st28 {
        stroke-width: .42px;
      }

      .st29, .st48 {
        fill: #630b57;
      }

      .st31, .st40, .st48 {
        stroke-width: 1.74px;
      }

      .st32, .st52 {
        stroke-width: .36px;
      }

      .st34 {
        stroke-width: .42px;
      }

      .st35 {
        stroke-width: .42px;
      }

      .st38 {
        stroke-width: .42px;
      }

      .st41 {
        stroke-width: .87px;
      }

      .st50 {
        fill: #008f4c;
      }

      .st56 {
        stroke-width: .78px;
      }

      .st66 {
        fill: #fcdd09;
      }

      .st58 {
        stroke-width: 1.85px;
      }

      .st59 {
        fill: #f8c300;
      }

      .st60 {
        stroke-miterlimit: 1.03;
        stroke-width: .42px;
      }

      .st61 {
        stroke-width: 1.2px;
      }
    </style>
  </defs>
  <path class="st65" d="M-133.96,0h1200v800H-133.96V0Z"/>
  <path class="st66" d="M-133.96,200h1200v400H-133.96V200Z"/>
  <g>
    <path class="st15" d="M238.74,242.47c-9.64.06-19.16,7.28-27.65,17.06-31.73-6.83-43.31,23.17-37.14,37.36l11.08,16.62,20.3,9.46h122.06l20.3-9.46,11.08-16.62c6.17-14.19-5.41-44.19-37.14-37.36-8.37-9.64-17.73-16.87-27.23-17.05s-19.13,6.68-28.04,13.23c-8.78-6.45-18.25-13.31-27.61-13.24Z"/>
    <path class="st49" d="M351.12,264.29c3.25,2.88,5.71,6.41,7.07,10.36,1,2.87,1.55,6.08,1.55,9.44,0,5.57-1.54,10.67-4.04,14.62l2.72,6.2c2.6-4.69,4.11-10.17,4.11-16,0-10.04-4.54-18.81-11.41-24.61"/>
    <g>
      <path class="st35" d="M326.36,253.59c0,2.72,2.21,4.93,4.93,4.93s4.93-2.21,4.93-4.93-2.21-4.93-4.93-4.93-4.93,2.21-4.93,4.93Z"/>
      <path class="st35" d="M337.55,255.74c0,2.72,2.21,4.93,4.93,4.93s4.93-2.21,4.93-4.93-2.21-4.93-4.93-4.93-4.93,2.21-4.93,4.93Z"/>
      <path class="st35" d="M347.66,261.34c0,2.72,2.21,4.93,4.93,4.93s4.93-2.21,4.93-4.93-2.21-4.93-4.93-4.93-4.93,2.21-4.93,4.93Z"/>
      <path class="st35" d="M278.29,238.86c0,2.72,2.21,4.93,4.93,4.93s4.93-2.21,4.93-4.93-2.21-4.93-4.93-4.93-4.93,2.21-4.93,4.93Z"/>
      <path class="st35" d="M287.55,236.52c0,2.72,2.21,4.93,4.93,4.93s4.93-2.21,4.93-4.93-2.21-4.93-4.93-4.93-4.93,2.21-4.93,4.93Z"/>
      <path class="st35" d="M297.41,237.59c0,2.72,2.21,4.93,4.93,4.93s4.93-2.21,4.93-4.93-2.21-4.93-4.93-4.93-4.93,2.21-4.93,4.93Z"/>
      <path class="st35" d="M306.63,241.23c0,2.72,2.21,4.93,4.93,4.93s4.93-2.21,4.93-4.93-2.21-4.93-4.93-4.93-4.93,2.21-4.93,4.93Z"/>
    </g>
    <g>
      <path class="st35" d="M194.87,255.74c0,2.72-2.21,4.93-4.93,4.93s-4.93-2.21-4.93-4.93,2.21-4.93,4.93-4.93,4.93,2.21,4.93,4.93Z"/>
      <path class="st35" d="M184.76,261.34c0,2.72-2.21,4.93-4.93,4.93s-4.93-2.21-4.93-4.93,2.21-4.93,4.93-4.93,4.93,2.21,4.93,4.93Z"/>
      <path class="st35" d="M254.14,238.86c0,2.72-2.21,4.93-4.93,4.93s-4.93-2.21-4.93-4.93,2.21-4.93,4.93-4.93,4.93,2.21,4.93,4.93Z"/>
      <path class="st35" d="M244.87,236.52c0,2.72-2.21,4.93-4.93,4.93s-4.93-2.21-4.93-4.93,2.21-4.93,4.93-4.93,4.93,2.21,4.93,4.93Z"/>
      <path class="st35" d="M235.01,237.59c0,2.72-2.21,4.93-4.93,4.93s-4.93-2.21-4.93-4.93,2.21-4.93,4.93-4.93,4.93,2.21,4.93,4.93Z"/>
      <path class="st35" d="M225.79,241.23c0,2.72-2.21,4.93-4.93,4.93s-4.93-2.21-4.93-4.93,2.21-4.93,4.93-4.93,4.93,2.21,4.93,4.93Z"/>
    </g>
    <path class="st49" d="M181.59,264.29c-3.25,2.88-5.71,6.41-7.07,10.36-1,2.87-1.55,6.08-1.55,9.44,0,5.57,1.54,10.67,4.04,14.62l-2.72,6.2c-2.6-4.69-4.11-10.17-4.11-16,0-10.04,4.54-18.81,11.41-24.61"/>
    <g>
      <path class="st34" d="M277.19,240.03c0,5.99-4.85,10.84-10.84,10.84s-10.84-4.85-10.84-10.84,4.85-10.84,10.84-10.84,10.84,4.85,10.84,10.84Z"/>
      <path class="st6" d="M264.97,215.44v4.2h-3.95v2.78h3.95v8.73h2.77v-8.73h3.95v-2.78h-3.95v-4.2h-2.77Z"/>
      <path class="st6" d="M264.34,228.51v7.96c-8.14.16-9.44,1.31-9.6,1.5,0,0-.02,0-.02,0v4.07s.02-.01.02-.02c.05.06.29.28,1.09.55-.03-.12-.07-.24-.09-.36-.04-.19-.07-.37-.1-.56,1.36-.46,4.44-1.16,10.72-1.16s9.37.69,10.72,1.15c-.03.19-.06.38-.1.57-.03.13-.06.25-.09.37.8-.27,1.04-.49,1.09-.55,0,0,.02.02.02.02v-4.07s-.02,0-.02,0c-.16-.19-1.42-1.34-9.6-1.5v-7.96h-4.03Z"/>
      <path class="st35" d="M356.16,270.16c0,2.72,2.21,4.93,4.93,4.93s4.93-2.21,4.93-4.93-2.21-4.93-4.93-4.93-4.93,2.21-4.93,4.93Z"/>
    </g>
    <g>
      <path class="st49" d="M355.7,298.71c2.51-3.95,4.04-9.04,4.04-14.62,0-3.36-.55-6.58-1.55-9.44-3.62-10.47-14.98-18.09-28.48-18.09-3.68,0-7.2.56-10.45,1.6.72,1.1,1.29,2.32,1.84,3.54,2.7-.74,5.59-1.14,8.61-1.14,12.36,0,22.7,6.76,25.69,15.88.8,2.33,1.24,4.92,1.24,7.65,0,5.55-1.85,10.52-4.74,13.92l4.47,10.27,2.4-2.68-3.07-6.88"/>
      <path class="st49" d="M318.75,285.58l-2.94,2.61-4.41-7.97c4.79-3.24,8.07-8.87,8.07-15.28,0-.73-.04-1.43-.12-2.13-.46-10.17-11.66-18.57-25.88-18.57-7.38,0-14.04,2.23-18.73,5.81-.13-1.58-.25-2.92-.45-4.36,5.17-3.33,11.87-5.34,19.18-5.34,16.35,0,29.14,10.28,29.76,22.45.06.71.1,1.42.1,2.14,0,6.49-2.68,12.34-6.92,16.4l2.34,4.25Z"/>
      <path class="st49" d="M318.56,285.67c5.58-4.61,9.04-10.87,9.04-17.76,0-7.94-4.7-15.03-11.83-19.73,4.4,3.91,7.07,8.97,7.46,14.62.06.71.1,1.42.1,2.14,0,6.49-2.68,12.34-6.92,16.4l2.15,4.34Z"/>
      <path class="st49" d="M177.01,298.71c-2.51-3.95-4.04-9.04-4.04-14.62,0-3.36.55-6.58,1.55-9.44,3.62-10.47,14.98-18.09,28.48-18.09,3.68,0,7.2.56,10.45,1.6-.72,1.1-1.29,2.32-1.84,3.54-2.7-.74-5.59-1.14-8.61-1.14-12.36,0-22.7,6.76-25.69,15.88-.8,2.33-1.24,4.92-1.24,7.65,0,5.55,1.85,10.52,4.74,13.92l-4.47,10.27-2.4-2.68,3.07-6.88"/>
      <path class="st49" d="M213.96,285.58l2.94,2.61,4.41-7.97c-4.79-3.24-8.07-8.87-8.07-15.28,0-.73.04-1.43.12-2.13.46-10.17,11.66-18.57,25.88-18.57,7.38,0,14.04,2.23,18.73,5.81.13-1.58.25-2.92.45-4.36-5.17-3.33-11.87-5.34-19.18-5.34-16.35,0-29.14,10.28-29.76,22.45-.06.71-.1,1.42-.1,2.14,0,6.49,2.68,12.34,6.92,16.4l-2.34,4.25Z"/>
      <path class="st49" d="M214.15,285.67c-5.58-4.61-9.04-10.87-9.04-17.76,0-7.94,4.7-15.03,11.83-19.73-4.4,3.91-7.07,8.97-7.46,14.62-.06.71-.1,1.42-.1,2.14,0,6.49,2.68,12.34,6.92,16.4l-2.15,4.34Z"/>
      <path class="st49" d="M266.4,240.02c3.68,0,6.84,2.23,7.59,5.23.49,2.65.8,5.66.87,8.88,0,.33-.03.66-.03.99.01.38.09.79.09,1.18.13,6.74,1.17,12.69,2.67,16.33l-11.2,9.85-11.32-9.85c1.5-3.64,2.54-9.59,2.68-16.33,0-.39.09-.8.09-1.18,0-.33-.03-.65-.02-.99.05-3.21.37-6.23.86-8.88.74-3,4.04-5.23,7.71-5.23"/>
      <path class="st49" d="M266.4,243.23c1.91,0,3.52,1.12,3.91,2.67.46,2.51.76,5.37.82,8.39,0,.31-.02.63-.02.93,0,.37.07.75.08,1.13.12,6.37,1.11,11.98,2.53,15.43l-7.39,6.43-7.39-6.43c1.41-3.44,2.4-9.06,2.53-15.43,0-.38.08-.76.09-1.13,0-.31-.02-.62-.02-.93.06-3.02.36-5.88.83-8.39.38-1.55,2.13-2.67,4.03-2.67"/>
    </g>
    <g>
      <g>
        <path class="st6" d="M266.32,283.5c-.06,0-.12,0-.17.01-1.08.05-1.99.86-2.11,1.95-.2,1.58-.15,3.1.09,4.5-.93,4.12-4.31,6.65-8.29,7.33-5.14.87-11.09-1.42-13.89-9.35-.37-1.02-1.43-1.63-2.49-1.43-1.07.2-1.83,1.15-1.8,2.24.05,1.63-.43,4.12-1.38,6.43-.95,2.31-2.38,4.42-3.95,5.6-1.57,1.19-3.04,1.61-5.21.81s-5.1-3.14-8.43-8.07c-.62-.94-1.84-1.27-2.85-.76-1,.51-1.46,1.7-1.06,2.76,2.27,6.28.99,11.25-.94,12.68-.97.71-2.17.97-4.2.19-2.03-.79-4.73-2.78-7.76-6.45-.66-.79-1.77-1.01-2.69-.56-.92.46-1.4,1.48-1.17,2.48,1.48,6.18,1.37,9.84.85,11.33-.26.74-.5.93-.73,1.05s-.63.2-1.3.09c-1.34-.21-3.44-1.27-5.23-2.54-1.8-1.28-3.39-2.8-3.91-3.46-.48-.66-1.28-1.01-2.08-.9s-1.49.64-1.78,1.4c-.29.76-.13,1.63.4,2.24,1.01,1.27,2.69,2.82,4.8,4.32,2.1,1.5,4.52,2.89,7.12,3.3,1.3.2,2.71.13,4.01-.54s2.32-1.94,2.86-3.47c.63-1.79.76-4.05.49-6.85,1.54,1.22,3.05,2.1,4.53,2.68,3.07,1.19,6.18.89,8.41-.76,2.68-1.98,3.97-5.3,4.01-9.24,1.71,1.54,3.41,2.61,5.11,3.23,3.49,1.28,6.92.45,9.39-1.43,2.48-1.88,4.21-4.63,5.38-7.46.23-.56.33-1.12.52-1.68,4.1,5.35,10.24,7.41,15.69,6.48,3.91-.67,7.5-2.88,9.77-6.19,2.26,3.31,5.86,5.52,9.78,6.19,5.45.93,11.58-1.13,15.69-6.48.19.57.28,1.12.52,1.68,1.17,2.83,2.9,5.58,5.38,7.46,2.48,1.88,5.91,2.72,9.39,1.43,1.71-.63,3.4-1.69,5.11-3.23.05,3.94,1.34,7.26,4.01,9.24,2.23,1.65,5.35,1.95,8.41.76,1.48-.57,2.98-1.46,4.52-2.68-.26,2.8-.13,5.06.5,6.85.54,1.53,1.56,2.8,2.86,3.47,1.3.68,2.72.75,4.01.54,2.59-.41,5-1.8,7.1-3.3,2.1-1.5,3.8-3.05,4.81-4.32.53-.61.69-1.48.4-2.24-.29-.76-.97-1.3-1.78-1.4-.8-.11-1.6.24-2.08.9-.52.65-2.11,2.18-3.91,3.46-1.8,1.28-3.9,2.34-5.23,2.54-.67.1-1.07.03-1.3-.09-.23-.12-.47-.3-.73-1.05-.53-1.48-.63-5.15.85-11.33.23-1-.25-2.02-1.17-2.48-.92-.46-2.03-.23-2.69.56-3.03,3.67-5.75,5.66-7.78,6.45-2.03.79-3.22.53-4.19-.19-1.93-1.43-3.21-6.4-.94-12.68.4-1.05-.06-2.24-1.06-2.76s-2.23-.19-2.85.76c-3.33,4.93-6.26,7.27-8.43,8.07-2.17.8-3.64.38-5.21-.81-1.57-1.19-3-3.3-3.95-5.6-.95-2.31-1.43-4.8-1.38-6.43.03-1.08-.74-2.04-1.8-2.24-1.07-.2-2.12.41-2.49,1.43-2.79,7.93-8.75,10.23-13.89,9.35-3.99-.68-7.37-3.21-8.29-7.33.24-1.41.29-2.92.09-4.51-.12-1.09-1.04-1.91-2.12-1.95-.08-.01-.15-.01-.23-.01h0Z"/>
        <path class="st18" d="M326.14,273.37c.21,1.75,1.23,2.91.34,5.49,1.64.36,2.98,1.61,3.56,2.76-2.27,4.28-6.04,4.32-8.65,8.72,2.79.94,5.48-2.45,8.26-2,.79,2.07-.26,5,1.12,7.33-3.66,1.92-3.61,4.26-6.5,6.44-2.44-.33-3.64-2.87-5.5-3.15.1,2.76-1.09,7.67-2.23,9.45-2.57-1.59-3.98-6.1-4.14-7.95-1.71,1.22-6.6,2.64-9.79,2.29.73-1.92,5.09-4.39,7.53-6.29-1.56-.87-6.19.79-8.2-.39-.17-3.21-.14-6.08-1.08-9.55,2.99-.86,6.12-4.25,8.47-5.26,2.35,1.28,3.63,6.27,6.42,7.2,1.94-4.63-1.08-8.06.99-12.4,1.4-.48,2.8.29,4.28.97,1.59-2.35,3.31-2.58,4.98-3.7l.14-.1v.15Z"/>
        <path class="st18" d="M346.43,298.64c.27.03.55.11.82.24,1.3,3.48.62,5.34,2.38,8.85,3.15-3.07,2.02-7.13,5.17-9.77,1.23.77,2.43,1.63,3.29,3.69,2.05-1.01,3.44.31,5.1.65l.14.02-.04.16c-.03.11-.03.23-.05.34-.35.5-.71,1.01-1.08,1.48-1.06,1.34-2.16,2.52-3.32,3.59s-2.35,2.02-3.56,2.9c-1.22.88-2.46,1.67-3.71,2.43-2.5,1.53-5.04,2.91-7.48,4.45-.38.24-.74.53-1.12.78.02-.06.04-.15.05-.2-1.73-.28-4.87-.22-7.14-3.49,1.25-1.34,3.94-3.17,6.48-2.94-.86-2.32-4.28-.86-5.37-3.91,1.05-3.51,3.03-3.06,2.28-7.24,3.32.54,5.26-2.27,7.17-2.05h0Z"/>
      </g>
      <g>
        <path class="st60" d="M346.3,309.69c-1.91,1.36-2.36,4.01-1,5.93s4.01,2.36,5.93,1,2.36-4.01,1-5.93-4.01-2.36-5.93-1Z"/>
        <path class="st60" d="M314,290.38c-1.91,1.36-2.36,4.01-1,5.93s4.01,2.36,5.93,1,2.36-4.01,1-5.93-4.01-2.36-5.93-1Z"/>
        <path class="st26" d="M289.08,286.96c0,2.35,1.9,4.25,4.25,4.25s4.25-1.9,4.25-4.25-1.9-4.25-4.25-4.25-4.25,1.9-4.25,4.25Z"/>
        <path class="st26" d="M329.14,302.11c0,2.35,1.9,4.25,4.25,4.25s4.25-1.9,4.25-4.25-1.9-4.25-4.25-4.25-4.25,1.9-4.25,4.25Z"/>
      </g>
      <path class="st18" d="M186.28,298.64c-.27.03-.55.11-.82.24-1.3,3.48-.62,5.34-2.38,8.85-3.15-3.07-2.02-7.13-5.17-9.77-1.23.77-2.43,1.63-3.29,3.69-2.05-1.01-3.44.31-5.1.65l-.14.02.04.16c.03.11.03.23.05.34.35.5.71,1.01,1.08,1.48,1.06,1.34,2.16,2.52,3.32,3.59s2.35,2.02,3.56,2.9,2.46,1.67,3.71,2.43c2.5,1.53,5.04,2.91,7.48,4.45.38.24.74.53,1.12.78-.02-.06-.04-.15-.05-.2,1.73-.28,4.87-.22,7.14-3.49-1.25-1.34-3.94-3.17-6.48-2.94.86-2.32,4.28-.86,5.37-3.91-1.05-3.51-3.03-3.06-2.28-7.24-3.32.54-5.26-2.27-7.17-2.05h0Z"/>
      <g>
        <path class="st60" d="M186.41,309.69c1.91,1.36,2.36,4.01,1,5.93s-4.01,2.36-5.93,1-2.36-4.01-1-5.93,4.01-2.36,5.93-1Z"/>
        <path class="st26" d="M243.63,286.96c0,2.35-1.9,4.25-4.25,4.25s-4.25-1.9-4.25-4.25,1.9-4.25,4.25-4.25,4.25,1.9,4.25,4.25Z"/>
        <path class="st26" d="M203.56,302.11c0,2.35-1.9,4.25-4.25,4.25s-4.25-1.9-4.25-4.25,1.9-4.25,4.25-4.25,4.25,1.9,4.25,4.25Z"/>
      </g>
      <g>
        <g>
          <path class="st18" d="M266.42,301.96c-40.69,0-68.29,22.08-68.29,22.08l15.88,19.88s20.78-16.52,52.41-16.52,52.4,16.5,52.4,16.5l15.91-19.85s-27.5-22.09-68.31-22.09h0Z"/>
          <path class="st18" d="M265.93,299.95c-23.92.22-47.73,7.88-69.35,22.28-.67.4-1.07,1.14-1.03,1.92.04.78.5,1.48,1.21,1.81.71.33,1.54.25,2.17-.22,42.02-27.98,91.81-29.72,134.59-.02.96.67,2.29.43,2.96-.53s.43-2.29-.53-2.96c-22.06-15.32-46.1-22.52-70.02-22.3Z"/>
          <path class="st18" d="M266,324.92c-18.59.17-37.11,6.05-53.89,17.09-.65.41-1.03,1.14-.99,1.91s.49,1.45,1.18,1.79,1.51.28,2.14-.16c32.35-21.27,70.63-22.6,103.55-.02.97.66,2.29.41,2.95-.55.66-.97.41-2.29-.55-2.95-17.13-11.75-35.8-17.28-54.39-17.11Z"/>
        </g>
        <path class="st51" d="M261.88,308.41h7.32c3.09,0,5.59,2.12,5.59,4.73v1.93c0,2.61-2.5,4.73-5.59,4.73h-7.32c-3.09,0-5.59-2.12-5.59-4.73v-1.93c0-2.61,2.5-4.73,5.59-4.73Z"/>
      </g>
      <path class="st26" d="M250.82,316.19c0,2.35-1.9,4.25-4.25,4.25s-4.25-1.9-4.25-4.25,1.9-4.25,4.25-4.25,4.25,1.9,4.25,4.25Z"/>
      <path class="st26" d="M218.79,328.44c0,2.35-1.9,4.25-4.25,4.25s-4.25-1.9-4.25-4.25,1.9-4.25,4.25-4.25,4.25,1.9,4.25,4.25Z"/>
      <path class="st38" d="M202.33,329.55h0c1.61-1.22,3.85-.97,4.99.54l2.72,3.6c1.14,1.52.76,3.73-.85,4.95h0c-1.61,1.22-3.85.97-4.99-.54l-2.72-3.6c-1.14-1.52-.76-3.73.85-4.95Z"/>
      <path class="st50" d="M221.25,324.84l6.55-7.96,10,2.48-6.55,7.96-10-2.48Z"/>
      <path class="st26" d="M281.89,316.19c0,2.35,1.9,4.25,4.25,4.25s4.25-1.9,4.25-4.25-1.9-4.25-4.25-4.25-4.25,1.9-4.25,4.25Z"/>
      <path class="st26" d="M313.92,328.44c0,2.35,1.9,4.25,4.25,4.25s4.25-1.9,4.25-4.25-1.9-4.25-4.25-4.25-4.25,1.9-4.25,4.25Z"/>
      <path class="st1" d="M330.38,329.55h0c-1.61-1.22-3.85-.97-4.99.54l-2.71,3.6c-1.14,1.52-.76,3.73.85,4.95h0c1.61,1.22,3.85.97,4.99-.54l2.71-3.6c1.14-1.52.76-3.73-.85-4.95Z"/>
      <path class="st50" d="M311.46,324.84l-6.55-7.96-10,2.48,6.55,7.96,10-2.48Z"/>
      <g>
        <path class="st35" d="M271.24,242.95c0,2.72-2.21,4.93-4.93,4.93s-4.93-2.21-4.93-4.93,2.21-4.93,4.93-4.93,4.93,2.21,4.93,4.93Z"/>
        <path class="st35" d="M271.24,249.16c0,2.72-2.21,4.93-4.93,4.93s-4.93-2.21-4.93-4.93,2.21-4.93,4.93-4.93,4.93,2.21,4.93,4.93Z"/>
        <path class="st35" d="M271.24,255.59c0,2.72-2.21,4.93-4.93,4.93s-4.93-2.21-4.93-4.93,2.21-4.93,4.93-4.93,4.93,2.21,4.93,4.93Z"/>
        <path class="st35" d="M271.24,262.88c0,2.72-2.21,4.93-4.93,4.93s-4.93-2.21-4.93-4.93,2.21-4.93,4.93-4.93,4.93,2.21,4.93,4.93Z"/>
      </g>
      <path class="st18" d="M266.25,263.42c-1.33,1.52-3.28,2.25-3.77,4.84-2.21-.17-3.67.62-5.08,1.47.14,4.54,4.2,6.16,4.68,10.91-3.96,0-6.21-4.07-9.86-4.51-2.23,1.63-1.48,5.38-4.58,7.06,3.26,2.84,2.51,5.68,4.69,8.52,3.16.45,5.13-2.65,7.56-2.34-1.81,2.45-1.18,6.13-.89,8.08,4.09-.65,6.03-3.86,7.36-5.48,1.32,1.62,3.28,4.82,7.37,5.48.29-1.95.9-5.63-.9-8.08,2.43-.31,4.41,2.79,7.57,2.34,2.17-2.84,1.42-5.68,4.68-8.52-3.1-1.68-2.35-5.43-4.58-7.06-3.64.44-5.9,4.51-9.86,4.51.48-4.76,4.54-6.37,4.68-10.91-1.41-.86-2.86-1.64-5.07-1.47-.49-2.59-2.44-3.33-3.78-4.84l-.11-.13-.11.13Z"/>
      <path class="st26" d="M270.6,283.93c0,2.35-1.9,4.25-4.25,4.25s-4.25-1.9-4.25-4.25,1.9-4.25,4.25-4.25,4.25,1.9,4.25,4.25Z"/>
      <path class="st18" d="M206.57,273.37c-.21,1.75-1.23,2.91-.34,5.49-1.64.36-2.98,1.61-3.56,2.76,2.27,4.28,6.04,4.32,8.65,8.72-2.79.94-5.48-2.45-8.26-2-.79,2.07.26,5-1.12,7.33,3.66,1.92,3.61,4.26,6.5,6.44,2.44-.33,3.64-2.87,5.5-3.15-.1,2.76,1.09,7.67,2.23,9.45,2.57-1.59,3.98-6.1,4.14-7.95,1.71,1.22,6.6,2.64,9.79,2.29-.73-1.92-5.09-4.39-7.53-6.29,1.56-.87,6.19.79,8.2-.39.17-3.21.14-6.08,1.08-9.55-2.99-.86-6.12-4.25-8.47-5.26-2.35,1.28-3.63,6.27-6.42,7.2-1.94-4.63,1.08-8.06-.99-12.4-1.4-.48-2.8.29-4.28.97-1.59-2.35-3.31-2.58-4.98-3.7l-.14-.1v.15Z"/>
      <g>
        <path class="st60" d="M218.71,290.38c1.91,1.36,2.36,4.01,1,5.93s-4.01,2.36-5.93,1-2.36-4.01-1-5.93,4.01-2.36,5.93-1Z"/>
        <g>
          <path class="st35" d="M176.55,270.16c0,2.72-2.21,4.93-4.93,4.93s-4.93-2.21-4.93-4.93,2.21-4.93,4.93-4.93,4.93,2.21,4.93,4.93Z"/>
          <path class="st35" d="M218.05,245.09c0,2.72-2.21,4.93-4.93,4.93s-4.93-2.21-4.93-4.93,2.21-4.93,4.93-4.93,4.93,2.21,4.93,4.93Z"/>
          <path class="st35" d="M211.4,252.59c0,2.72-2.21,4.93-4.93,4.93s-4.93-2.21-4.93-4.93,2.21-4.93,4.93-4.93,4.93,2.21,4.93,4.93Z"/>
          <path class="st35" d="M207.76,262.24c0,2.72-2.21,4.93-4.93,4.93s-4.93-2.21-4.93-4.93,2.21-4.93,4.93-4.93,4.93,2.21,4.93,4.93Z"/>
          <path class="st35" d="M208.62,272.74c0,2.72-2.21,4.93-4.93,4.93s-4.93-2.21-4.93-4.93,2.21-4.93,4.93-4.93,4.93,2.21,4.93,4.93Z"/>
          <path class="st35" d="M171.82,281.56c0,2.72-2.21,4.93-4.93,4.93s-4.93-2.21-4.93-4.93,2.21-4.93,4.93-4.93,4.93,2.21,4.93,4.93Z"/>
          <path class="st35" d="M172.46,293.83c0,2.72-2.21,4.93-4.93,4.93s-4.93-2.21-4.93-4.93,2.21-4.93,4.93-4.93,4.93,2.21,4.93,4.93Z"/>
          <path class="st35" d="M314.66,245.09c0,2.72,2.21,4.93,4.93,4.93s4.93-2.21,4.93-4.93-2.21-4.93-4.93-4.93-4.93,2.21-4.93,4.93Z"/>
          <path class="st35" d="M321.31,252.59c0,2.72,2.21,4.93,4.93,4.93s4.93-2.21,4.93-4.93-2.21-4.93-4.93-4.93-4.93,2.21-4.93,4.93Z"/>
          <path class="st35" d="M324.95,262.24c0,2.72,2.21,4.93,4.93,4.93s4.93-2.21,4.93-4.93-2.21-4.93-4.93-4.93-4.93,2.21-4.93,4.93Z"/>
          <path class="st35" d="M324.09,272.74c0,2.72,2.21,4.93,4.93,4.93s4.93-2.21,4.93-4.93-2.21-4.93-4.93-4.93-4.93,2.21-4.93,4.93Z"/>
          <path class="st35" d="M360.89,281.56c0,2.72,2.21,4.93,4.93,4.93s4.93-2.21,4.93-4.93-2.21-4.93-4.93-4.93-4.93,2.21-4.93,4.93Z"/>
          <path class="st35" d="M360.24,293.83c0,2.72,2.21,4.93,4.93,4.93s4.93-2.21,4.93-4.93-2.21-4.93-4.93-4.93-4.93,2.21-4.93,4.93Z"/>
        </g>
      </g>
    </g>
    <g>
      <g>
        <path class="st52" d="M266.35,584.13c58.51,0,106-56.99,106-127.2s-47.49-127.2-106-127.2v254.4Z"/>
        <path class="st32" d="M160.35,456.93c0,70.21,47.49,127.2,106,127.2v-254.4c-58.51,0-106,56.99-106,127.2h0Z"/>
        <path class="st27" d="M372.35,456.92c0,70.25-47.46,127.2-106,127.2s-106-56.95-106-127.2,47.46-127.2,106-127.2,106,56.95,106,127.2Z"/>
      </g>
      <g>
        <g>
          <g>
            <path class="st37" d="M314.32,473.19c-7.85-2.16-13.9,2.11-15.74,12.22-1.39,7.64,1.29,10.23.45,14.84-.55,3.02-4.95,5.49-10.5,11.19-1.27-.35-3.8,1.17-4.54.97-.55-.15-.7-1.24-1.61-1.49-.75-.21-1.94.36-2.39.71-.36-.54-.71-.77-1.25-.92-.7-.19-2.85,2.41-3.13,3.96-.4,2.19.49,3.08,1.32,2.58-.21,1.81,1.5,3.15,2.53,2.28l5.06,3.74c.33.63.99,1.44,1.74,1.65.98.27,2.64-.35,3.14-.69.21.97.99,1.67,1.59,2.47.26-2.45,1.38-3.98,1.76-6.48.56-3.65,3.48-6.66,5.49-6.11-.02,1.4.48,2.24,1.27,2.76.32-.89.67-1.76,1.1-2.62.06,2.06.88,3.5,2.04,4.15-.25-1.75.26-3.2-.02-4.99,1.1,2.94,2.16,5.73,4.81,6.46-1.66-3.51-1.24-6.4-2.08-9.77,2.43-1.27,5.01-3.21,5.46-5.63-.34-1.7-1.97-3.88-1.65-5.66.29-1.57,1.72-2.97,2.77-3.58,1.95-1.12,4.63-.82,6.32-.36,0,0,5.38-.08,6.55-2.81,1.87-4.39-1.57-16.43-1.57-16.43l-8.9-2.45Z"/>
            <path class="st21" d="M308.9,476.75c-5.07.55-7.68,4.94-8.11,12.3"/>
            <path class="st37" d="M284.63,515.39c-2.9-1.56-4.95,1.57-5.35,3.8-.35,1.95.75,4.33,2.21,4.73,1.9.52,3.36-.39,4.24-2.13"/>
            <g>
              <path class="st21" d="M276.93,517.28c.24-1.9,1.57-4.68,3.08-5.65"/>
              <path class="st21" d="M288.5,511.44c.85.23,1.38,1.08,1.89,1.73"/>
              <path class="st21" d="M289.39,524.28c-.1-.36.15-1.03.28-1.29"/>
            </g>
            <g>
              <path class="st59" d="M283.24,521.06c-.57,2.01-1.56,3.69-2.89,4.46-.74-1.59-.6-4.39.11-5.9,1.19-1.12,2.51-.49,2.78,1.44Z"/>
              <path class="st59" d="M279.13,518.03c-.48,1.54-1.53,2.19-2.23,3.03-.47-1.39-.18-3.19.41-4.1.81-.71,1.68-.24,1.82,1.07h0Z"/>
              <path class="st59" d="M276.88,516.17c-.75,1.13-1.77,1.22-2.21,2.15-.23-1.28.34-3.18,1.23-3.58.63-.09,1.03.58.98,1.44h0Z"/>
            </g>
          </g>
          <g>
            <path class="st58" d="M307.44,498.39c-.39.74-.5,2.95-.39,4.07.12,1.26.72.77.44,2.03-.24,1.12-1.31,2.18-1.71,2.49-.83.63-1.57,1.52-2.25,2.03-.74.57-1.63,1.08-2.35,1.36-.7.27-.73.74-1.06,1.13"/>
            <path class="st58" d="M315.99,490.7c-.23.09-1.84.35-2.75.9-.79.48-1.79,1.47-2.66,1.81-.6.23-.12.25-.32.68"/>
          </g>
        </g>
        <path class="st10" d="M325.33,466.78c-.03.21-.83-.2-2.12-.54-1.51-.4-2.27-.45-4.03-.31-1.78.14-2.76,1.28-3.06,1.78-.66,1.08,2.16.23,3.14.76,1.38.74,3.58-.06,5.02.73,1.35.73-2.28,4.92,1.45,4.63,2.43-.19,2.17-2.27,1.73-3.73-.21-.71-2.06-2.56-2.12-3.32h0Z"/>
        <path class="st20" d="M317.33,472.68c-.3.12-3.96,1.59-6.05,2.31-2.58.89-1.74,3.37-1.02,5.21.79,2.02,4.66-4.15,4.71-4.44.33-1.69-.27,3.64.33,5.17.77,1.97,3.77-1,4.37-1.4,1.97-1.32-2.19-6.7-2.34-6.85h0Z"/>
        <g>
          <g>
            <path class="st31" d="M295.82,429.32s-4.36,16.46-3.13,24.69c1.11,4.85,10.88,18.5,21.66,18.31,2.59,2.19,3.34,6.64,3.65,10.62.56,7.02.94,15.68,3.2,19.88,3.34,6.2,10.03,6.48,11.75,10.6,1.96,4.7,1.84,9.35.61,14.15-.75.05-1.93,1.69-2.92,1.76-.68.04-1.1-1.02-2.12-.96-.93.06-1.6,1.75-1.6,1.75-.39-.89-1.02-1.58-1.8-1.53-1.26.08-2.17,3.1-2.18,5.08.06,4.1,2.45,3.15,2.55,1.33.38,3.67,3.48,3.5,4.17,1.23.47,4.19,3.9,3.43,5.44,1.26.8.17,1.47.34,2.14.22,1.69-.32,2.91-1.21,3.52-2.23-.34-1.27-.46-2.45-.45-3.59.59,1.03,2,1.11,2.57.35.67-.89-.06-5.54-1.07-8.66.86.19,1.7.41,2.39,1.14.24-1.75-.92-2.38-2.06-2.86,1.07.18,2.19.59,3.22,2.15.47-2.82-1.22-4.41-2.26-5.59,1.28.93,2.15,3.4,4.11,3.28,1.3-.08,2.57-1.41,3.1-2.52-1.34.09-2.02.34-2.89.1-1.12-3.22-2.22-5.55-3.88-5.21.04-1.7.64-4.07-.08-5.11-1.72-2.45-6.01-6.09-6.35-7.72.59-7.02-.54-8.48-.68-13.13-.04-1.31.04-4.37.04-4.37.03-3.36-2.4-6.52-2.61-9.73-.82-12.79-23.45-31.06-16.69-43.93l-21.37-.75Z"/>
            <path class="st31" d="M316.46,450.64c.69,6,3.69,5.83,6.8,10.85"/>
            <path class="st31" d="M299.01,456.34c.95,5.41,4.48,9.34,8.53,11.9-4.37-3.69-7.41-7.82-7.98-12.12"/>
            <path class="st31" d="M321.95,486.14c.87,5.38-.93,12.24,2.39,16.15l.07.13c-2.93-4.52-.85-10.58-2.46-16.28Z"/>
            <path class="st31" d="M338.8,523.26c.65-3.49.66-6.05.25-8.21-.75-3.95-2.91-6.6-5.21-11.23,2.19,5.73,7.47,5.5,6.46,9.79"/>
          </g>
          <path class="st40" d="M333.57,527.55c.92-.06,1.58.19,2.39.14"/>
          <path class="st31" d="M329.66,536.36c-.05-3.19.65-5.14,1.87-5.22.73-.05,1.58.56,2.49.81"/>
          <path class="st48" d="M325.49,535.02c-.03-1.85.96-3.94,1.46-4.96"/>
          <path class="st40" d="M340.31,532c-.05-.74-.43-1.47-.5-2.21"/>
          <path class="st40" d="M335.09,537.52c.54-.74.94-1.94,1.12-2.81"/>
          <path class="st40" d="M333.21,536.41c.17,1.63-.08,3.26-.85,4.46-.92-.92-1.76-2.62-1.68-3.99.56-1.36,1.75-1.62,2.52-.47Z"/>
          <path class="st40" d="M342.76,531.37c.12,1.35-.1,2.68-.75,3.65-.74-.78-1.4-2.19-1.32-3.32.48-1.1,1.45-1.3,2.07-.33Z"/>
          <path class="st40" d="M328.78,535.81c-.2,1.54-.77,2.93-1.72,3.74-.62-1.17-1-3.02-.63-4.24.79-1.03,1.91-.83,2.35.5Z"/>
          <path class="st40" d="M325.33,534.72c-.31,1.4-.95,2.61-1.89,3.22-.47-1.17-.67-2.94-.23-4.02.81-.84,1.82-.5,2.12.8h0Z"/>
        </g>
        <path class="st42" d="M330.43,476.68c.4.47.95,1.91,1.64,2.72.56.66,1.95.29,2.7.24.21-.01.42-.03.63-.04"/>
        <g>
          <path class="st20" d="M307.85,403.99c-3.03-2.47-4.75-4.09-6.56-3.08-9.52,3.27-8.71-8.07-3.66-9.64-1.94,5.51-1.7,8.22,2.93,7.74,1.92.08,3.79-1.64,6.89,4.05.07.35.52.39.4.93h0Z"/>
          <g>
            <path class="st2" d="M304.02,395.97s-.88,2.45-1.13,3.37c-.79-.11-.35-3.34-.35-3.34,0,0-.37,2.1-.99,3.05-.83-.12-.32-3.49-.32-3.49l2.78.41Z"/>
            <path class="st2" d="M301.59,401.52c0-.08.57-1.64,1.37-.09,0,0,0-1.08.4-1.05.41.29.69,1.28.69,1.28l-2.47-.14Z"/>
          </g>
        </g>
        <g>
          <g>
            <path class="st62" d="M284.4,407.45c.27.35.72.61.79,1.85.06,1.16-.23,2.61-1.27,2.6-.25,0-.42-.13-.57-.34-.13-.19-.13-.45-.17-.74-.03-.3.05-.56.14-.82.1-.27.18-.45.33-.68.26-.36.43-.89.6-1.37.18-.54.08-.24.15-.5h0Z"/>
            <path class="st62" d="M279.94,403.31c-.01.31.07.24-.09,1.34-.09.6-.28,1.14-.31,1.85-.03.99.65,2.11,1.38,1.32,1.9-2.02-.65-4.29-.99-4.51Z"/>
            <path class="st13" d="M280.77,412.68c-.04-.14.23-.96.31-1.44.07-.4.26-.84.36-1.13.14-.39.37-.52.59-.69.16-.12.54.08.78.02.21-.05.55.59.66.68.2.15.42.38.69.55.26.17.59.36.8.52.25.2.46.5.59.8.15.34.11.7.12,1.11,0,.39-.09.81-.16,1.21-.09.5-.27.66-.49,1.01-.24.38-.49.44-.8.68l-.18.14c-.2.16-.29.26-.43.33"/>
            <path class="st13" d="M294.65,420.65l-1.94-.84-1.14-.38-.06-.29c-.75-.8-4.49-2.6-5.69-3.32-1.4-.84-3.79-1.97-4.3-4.55-.24-1.22.81-2.33-.04-4.29l-.68.38-.57-.83-.66-.9.24-.48c-1.06-1.17-2.9-.58-3.12,1.01-.32-.37-.71-.53-1.14-.61l-.08-.07-.04.05c-.08-.01-.16-.02-.25-.03-.31-.03-.58.18-.75.33-.11.1-.21.24.07.54.05.05.08.09.11.12l-.66.78-1.43,1.32-.19-.24c-.67.46-.7,1.02-.72,1.82,0,.42.15,1.08.22,1.31.12.4.14.64.11.96l.38-.05-.82,1.36-.06,1.67.24,1.66-.42.05s.1.72.16.86c.07.19.28.59.47.85.41.56.8.98,1.32,1.08,1.32.24,2.59,2.09,3.78.96.41.75-.07-.4.59-.08-.03.06-.07.12-.09.18,1.8,2.07,1.31,4.79,3.88,4.46.37-.38.42-.01.66.28.75.96,1.06,1.19,1.1,1.64.08.83-1.05,1.52-1.59,1.21,0,.07.62.57.77.67.74.44,1.5,0,1.62.28.07.13.08.12.05.31,0,.14-.14.29-.29.4s-.34.27-.55.52c-.67.83-1.43,3.08-1.13,3.46.51-.45.42-.35.74-.64.29-.27.43-.4.71-.6.27-.21.61-.53.89-.51.39.02.97.45,1.3.56.27.09,1,.34,1.08.35-.33.58-.63,1.19-.73,1.93-.05.38-.23,2.36.32,2.13.61-1.44,1.6-2.4,2.06-2.21,1.02.44,1.84.79,2.44.61.53-.16,1.37-.34,1.6-.33-.26.42-.61,1.44-.75,1.91-.07.24-.37,1.59-.04,1.66.11.02.26-.89.32-1.08.19-.56.43-1.36.64-1.95.25-.74,1.14-1.38.91-1.76-.12-.13-.44.14-.67.36l3.32-5.94-1.52-8.06Z"/>
            <g>
              <path class="st62" d="M269.6,416.91c.2-.1.29-.11,1.11-.15.43-.02.89.3,1.41.12.69-.25,1.33-1.52.68-2.24-1.68-1.84-3.11,1.82-3.2,2.27h0Z"/>
              <path class="st62" d="M270.88,406.31c.44.22,1.26,1.08,1.72,2.18.29.7,1.19,1.2,1.69.57.97-1.23.54-2.54-.43-3.15-.48-.3-1.62-.38-2.18-.14-.13.05-.56.32-.8.54h0Z"/>
            </g>
          </g>
          <g>
            <path class="st4" d="M276.67,406.09c.08.18.32.57.41.88.07.25.22.49.28.7.12.43.24.87.35,1.29.07.26.1.54.16.76.08.29.14.61.23.9.07.21.22.43.31.62.12.23.21.47.38.6.22.16.64.81.78,1.09.2.39.57.68.88.91.02.01.02.05.03.07.08.16.3.16.37.21"/>
            <path class="st4" d="M278.49,413.98s.8.17,0,0c-.32-.08-1.41-.43-1.73-.57-.34-.15-.67-.39-.98-.66-.37-.33-.7-.51-1.07-.83-.21-.19-.47-.19-.67-.29-.16-.07-.51,0-.63.03-.18.03-.42.19-.57.22-.17.03-.36.23-.52.38-.1.09-.11.21-.15.29"/>
            <path class="st4" d="M276.94,417.12s-.17.49-.22.61c-.08.19-.1.28-.22.46-.12.18-.25.36-.37.54-.12.19-.15.28-.22.46"/>
            <path class="st4" d="M275.31,411.01c-.12.19.16.52.07.74-.09.21-.12.3-.27.5"/>
            <path class="st4" d="M278.39,409.18c-.09.22-.13.51-.39.56-.03,0-.05.05-.08.07"/>
            <path class="st4" d="M293.6,423.34c-.13-.15-1.14-.39-1.57-.57-.69-.28-1.15-.85-1.89-1.18-.51-.23-1.18-1.11-1.58-1.47-.16-.14-.54-.25-.67-.29"/>
            <path class="st4" d="M286.74,425.92c-.8-.72,1.21,2.06,2.02,2.78.62.56,1.02,1.74,1.6,2.25.21.19.51.05.76,0"/>
          </g>
        </g>
        <g>
          <path class="st30" d="M303.74,410.41c-.12.23-1.7,1.47-2.49,1.91-.86.47-1.67,1.46-2.49,1.91-.95.52-1.58,1.15-2.12,1.97-.23.36-1.59,1.69-2.12,1.97-.72.4-.81,1.78-.87,2.28-.12,1.08-.13,1.94.29,2.72.94,1.75.31,1.11-.59,2.48-.52.8-.84,1.57-1.1,2.31-.4,1.17-1.35,2.17-1.74,3.3-.41,1.19-1.02,2.42-1.23,3.47-.19.99-.05,1.78.39,2.58.34.63.85,1.23.38,1.95-.56.85-.97,1.69-1.28,2.6-.45,1.31.34,1.79.84,3.25.37,1.08,2.1-5.81,2.64-5.9,1.21-.19,1.81-.49,2.78-.8,2.52-3.24,4.28.91,5.98-1.65.37-.56,1.81-.66,2.49-1.28.57-.52,2.03.06,2.86-1.21.77-1.18.06-.85,1.8-.54.8.14,2.6-.23,3.19-.76.74-.67,1.38-1.71,2.25-2.5,1.29-1.16,1.73-3.28,2.75-4.84"/>
          <g>
            <path class="st19" d="M303.34,413.24c.6-.92-1.82,1.18-2.77,1.7-.85.47-1.53,1.07-2.03,1.83-.62.95-1.09,1.98-1.69,2.91-.34.52-.21,1.84-.26,2.31-.12,1.05-1.04,1.74-1.52,2-.11.06-.25-.04-.37-.07"/>
            <path class="st19" d="M300.05,428.12c.09.45-1.22,2.42-1.51,3.26-.4,1.16-1.53,2.34-2.2,3.37s-1.77,1.44-2.3,2.25"/>
            <path class="st19" d="M294.56,430.5c-.54,1.16-1.29,2.6-2.11,3.86l-1.74,2.67c-.3.46-.46,1.36-.5,1.72"/>
            <path class="st19" d="M302.64,427.33c-.59.9-1.39,3.94-1.91,5.46-.13.39-.24.79-.36,1.19-.34,1.1.11,1.76.53,2.69"/>
            <path class="st19" d="M303.9,428.89s-.56,2.62-.35,3.71c.21,1.1.31,1.8.99,2.61.06.07.25.34.33.45"/>
            <path class="st19" d="M308.84,426.72c.76.9-.94,2.08-1.56,3.02-.8,1.22-.96,2.48-1.09,3.57-.06.48.11,1.05.06,1.5"/>
            <path class="st19" d="M312.96,427.07c-.09.78-1.3,2.41-1.69,3.54-.44,1.29-1.59,1.8-2.2,2.74"/>
          </g>
        </g>
        <g>
          <g>
            <path class="st45" d="M272.83,444.63c.13.29.17.15.51,1.3.19.64.25,1.31.54,1.97.41.93,1.51,1.29,1.81-.13.8-3.67-2.47-3.27-2.86-3.14Z"/>
            <path class="st64" d="M296.59,436.14s-2.66,1.75-3.88,2.97c-.78.79-2.7,2.35-2.7,2.35l-.22-.12c-.99.42-4.58,3.97-5.83,5.01-1.45,1.22-3.73,3.51-5.66,2.41-.91-.52-.68-2.47-2.45-2.71l.06,1.11c.2,0,.35.04.48.11l-1.87-.05-1,.24-.14-.63c-1.42.55-2.28,3.3-1.45,4.65-.44.15-.8.55-1.13,1.05l-.1.06v.09c-.06.1-.12.19-.18.29-.22.38-.27.87-.29,1.17-.01.2.01.43.38.28.07-.03.11-.04.15-.06l.05,1.36-.14,2.72-.28.09c-.16,1.16.16,1.57.65,2.14.25.29.77.53.95.6.33.11.49.26.67.51l.23-.52.29,1.96.99,1.2,1.18.82-.24.56s.51.35.64.38c.16.05.55.04.83-.03.62-.15,1.13-.36,1.55-.96,1.02-1.52,1.27-2.06,1.36-4.35.37-.02.75-.04,1.13-.08.39-.06.66-.24.95-.55.01.08.03.17.05.24.19.6.49,1.03.59,1.24.16.29.91.88,1.17.91l-.08-.76.95.14,1.2-.22-.12.83c.4-.56.92-.54,1.27-1.51.27-.73.34-1.76.34-2.56.01-.73.27-.54.61-.66,1.09-.32,1.44-.55,1.74-.29.57.46.24,2.37-.31,2.84.05.04.76-.4.92-.54.76-.65.99-1.91,1.25-1.88.13,0,.13-.02.22.15.08.1.08.37.06.64-.03.26-.06.61-.04,1.06.07,1.41.94,3.9,1.39,3.77.06-.96.07-.77.1-1.38.03-.55.04-.82.1-1.3.05-.49.08-1.14.28-1.48.27-.48.92-.93,1.21-1.27.23-.28.87-1.04.93-1.14.14.82.31,1.6.7,2.23.2.31,1.3,1.89,1.53,1.02-.49-1.75-.42-3.66,0-4.12.95-1.01,1.7-1.81,1.99-2.7.26-.79.7-1.98.86-2.26.08.61.48,1.75.68,2.24.1.25,1.75,1.53,2.13-.41"/>
            <g>
              <path class="st45" d="M283.43,464.49c.39-.15.91-.08,1.46-1.28.51-1.13.81-2.81-.16-3.57-.23-.19-.44-.18-.66-.08-.2.1-.3.36-.45.62-.14.28-.17.61-.19.93-.02.35,0,.59.04.94.1.55.05,1.23.02,1.84-.05.67-.02.31-.06.61h0Z"/>
              <path class="st45" d="M273.87,467.77c.07-.32.13-.45.64-1.51.27-.56.78-.94,1.01-1.72.31-1.05-.05-2.71-.93-2.37-2.25.89-.94,5.19-.72,5.61h0Z"/>
              <path class="st45" d="M268.2,458.98c.43-.42,1.5-.87,2.48-.72.62.1,1.53-.71,1.47-1.77-.11-2.06-1.21-2.4-2.23-1.57-.51.41-1.31,1.82-1.53,2.69-.06.2-.18.93-.2,1.38h0Z"/>
            </g>
          </g>
          <g>
            <path class="st7" d="M271.9,451.45c.16.02.57-.03.82.07.2.08.45.05.62.12.34.14.69.28,1.03.42.21.08.4.24.57.31.23.1.47.23.7.31.18.06.41.01.59.02.22,0,.43.06.63-.08.25-.17.93-.27,1.19-.26.38.01.79-.27,1.14-.51.02-.01.04,0,.07,0,.15,0,.3-.28.38-.33"/>
            <path class="st7" d="M277.94,454.58c-.26.35-1.17,1.38-1.48,1.69-.32.33-.69.6-1.06.8-.45.25-.78.55-1.22.8-.26.14-.43.47-.62.67-.15.16-.34.65-.4.82-.1.25-.16.67-.24.87-.09.24-.1.62-.11.93,0,.18.06.29.08.39"/>
            <path class="st7" d="M278.87,458.54c0,.09.19.55.23.69.06.23.1.32.13.59.03.28.06.56.09.83.03.28.07.38.13.59"/>
            <path class="st7" d="M281.61,460.19c.03.3-.3-.48-.29-.79l.05-.93c.01-.28.09-.56.14-.78.06-.27.21-.45.27-.73.06-.28.21-.41.26-.68"/>
            <path class="st7" d="M286.65,455.63c.12.19.24,1.14.3,1.33.06.23,0,.63.02.88.02.14,0,.35.01.44"/>
            <path class="st7" d="M274.03,456.5c.03.28.43.14.5.41.07.25.1.36.13.69"/>
            <path class="st7" d="M274.95,451.34c.07.26.23.51.09.88-.02.04,0,.1,0,.15"/>
            <path class="st7" d="M293.76,441.51c-.18.06-1,1.19-1.39,1.62-.63.69-1.29.89-1.98,1.61-.48.5-1.47.75-1.95,1.02-.19.1-.52.52-.62.67"/>
            <path class="st7" d="M290.8,451.99c-.97.54,2.07-.16,3.05-.7.76-.42,1.75-.13,2.45-.52.25-.14.37-.61.51-.96"/>
          </g>
        </g>
        <g>
          <path class="st25" d="M326.75,409.96c.18.32.37,1.06.58,1.57.15.35.26.82.34,1.19.14.63.28,1.18.43,1.88.11.51.66,1.18.9,1.56.21.34.41.66.42,1.18,0,.39-.33,1.11-.45,1.43-.19.53.23,1.01.34,1.29.23.55.43.83.66,1.37.25.59.46,1.21.74,1.67.35.55.61.87.9,1.56.26.61.44,1.29.67,1.97.21.62.52,1.18-.06,1.21-.75.04-.96-.35-1.28-.33-.5.03.1,1.27.11,1.9s.01,1.34-.13,1.72c-.08.22-1.1.25-1.26.48-.32.43-.12,2.07-.11,2.72.02.94-.23,1.96-.43,2.64-.06.21-1.09,1.22-1.25,1.28-.46.17-.69.73-1.01.96-.13.09.12,2.09.12,2.31.01.82-.13,1.43-.12,2.12,0,.43-1.59-.65-1.68-.7-.24-.13-.71-.55-.72-.56-.48-.27-.13,1.35-.12,2.02.01.6-.15,1.24-.29,1.63-.02.06,0,.13,0,.2,0,.42-.81,1.41-.92,1.56-.31.42-.58.62-.77,1.15-.23.61-.77,1.34-.92,1.96-.25,1.06-1.82.55-1.8,1.61.01.69-3.15-2.91-2.75-2.55.86.75-.64,1.31-1.47,1.9-.19.14-1.51-1.87-1.8-2.71-.41-1.22-4.86-1.15-4.89-2.53"/>
          <path class="st3" d="M326.8,417.6c-.21-.5.57.87.9,1.25.27.32.51.73.65,1.07.3.7.12,1.74.28,2.5.14.62.09.97.26,1.39.18.42.33.87.58,1.27.15.24.28.57.41.78"/>
          <path class="st3" d="M324.7,419.63c.29.46,1.13,1.67,1.55,2.42.44.78.29,1.79.45,2.69.06.35.18.56.25.89"/>
          <path class="st25" d="M322.02,421s.05,0,.08,0c.59-.03.32,1.43.59,2.08.54,1.28.56,2.93,1.26,4.05.44.69.74,1.56,1.07,1.95.48.57,1.02,1.07,1.3,1.73.19.44.67,1.58.99,1.95.27.32.59,2.11.6,2.58.01.73.09,1.73.2,2.5,0,.07,0,.13,0,.2"/>
          <g>
            <path class="st3" d="M317.33,420.57c.09.61,1.16,2.29,1.41,3.44.22,1.03.95,2.13,1.4,3.03.23.45.67.79.97,1.15.34.41.78.89,1.21,1.13.43.25.9.3,1.36.42.38.1.72.11,1.2.23.33.08.8.05,1.19.13"/>
            <path class="st3" d="M324.57,430.2c.06.02.66,1.5.83,1.76.3.47.52.92.74,1.56.3.89.6,1.69.76,2.77.14.9.11,1.87.13,2.81v.5"/>
            <path class="st3" d="M314.54,428.88c.01.58.58,1.72.91,2.26.36.56.44.72.82,1.16.51.6.86,1.02,1.38,1.53,1.12,1.1,2.22,2.62,3.33,3.93.52.62.88.43,1.52.71"/>
            <path class="st3" d="M320.07,431.37c.36.16.8,1.82,1.23,2.34.26.31.48,1.05.66,1.47.34.81.42,1.73.53,2.78.08.74.33,1.6.44,2.19.07.38.34.71.58,1.07.17.27.25.49.41.68"/>
            <path class="st3" d="M317.97,447.18c.35-.44.37-1.23.36-2.13-.02-.83.05-1.68.03-2.52-.02-.93-.03-.33.4.18.33.39.45.87.66,1.37.47,1.11.4.38.7-.64.14-.49.14-1.02.13-1.72,0-.47-.03-.95.05-1.41.09-.49.83.24,1.19.03.73-.42.39-.21.37-1.23v-.8"/>
            <path class="st3" d="M318.04,437.52c-.01-.6.37,1.11.66,1.57.24.39.76.48,1.04.64.19.11.22.19.32.28"/>
            <path class="st3" d="M316.47,438.62c.53.3.22,1.52.59,2.08.33.48.58.77.89.95.19.1.41.55.49.67"/>
            <path class="st3" d="M321.18,444.37c.01.07.26,1.1.34,1.49.17.78.45,1.2.59,1.98.06.32.12.57.18.89"/>
            <path class="st3" d="M311.63,429.96c.09.5.55,1.39.83,2.06.18.43.87.82,1.21,1.24.65.76,1.23,1.45,2.02,1.89.16.09.32.18.48.27.11.06.21.12.32.18.38.21,1,.57,1.28.73.42.24.93.11,1.19-.07.13-.09.19-.35.23-.42"/>
            <path class="st3" d="M312.95,432.7c.07-.05.36,1.57.76,2.67.19.53.79.93,1.14,1.34.44.52.79.94,1.29,1.23.45.26.8.62,1.44.72.34.05.89.09,1.11.14"/>
            <path class="st3" d="M310.06,431.36c.59.09.2,1.5.44,2.19.52,1.54.87,3.01,1.59,4.43.08.16.16.33.25.49.43.84.68.92,1.38,1.53.62.54,1,.5,1.45,1.02.31.36.9.41,1.36.52.36.09.93.1,1.27.23"/>
            <path class="st3" d="M307.62,432.21c.21.05.64,1.3.82,1.66.42.83,1.17,1.6,1.63,2.52.24.48.63,1.18.82,1.56.35.7.7,1.32,1.07,2.05.23.46.72.75,1.13,1.24s.73.81,1.13,1.04c.46.26.76.53,1.12.74.81.46-.12-.14.16.19"/>
          </g>
        </g>
        <path class="st20" d="M311.92,383.96c-.08,0-.17.03-.25.04-.2.04-.65.45-.87.51-.31.09-.55.11-.82.19-.23.06-.45.05-.7.06-.26,0-.49.02-.73-.04-.31-.08-.5.06-.77-.02-.23-.06-.58.07-.81.19-.05.02-.1.04-.14.06-.22.1-.43.29-.57.5-.18.26-.39.3-.38.65,0,.31-.16.45-.23.8-.04.21-.43.24-.62.29-.25.07-.42.1-.68.17-.3.08-.49.23-.75.3-.2.06-.61.5-.72.66-.12.18-.62.47-.74.5-.26.07-.48.28-.75.35-.29.08-.54.1-.75.26-.26.19-.41.13-.5.62-.05.25-.19.5-.19.81,0,.29-.06.56-.07.83,0,.31-.03.52-.03.8,0,.07,0,.13,0,.2,0,.27.04.41.05.67,0,.35-.16.5-.15.82,0,.28-.05.51-.05.74,0,.27.11.43.17.69.05.24.1.39.2.57.13.23.21.44.35.69.11.2.31.39.41.57.12.22.68.5.87.63.28.2.67.24.97.32.33.09.89.06,1.22.02.13-.01.25,0,.38,0,.34,0,.76.18,1.06.1.26-.07.74.29.96.41.03.01.06.02.08.03.21.06.61.47.74.65.14.19.31.37.42.52.16.23.29.46.46.77.14.26.15.51.16.76,0,.36.02.61-.16.86-.18.25-.34.38-.63.38-.39,0-.39-.05-.75-.15-.48-.13-.81-.29-.96-.66-.12-.3-.9-.81-1.16-.93-.34-.16-.65-.22-1.02-.33-.34-.09-.71-.09-1-.17-.29-.08-.66.06-.89.11-.24.04-.2.26-.19.56,0,.25-.11.57-.15.82-.05.29-.11.58-.16.87-.05.28-.05.62-.04.89,0,.33.17.52.24.82.07.32.17.54.31.89.09.23.26.5.48.64.43.26.71.7,1.1.81,1.08.2,2.84-2.75,4.04-1.35.44.08.35.34.79.25.34-.06.43-.08.81.02.29.08.59.46.91.65.02.01.04.03.06.04-.42.17-1,.31-1.34.67-.64.69-.66.48-.89,1.72-.2,1.06-1.39,3.32-1.83,4.68-.23-.37-.48-.72-.82-1.04-.46,8.94,25.15,15.59,12.74-25.29-.27-.24-.57-.47-.74-.8-.25-.46-1.01-1.02-1.36-1.23-.32-.19-.7-.71-.91-.91-.2-.19-.72-.29-.93-.35-.34-.09-.65-.13-1-.18-.25-.03-.5-.03-.75,0h0Z"/>
        <g>
          <path class="st47" d="M323.64,389.96c.12.18.78.5.98.66.35.27.65.42,1.05.73.33.25.49.43.72.68.22.22.32.4.53.69.31.42.57.76.8,1.25.13.27.42.51.6.68.38.39.06.58-.24.81-.3.22.15.87.28,1.13.21.43.29.67.47,1.05.12.25.22.61.27.85.09.36.36.9.47,1.2.13.35.21.51.34.77.22.46.44.99.61,1.33.16.33.23.75.41,1.13.27.55.27,1.58.36,2.14.1.57.01.79-.37,1.03-.5.31-.51.24-.37.81.09.37.25.81.34,1.06.11.3.21.74.21,1.14.01.7.41,1.52.56,2.13.15.6.38,1.07.48,1.7.09.51.41.97.42,1.49,0,.42.17.64.02,1.08-.12.36-.89.41-1.16.43-.5.03-.73-.45-1.16.07-.27.33-.71.77-.95.92-.42.26-.22.83-.11,1.3.02.09.05.19.07.28.15.6.03.79-.24,1.31-.23.45-.61.68-.96.78-.12.03-.15.05-.26.09-.42.12-.78.47-.96.63-.21.06-.29.9-.24,1.09.07.29.13.61.21.92.08.32.38.64.54.98.28.58.7.97.93,1.46.23.47.6.83.74,1.4.17.71.93,1.24-.24,1.31l-1.42.08c-.28.02-.82-.79-1.05-.87-.36-.14-.73-.96-.99-1.24-.5-.51-.83-1.72-1.21-2.37-.12-.2-.22-.42-.34-.63-.28-.53-.64-.78-.79-.82-.04,0,.14.75.16,1.5,0,.52.21.99.22,1.43.01.62.55,1.55.82,2.11.37.77.88,1.92,1.09,2.74.16.66.71.94.99,1.24.59.61,1.16,1.71,1.53,2.36.15.25-1.03.03-1.23-.07-.47-.23-.51-.87-1.11-.73-.36.09-.76.39-1.09.5-.3.1-.26.1-.38.38-.23.08-.3.98-.82,1.13-.38.11-.51.05-.18.73.15.32.25.6.34.99.11.43.26.86.35,1.2.09.37.02.91.02,1.29,0,.33-.12.73-.11,1.23,0,.27-.5-.23-.71-.1-.41.26-.64.68-.65-.11,0-.51-.82-1.19-1.06-1.38-.35-.27-.64-.76-.99-1.02-.34-.26-.81-.74-1.06-1.09-.3-.41-.81-.93-1.12-1.08-.41-.2-.66-.93-.99-1.09-.28-.14-.76-1.3-.87-1.53-.48-1-.96-2-1.35-3.01-.29-.76-.27-.46-.26.16,0,.54.06,1.05-.1,1.52-.16.48.09,1.27.1,1.72.01.59-.16.83-.36,1.32-.12.28-.54.57-.76.84-.15.18-.25.88-.5,1.18-.29.34-.45.5-.89.63-.5.14-.19.45-.18.95.01.63.12.9-.43,1.18-.31.16-.64-.23-.98-.3-.53-.12.11,1.2.23,1.79.1.51-.56,1-.88,1.2-.24.15-.42.54-.89.7.46,1.25-.56,1.13-.08,2.61-.33,5.32-1.02,5.91-2.81,3.18-.01-.71-.89-4.18-1.12-4.69-.75-1.72-4.13-3.46-4.07-3.86.09-.56,0-1.37-.16-1.79-.19-.5-.11-.98-.54-1.19-.04-.02-.09,0-.13,0-.18.01-.9-.97-.99-1.09-.29-.41-.61-.86-.8-1.25-.16-.33.03-1.16.1-1.52.18-.89.12-1.69.41-2.54.24-.73.26-1.58.41-2.33.12-.58.36-1.1.55-1.69.14-.43.25-.93.36-1.46.09-.45.33-.86.5-1.25.28-.67.45-1.51.74-2.27.16-.43.33-.79.5-1.18.23-.55.79-1.25,1.13-1.79.51-.81.99-1.69,1.38-2.6.29-.69,1.16-.8,1.4-1.38.13-.31,1.01-.76,1.21-1.01.16-.19.54-.39.64-.47.42-.5.93-.59,1.34-1.09.36-.43.61-.78.82-1.27.36-.87,1.04-1.79,1.64-2.62.18-.24.34-.5.5-.75.69-1.02,1.53-2.33,1.68-3.48.03-.24.14-.49.18-.73"/>
          <g>
            <path class="st24" d="M325.6,394.52c0-.07.65.76.79.96.24.33.35.45.53.83.25.52.46,1.06.74,1.54.17.29.29.6.4.84.19.41.23.96.28,1.35.07.48.06.96.15,1.36.09.38.17.9.28,1.35.16.65.29,1.36.55,1.91"/>
            <path class="st24" d="M324.74,397.01c.11.46.76,1.7,1.2,2.16.28.29.43.93.67,1.18.13.14.38.73.47.91.21.45.25,1.26.35,1.71.14.58.13,1.2.23,1.79.08.46.21.99.22,1.5.01.66.15,1.32.17,2l.04,2.3c.01.72-.1,1.5-.09,2.09,0,.45-.85-.37-1.05-.51-.34-.26-.39-.58-.73-.75"/>
            <path class="st24" d="M324.93,400.02c-.39-.3.18,1.05.29,1.57.08.42.08,1.04.09,1.58.01.74-.23,1.32-.22,2.1,0,.47.32,1.38.61,1.69.37.38.55,1.5.68,2.05.06.24.09.19.13.28"/>
            <path class="st24" d="M328.62,407.43c.11.45.36,1.32.49,1.99.15.73.16,1.47.17,2.22,0,.5.21,1.08.22,1.64,0,.48.26,1.37.42,1.7.21.44.29.58.6.9"/>
            <path class="st24" d="M324.04,401.23c.11.23.15.89.15,1.36,0,.54.09,1.15.1,1.72s0,1.2.1,1.72c.11.56.14,1.01.22,1.57.09.64.34,1.32.49,1.91.13.51.44.92.61,1.26.18.38.21.7.21,1.14,0,.33-.12.65-.24.95-.05.11-.47-1.05-1-1.74-.33-.43-.78-1.05-1.19-1.58-.07-.09-.13-.18-.2-.28-.38-.53-.74-1.63-.75-2.26,0-.36-.08-.53-.02-.86"/>
            <path class="st24" d="M323.97,411.45c-.01-.6.02,1.21.16,1.79.16.65.34,1.15.68,1.61.43.59.72,1.2,1.2,1.8.49.61.82,1.2,1.2,1.73.25.34.37.53.66.82.29.3.71.45.98.73.06.06.13.09.2.13"/>
            <path class="st24" d="M328.47,420.39s-.69-.37-1.5-.77c-.54-.27-.91-.88-1.31-1.07-.57-.28-1.26-1.93-1.66-2.49-.61-.84-1.05-2.11-1.48-3.01-.15-.31-.83-.85-1.05-1.02"/>
            <path class="st24" d="M321.44,414.69c-.17-.35.31.71.47,1.05.13.26.4.62.6.9.2.27.42.51.6.68.33.34.72.78,1.18,1.01.15.08.2.14.33.2"/>
            <path class="st24" d="M322.25,416.59c.4.2.62,1.63.75,2.19.19.77.02,1.83-.21,2.53-.02.05,0,.1,0,.14.02.92-.19.4-.2-.28-.02-.88-.48-1.37-.81-1.82-.44-.61-1.02-1.04-1.2-1.94-.09-.45-.38-1.61-.55-1.98"/>
            <path class="st24" d="M319.48,417.11c-.1-.48.23.95.35,1.42.13.54.14,1.01.48,1.48.29.4.43.52.86.96.29.3.51.62.86.88.33.25.32.84.41,1.2"/>
            <path class="st24" d="M317.27,417.03c.26.2.49,1.44.62,1.98.12.5.68.94.93,1.46.05.1.13.18.2.28.31.43.53.62.73,1.04.33.69.65.92,1.25,1.22.29.14.52.4.79.53.03.01.04.05.07.07"/>
            <path class="st24" d="M317.79,420.38c.17.08.43.89.61,1.26.24.51.24,1.12.55,1.77.18.38.15,1.07.22,1.43.13.64.37,1.1.48,1.7.1.49.45.73.67,1.18.2.43.75,1.13,1,1.38.29.3.54.84.73,1.25.26.53.74.89,1.19,1.22.46.35,1.08.78,1.51.99.3.15.42.24.72.39.03.01.04.05.07.07"/>
            <path class="st24" d="M317.85,427.21c.2.1.4,1.18.67,1.47.42.44.58.95.93,1.31.4.41.86.96,1.19,1.3.3.31.71.6.92.81.35.36.82.58,1.24.79"/>
            <path class="st24" d="M319.32,429.71c.09.04.46,1.24.61,1.55.22.46.5,1.15.87,1.53.09.09.18.18.26.27.27.28.57.91.73,1.25.21.43.57.65.79.89.09.09.13.09.2.13"/>
            <path class="st24" d="M317.37,429.4s.08,1.12.16,1.43c.1.42.26.87.35,1.2.09.35.47.77.67,1.18.2.42.68.99.93,1.24.29.3.47.56.66.75.26.27.55.56.86.88.28.29.61.58.86,1.1.17.35.6.71.73,1.04.21.53.27.83.28,1.42,0,.31.08.77.15,1.07"/>
            <path class="st24" d="M314.93,419.9c0,.07.23,1.03.28,1.28.1.52.21.93.41,1.34.17.36.22,1.15.29,1.49.14.69.38,1.35.55,1.98.09.31.49.83.6,1.19.18.54.21,1.12.23,1.71.01.72-.05.48-.51.25s-.88-.91-1.19-1.22c-.51-.52-.8-1.39-1.14-2.09-.34-.7-.57-1.36-.82-2.11-.23-.71-.41-1.14-.68-1.69-.04-.09-.09-.19-.13-.28-.27-.57-.26-1.01-.16-1.65.04-.27,0-.53.05-.79"/>
            <path class="st24" d="M308.99,420.9s-.24,1.24-.36,1.53c-.21.51-.04,1.46-.03,2.02.01.82.16,1.66.17,2.44.01.66.26,1.64.49,2.13.29.6.28.96.73,1.18.32.16.66.36.98.52.63.31.59.23.57-.54-.01-.59-.15-.87-.16-1.43,0-.53-.15-.9-.15-1.36s-.15-1.21-.16-1.86.04-1.28.03-1.94.13-1.35.22-1.96c.13-.82.28.35.34.63.1.51.27.92.41,1.2.22.45.19,1.07.29,1.57.02.12.05.24.07.36.12.6.14,1.25.29,1.85.09.37.18.73.28,1.13.21.84.37.52.51-.17.12-.61.21-1.28.35-1.96"/>
            <path class="st24" d="M313.08,428.64s.22,1.17.24,2.29c0,.52.08,1,.09,1.51.01.73-.11,1.06-.1,1.73,0,.47.08.9.09,1.36,0,.05.04.09.07.14"/>
            <path class="st24" d="M312.22,431c0,.27.15,1.38.17,2.08.02.85-.1,1.65-.08,2.45.01.6-.37.86-.36,1.32,0,.39,0,.54-.11.8"/>
            <path class="st24" d="M309.86,429.55c0,.17.21.74.22,1.21s.08.92.09,1.43c.01.6.08,1.47.23,2.07.16.66.16,1.34.3,2,.1.5.34.85.54,1.12.17.24.44.35.65.39"/>
            <path class="st24" d="M304.76,423.23c.1.13-.17,1.36-.16,1.81,0,.41-.07.96.02,1.37.13.54.15,1.23.16,1.79s.32,1.21.48,1.55c.08.16-.77.19-1.3-.07-.47-.23-.63-.96-.99-1.24-.59-.45-.56.35-.82.98-.27.65-.14.58-.58-.04-.27-.38-.2-1.3-.1-1.79.18-.88.22-2.13.2-3.03,0-.35.05-.66.05-1.01"/>
            <path class="st24" d="M302.74,422.42c0-.48.15,1-.04,1.44-.2.48-.1,1.81-.09,2.31.01.68.04,1.39.29,1.93"/>
            <path class="st24" d="M304.17,429.67c.04.08.14.98.22,1.28.21.84.67,1.67,1.08,2.38.3.52.51.98,1.12.94"/>
            <path class="st24" d="M303.38,429.36c.43-.03-.15.98-.04,1.44.03.12.05.24.07.36.12.6.33,1.31.55,1.77.25.52.34.77.73,1.18.34.35.95.69,1.37.78.06.01.52-.29.58-.32"/>
            <path class="st24" d="M301.97,429.88c.55.12.04,1.25.16,1.86.12.6.26,1.1.48,1.55.27.55.62.87.87,1.39.24.51,1.15.74,1.51.92.17.08.7-.4.83-.48.04-.02.09,0,.13,0"/>
            <path class="st24" d="M301.51,429.54c.05-.03.09,1.51.1,1.86.02.86-.03,1.67-.02,2.52.01.79.5,1.8.75,2.33.12.24.92.4,1.11.44.36.08.58-.12.71-.33"/>
            <path class="st24" d="M305.19,425.37c.49.11.31,1.04.48,1.55.21.64.28,1.2.49,1.84.03.09.05.19.07.28.16.64.57,1.28.68,1.83.06.32.57,1.01.73,1.18.22.23.51,1.11.68,1.54.05.14.09.28.14.42.19.58.2.92.73.89.33-.02.7-.86.76-1.12.04-.19.17-.41.25-.59"/>
            <path class="st24" d="M306.19,423.22c.02-.1.42.79.61,1.76.11.56.31,1.16.48,1.7.26.8.28,1.08.74,1.68.27.35.58.77,1.05.87.22.05.38.14.59.18"/>
            <path class="st24" d="M308.66,434.44s.03,1.54.1,1.86c.02.12.05.24.07.36.02.1.05.19.07.28.01.05,0,.1,0,.14,0,.45.4.93.54,1.12.27.37.29.82.73,1.04.05.02.16.11.2.13"/>
            <path class="st24" d="M306.85,434.55c.38.19.44,1.04.54,1.48.12.5.12.92.22,1.43.01.05.04.09.07.14.33.7.48,1.92.63,2.7.16.82.78,1.65,1.2,2.09.02.02.04.05.07.07"/>
            <path class="st24" d="M300.97,424.61s-.07,1.32-.16,1.66c-.13.48-.3,1.35-.29,1.82.01.71-.3,1.08-.29,1.82s-.1,1.42-.09,2.16c0,.47.14,1.13.29,1.57.16.48.36.78.6,1.12.25.35.39.4.66.68.29.3.32.12.46.4"/>
            <path class="st24" d="M301.16,435.03c.24.24-.05.95-.04,1.37,0,.25-.67.77-.83.91"/>
            <path class="st24" d="M306.76,436.86c0,.12.33,1.01.41,1.27.13.4.15.94.16,1.43.01.55.12,1.24.23,1.79.08.39.01.92.09,1.22"/>
          </g>
        </g>
        <g>
          <path class="st57" d="M315.16,405.46l2.82,8.61.14-.07c.02.27.06.63.12.79.16.45.16,1.13.08,1.73-.09.69-.25,1.42-.24,2.27,0,.12.02.25,0,.37-.11.68-.18,1.63-.17,2.36,0,.64-.05.99-.05,1.64,0,.88.26,1.5.27,2.27,0,.54.1,1.29.02,1.81-.16.95.9.53.9.09,0-.86.46.04.7-.82.12-.45.5-1.23.5-1.64,0-.46-.23-1.56.06-1.36.15.11.97.8,1.21.08.38-1.11.37.48.83-.19.59-.86.43,0,.77-.09.2-.06.69-.51.69-.92,0-.69.06-1.38.05-1.91,0-.6.2-.91.57-1.18.24-.17.76-1.04.75-1.55,0-1.02.26-.75.5-1.1.26-.38.59-.78.76-1.28.18-.51.17-1.53.51-.91.12.22.84.92.83.36,0-.45-.11-.95-.2-1.45-.11-.57-.14-1.38-.15-1.99,0-.67.1-1.54-.02-2.18-.1-.52.02-1.11-.07-1.63-.09-.48-.13-1.04-.2-1.55-.16-1.05-.15-.57.19-.09.35.49.33.79.33,1.54,0,.6.27,1.58.26.82,0-.68.05-.95.05-1.64,0-.57-.07-1.17-.08-1.72,0-.49-.07-.82-.14-1.27-.07-.45-.17-.92-.33-1.36-.15-.42-.4-1.03-.46-1.36-.08-.42-.3-.65-.46-1.09-.14-.4-.37-.76-.52-1.17l.29-2.67-.54-.39s.1.02.16.05c.05.02.2.17.38.33.32.29.72.64.84.57.49-.28.19-.44.18-1.09,0-1.16.7.86.77.72.2-.39.57-.88.43-1.64-.18-.97.16-.02.51-.27.1-.07,1.02-.81.95-.91-.23-.32-.68-.31-.83-.72-.04-.12-.29-.62-.46-1.04,0-.1-.02-.19-.04-.28-.04-.2-.01-.36.05-.48,0,0,0-.01.01-.02.04-.04.08-.09.12-.13.05-.04.11-.07.17-.09.27-.1.21-.55.09-.9-.09-.26-.35-.44-.41-.77-.04-.23-.17-.54-.32-.7-.24-.25-.33-.45-.59-.64-.16-.11-.33-.33-.55-.45-.29-.16-.44-.24-.68-.38-.19-.11-.53-.28-.77-.45-.18-.13-.38-.22-.64-.31-.27-.09-.58-.07-.9-.18-.07-.02-.13-.04-.19-.05-.17-.01-.29.05-.49.05-.33,0-.51.13-.9.13-.49,0-1.94.4-1.44.39"/>
          <g>
            <path class="st16" d="M320.19,410.6c-.03-.09.14.93.14,1.36,0,.58,0,1.11-.12,1.45-.18.52-.2.97-.37,1.46-.16.47-.12,1.35-.11,1.91,0,.66-.12,1.15-.11,1.82,0,.72-.16,1.13-.05,1.73.11.59.05,1.12.14,1.63.02.12.04.24.07.36.06.35.17.82.26,1.09.02.06.04.12.07.18"/>
            <path class="st16" d="M318.84,418.24c.11.29.12,1.33-.05,1.82-.15.43-.25,1.1-.24,1.55,0,.92.08,1.81.09,2.72,0,.44.13.96.2,1.36.08.44.19.85.27,1.27"/>
            <path class="st16" d="M321.75,406.68c.04.19.28.92.46,1.54.13.44.12,1.09.2,1.54.1.55.04,1.17.14,1.72.13.71-.12,1.47-.11,2.09,0,.89-.15,1.96-.36,2.73-.12.46-.11,1.73-.11,2.09,0,.56.07.85.08,1.36,0,.66.22,1.23.4,1.72.16.44.18.87.27,1.36.04.23.04.49.07.64"/>
            <path class="st16" d="M321.11,414.04c.07.4.26,1.08.27,1.81,0,.8-.12,1.21-.11,2l.02,1.91v1.63c.02.47.14,1.02.22,1.45.03.18.14.2.19.27"/>
            <path class="st16" d="M320.95,401.97c.03.16.43.95.65,1.27.29.41.41,1.09.65,1.54.22.41.39,1.24.46,1.63.08.44.21,1.04.27,1.45.11.71.2,1.44.21,2.09s.29,1.45.4,1.9c.1.41.16.72.33,1.18.23.63.35.73.58.81.41.14.05-1.21.05-1.82l-.02-2.09-.03-3.18c0-.75-.27-1.27-.27-2.09,0-.39-.26-.64-.26-1.09"/>
            <path class="st16" d="M320.87,400.06s1.14.77,1.35.99c.29.31.46.73.71,1.08.3.42.64.9.9,1.17.24.26.5.88.78,1.27.25.36.3,1.02.4,1.54.11.57.26.84.58.72.41-.15.25-1.09.38-.37.1.52.07,1.08.08,1.63,0,.5.13,1.03.2,1.45.07.39.19.75.27,1.18.11.59.06,1.23.14,1.82.08.56.14,1.13.14,1.63,0,.07.04.12.07.18"/>
            <path class="st16" d="M325.29,409.02c0,.11.13,1.2.21,1.81.1.8.08,1.64.08,2.45,0,.98-.05,1.57-.04,2.45,0,.39.08.77.14,1.09"/>
          </g>
          <path class="st57" d="M324.49,413.83c0,.69-.33,1.42-.5,1.91-.25.74-.38.98-.37,1.82l.02,2.36c0,.07.04.12.07.18"/>
          <g>
            <path class="st16" d="M319.62,396.53c0,.49.65.32.96.54s.65.43.96.54c.28.1.67.43.96.63.46.32.8.56,1.16.81.24.17.5.6.71.9.3.42.58.8.78,1.17.16.29.42.5.58.72.23.33.42.67.71,1.18.44.76.68,1.3.79,2.26.02.2.07.33.07.54"/>
            <path class="st16" d="M325.02,400.76c.04.36.42.9.52,1.45.14.77.27,1.4.27,2.18,0,.53.07,1.08.08,1.63"/>
            <path class="st16" d="M319.8,394.26c0,.58.81-.19,1.21-.19s.65.27.9.45c.31.22.66.41.96.63s.67.51.96.72c.36.25.67.76.9,1.08.13.19,1.07,1.3,1.16,1.44"/>
            <path class="st16" d="M325.78,395.57c.29.4-.98-.54-1.38-.53-.29,0-1.14-.41-1.41-.53-.48-.22-1.04.07-1.47-.17"/>
            <path class="st16" d="M327.15,394.84c-.21-.1-.73-.6-1.03-1.17-.13-.25-1-.54-1.35-.53-.41,0-1.02-.36-1.47-.35-.59,0-1.07-.17-1.66-.17s-.98-.08-1.53-.08"/>
            <path class="st16" d="M328.29,393.92c-.51,0-.62-1.19-1.04-1.63-.48-.51-1.18-1.2-1.86-1.44-.77-.27-1.4-1.04-2.12-1.44-.39-.22-.9-.17-1.41-.17"/>
            <path class="st16" d="M328.52,391.19c-.06,0-.8-1.21-1.23-1.44-.61-.34-.82-.9-1.41-.9h-.32c-.34,0-1.18-.19-1.41-.35-.39-.27-1.25-.17-1.73-.17h-1.6"/>
          </g>
        </g>
        <g>
          <path class="st25" d="M313.76,384.16c.65-.19,1.68-1.58,2.27-2.23.94-1.03,2.26-1.23,3.43-.8.4.15.24,1.2.36,1.8.15.72,2.03.6,2.48.96.45.36,1.34.43,2.02,1.35.76,1.03,1.38,1.13.69,2.31-.67,1.14-.96,1.4-1.99.94-.73-.32-1.35-.82-2.15-1.45-.81-.65-1.36-.6-2.04.14-.69.75-1.16,1.75-1.88,2.54-.69.75-1.59-.86-2.41-1.16-.17-.06-.31.26-.47.39"/>
          <g>
            <path class="st29" d="M320.16,383.44c-.34-.12-1.5-.24-2.23-.26-1.19-.03-1.64,1.29-2.4,2.13"/>
            <path class="st29" d="M324.29,388.22c-.79-.02-1.25-1.57-2.01-1.85-1.09-.4-1.48.21-2.28-1.06-.1-.15-.08-.4-.12-.6"/>
          </g>
        </g>
        <g>
          <g>
            <path class="st23" d="M314.88,383.33l14.57,9.91,1.47-2.99-14.54-9.9-1.51,2.98Z"/>
            <path class="st23" d="M315.02,383.41l14.53,9.97c.24.48-.16.94-.52.89l-14.56-9.86c-.38-.54.06-1.28.55-1Z"/>
            <path class="st23" d="M316.97,379.39l14.53,9.97c.24.48-.16.94-.52.89l-14.56-9.86c-.38-.54.06-1.28.55-1Z"/>
            <path class="st23" d="M318.15,383.41c-.99,2.21,1.61,3.33,2.26,1.7,1.05-1.86-1.39-3.28-2.26-1.7Z"/>
            <path class="st23" d="M325.44,388.43c-.99,2.21,1.61,3.33,2.26,1.7,1.05-1.86-1.39-3.28-2.26-1.7Z"/>
            <path class="st23" d="M321.83,385.93l1.75-.36.57,1.98-1.91.45-.41-2.07Z"/>
            <path class="st23" d="M330.81,390.61l-.19,1.55-1.04.74-.49-1.97,1.72-.32Z"/>
            <path class="st23" d="M316.42,380.56l.22,1.94-1.6.65.16-1.45,1.21-1.13Z"/>
            <path class="st23" d="M319.08,369.58l-.69,3.21-.9,1.91c-1.48,1.63-1.09,6.19,2.87,5.72.72,1.54,1.34,3.17,4.71,2.14.45,2.7,1.73,4.26,3.94,3.7.49,2.98,4.21,3.78,5.79.24l1.13-1.76,2.18-2.21c-.6-.41-1.08-.54-1.58-.72-.57.2-1.11.45-1.53.93-.4-.31-.82-.55-1.27-.66-.39.03-.71.27-.89.88-.52-.19-1.11-.15-1.75.05,0,.72.61,1.23,1.26,1.73l-.3.49-.12,1,1.68-.26c-.88,2.48-3.52,2.27-4.05-1.07-2.9,1.11-3.61-1.85-3.32-3.62.14-.39.71.41.81.86,0,.51-.05,1.06.24,1.13l.68-.07c.35-.15.67-.4.94-.79l.35.34,1.09-.11c.05-1-.61-1.47-.92-2.2.38-.34.63-.7.55-1.11-.3-.67-.9-.36-1.11-.7.24-.7.25-1.38.26-2.07-.2-.98-.65-.91-1.12-.74-.58.17-1.01.69-1.47,1.16l-.82-.68c-.43-.34-.87.23-.97.92-.86.04-1.54-.2-2.18.03.12.66.3,1.29.81,1.52l-.16,1.35c-.01.31.02.6.34.73l.38-.02c.31-.04.4-.45.68-.49.36-.04.69,0,.9.46-.08.78-3.87,2.26-4.42-1.56-3.16.83-3.99-2.23-2.67-3.57.25-.34.28,1.7.6,1.66.61-.07.76-.65,1-1.11.59.18,1.18.76,1.78.48.03-.69-.29-1.18-.59-1.75,1.01-1.67-.48-1.54-.82-2.24l.1-1.81c-.37-.69-.86-1.04-1.39-1.31h0Z"/>
          </g>
          <path class="st44" d="M318.37,374.25c-.33.66-.83.92-1.12.58-.29-.34-.27-1.15.06-1.8.33-.66.83-.92,1.12-.58.29.34.27,1.15-.06,1.8h0Z"/>
          <path class="st44" d="M336.02,386.12c-.33.66-.83.92-1.12.58-.29-.34-.27-1.15.06-1.8.33-.66.83-.92,1.12-.58.29.34.27,1.15-.06,1.8h0Z"/>
          <path class="st44" d="M327.18,380.26c-.33.66-.83.92-1.12.58-.29-.34-.27-1.15.06-1.8.33-.66.83-.92,1.12-.58.29.34.27,1.15-.06,1.8Z"/>
          <path class="st44" d="M321.06,379.22c-.27-.33-.28-.92-.03-1.32.26-.4.69-.45.96-.12s.28.92.03,1.32c-.26.4-.69.45-.96.12Z"/>
          <path class="st44" d="M329.47,384.9c-.27-.33-.28-.92-.03-1.32.26-.4.69-.45.96-.12.27.33.28.92.03,1.32-.26.4-.69.45-.96.12Z"/>
        </g>
        <path class="st20" d="M314.71,389.41s.3-.68.49-.89c.08-.09.26-.1.33-.22.18-.28.1-.9.28-1.18.05-.08.18-.09.25-.16.16-.17.29-.53.45-.72.12-.15.3-.33.45-.44.27-.19.65-.36.94-.48.24-.1.57-.23.82-.26.22-.02.53-.01.74.08.32.14.74.45.99.76.13.16.24.43.33.63.19.43.46,1,.54,1.49.03.17.01.4,0,.57-.01.27-.06.63-.08.9-.03.36-.02.84-.07,1.19-.03.21-.1.48-.16.67-.11.32-.45,1.01-.45,1.01"/>
        <path class="st9" d="M318.74,387.2c-.44.46-1.03,1.82-1.39,2.71"/>
        <g>
          <path class="st42" d="M302.65,390.88c-.26-.21-.53.4-.82.48-.21.06-.42.03-.62.08-.13.04-.33.4-.36.56-.06.3-.07.58-.12.88-.06.3-.05.51-.1.78-.02.08-.03.16-.05.24"/>
          <path class="st42" d="M307,391.61c-.04.2-.06.62-.05.95.01.58.25,1.14.24,1.68,0,.36.21.83.32,1.05.18.33.39.59.56.91.15.28.33.41.44.63.12.22.16.29.29.53.04.08.05.34.08.48"/>
          <path class="st42" d="M308.11,398.94s.46.34.62.62c.11.2.21.44.3.69.11.28.26.68.39.91.14.27.05.81.05,1.12,0,.4-.06.76-.13,1.18-.07.36-.39.66-.58.8-.13.09-.25.18-.25.18"/>
        </g>
        <g>
          <path class="st5" d="M308.09,386.63c-.06-.02-.13-.03-.2-.05-.39.33-.59.72-.63,1.19-.02.47.12.83.47,1.12.44.05,1.85.58,2.88-.3-.17-.12-2.33-1.9-2.52-1.96Z"/>
          <path class="st43" d="M307.38,388.84c.45.74.66.82,1.02.99.37.17,1.34.08,1.34.08"/>
          <g>
            <path class="st39" d="M306.81,386.03s.34.76.52.89c1-.09,1.44.85,2.43-.17.16-.23.7-.16.99,0,.14.07.43.48.43.48"/>
            <path class="st12" d="M308.35,387.11c-.3.12-.4.34-.48.76-.05.26-.05.44,0,.63.04.19.16.34.24.49.07.13.36-.41.38-.45.14-.2.19-.44.24-.7.08-.41.06-.41-.18-.64-.06-.05-.14-.07-.2-.1h0Z"/>
          </g>
        </g>
        <path class="st42" d="M309.76,406.5c-.28.45-.82.76-1.01,1.27-.26.7-.62.87-.6,1.74,0,.44.16,1.03.27,1.49.11.52.1,1.12.11,1.7,0,.29-.18,1.16-.29,1.53-.13.44-.01.66-.14,1.01"/>
        <path class="st54" d="M300.04,390.47c.17.79,1.05-.02,1.26.95-.39.12-1.13,2.26-1.19.92-.03-.72-.33-.42-.08-1.87Z"/>
        <path class="st42" d="M304.51,393.04c.24.9.39,2.1.05,3.01-.18.49-.37.81-.61,1.44"/>
        <g>
          <path class="st25" d="M312.7,397.72c-.57,1.55-1.48,2.92-1.89,4.53-.39,1.42-1.47,2.44-2.18,3.67-.06.17-.12.34-.19.51l.02-.25c-.18.11-.35.23-.53.34-1.07.75-2.41.97-3.42,1.79-1.27.59-1.12,2.49-2.24,3.06-.6.97-3.06.87-2.17,2.49.24,1.87,2.32.65,2.45,2.53.16,1.73-.93,3.26-.39,5.09.54,2.24.9-1.14,1.58-1.56-.02,1.33-.08,3.14,1.06,4.12.38-1.01,1.49-3.4,1.77-3.79l2.52.64c.23.02.58-.75.83-.92.97-1.22,2.94-.8,3.61-2.55.53-1.34,1.79-2.12,2.78-3.08.89-.97,1.43-2.27,2.36-3.23.33-1.55,1.32-2.79,2.13-4.1.62-1.59,1.62-2.92,1.76-4.65.15-2.11-.04-4.25-.61-6.25-.56-1.78-1.34-3.72-3.06-4.53"/>
          <g>
            <path class="st0" d="M317.18,392.87c.85.43,1.51,1.17,2.03,1.99.79.92,1.34,2.04,1.94,3.1.22.54.13,1.15.26,1.71.11.89-.05,1.83.2,2.69"/>
            <path class="st0" d="M319.06,397.25c.32.83.91,1.56.94,2.51.29,1.81.16,3.68-.04,5.52-.09.53-.12,1.07-.27,1.58-.26.5-.59,1.04-.44,1.62.03.36.12.71.18,1.06"/>
            <path class="st0" d="M314.82,393.71c.05.37.44.44.7.59.47.31.8.8,1.05,1.32.39.66.79,1.34.95,2.12.21.75.56,1.43.84,2.15.04.14.08.28.12.43"/>
            <path class="st0" d="M314.51,396.9c.7,1.73,1.5,3.41,2.09,5.19.16.77.12,1.58.25,2.35.12,1.43.2,2.86.26,4.29.04.93-.05,1.86-.09,2.79,0,.6-.05,1.21.09,1.79"/>
            <path class="st0" d="M312.76,399.79c.09.96.24,1.9.4,2.84.42,1.36,1.15,2.61,1.31,4.06.24,1.04.37,2.1.38,3.18.11,1.08.38,2.2-.02,3.27-.31,1.09-.69,1.82-.47,2.96"/>
            <path class="st0" d="M313.16,409.68c.14.67.5,1.29.43,2,0,.56.17,1.11.09,1.68-.01.57-.05,1.14-.13,1.7-.01.24,0,.48.07.71"/>
            <path class="st0" d="M310.77,405.33c.11,1.15.53,2.23.57,3.4.1.98.35,1.92.54,2.87.27,1.77.26,3.59.33,5.39-.02.48-.11.95-.12,1.43"/>
            <path class="st0" d="M309.29,406.89c-.33,1.46.1,2.91.16,4.36.16,1.16.98,2.06,1.07,3.24.2,1.27.21,2.57.21,3.86,0,.33.03.67.09.99"/>
            <path class="st0" d="M307.94,411.93c.06,1.24.38,2.44.82,3.58.27.91.41,1.85.58,2.79.05.48-.09.96-.2,1.42-.06.35-.04.71.04,1.04"/>
          </g>
        </g>
        <g>
          <path class="st42" d="M306.87,409.09c-.2.56-.74,1.22-1.24,1.88-.39.53-.87.71-1.25.98-.52.36-.73.87-1.17,1.18-.5.35-.69,1.17-.68,1.95,0,.45.03.79.1,1.1"/>
          <path class="st42" d="M304.84,415.24c.01.65-.59,1.19-.76,1.65-.28.75-.58.55-.37,1.53.1.46.02.92.1,1.3"/>
          <path class="st42" d="M306.52,420.27c.21.96-.55-1.21-.99-2.25-.07-.16-.11-.33-.17-.49-.14-.4-.02-1.26-.03-1.71-.01-.61-.06-1.23.05-1.81.14-.77.28-1.37.36-1.93.02-.11.14-.28.15-.31"/>
          <path class="st42" d="M303.45,412.81c.1-.72-1.1.49-1.65.7-.46.17-.57.6-1.1.77-.08.03-.23.09-.32.12"/>
          <path class="st42" d="M311.2,442.11c.22.27.89.94,1.14,1.54.17.41.17,1.24.27,1.69.03.13.06.26.09.4.15.68.39,1.53.51,2.08.06.27.27.64.33.78"/>
          <path class="st42" d="M314.99,445.2c.12.55.84,1.29.99,2.15.12.66.37,1.35.59,1.88.16.38.41.68.58,1.07"/>
          <path class="st42" d="M319.29,445.55c.19.44.34,1.48.36,2.29.01.7.03,1.41.04,2.11.01.8.03,1.61.04,2.41"/>
          <path class="st42" d="M296.56,422.67c-.17.63-.61,1.55-.91,2.37-.28.75-.78.73-.76,1.65.02.92-.28,1.9-.26,2.93.01.67.02,1.34.04,2.01.02.92,0,1.11.73,1.06.61-.04.82-.39,1.18-.87.33-.45.53-.9.77-1.55.24-.65.89-1.08,1.16-1.58.18-.33.34-.49.54-.64"/>
          <path class="st42" d="M303.88,436.81c.06.49.68,1.38.83,2.06.19.88-.13,1.35-.12,2.22.02.99-.1,1.48.04,2.41.02.16.12.36.17.49"/>
          <path class="st42" d="M306.03,441.31c.05.31.47,1.49.67,1.97.26.62.33,1.45.59,2.08.07.17.16.33.25.49.22.44.6.75.82,1.26.03.07.06.13.08.2"/>
        </g>
        <g>
          <path class="st46" d="M335.04,483.53c4.8,1.32,10.5.34,12.62-6.65,6.07-22.12-1.12-21.29,1.46-36.31,1.93-9.38,11.02-14.83,12.25-30.61-.43-6.61-2.19-9.28-5.38-10.45-1.81-.14-8.72-1.62-9.99,6.21-.62.5-4.09,3.34-5.75,6.34-1.66,3.01-3.17,6.67-2.46,14.05.1-.77.24-1.52.42-2.24-.18.79-.31,1.59-.4,2.43,0-.07-.01-.12-.02-.19,0,.06-.02.08-.03.13-.24,2.07-.25,8.41,2.4,8.08,0,.01.02,0,.03,0,.77,1.24,1.51,1.61,2.66,1.42,1.15-.19.9-1.42.07-2-1.04-.72-1.43-1.55-1.13-4.81.29-3.21,2.99-4.94,5.41-11.02,2.34-5.88,2.69-5.16,1.98-11.06,3.47-4.12,7.22-3.34,8.46,2.99-.48,12.19-7.24,13.37-12.38,30.01-2.23,10.04,1.53,16.71,1.66,21.63.15,5.72-.68,10.83-2.75,15.06-1.74,3.55-8.29,2.8-10.34.73"/>
          <path class="st11" d="M345.27,413.44c.2,1.96-.36,4.49-1.66,6-.56.65-1.25,2.5-1.82,3.38-.3.47.23,3.81.27,4.45"/>
          <path class="st11" d="M343.56,418.65c-.19.3-2.3,2.41-3.21,3.8-1.03,1.59-1.28,2.45-.74,4.57.37,1.44.39,3.08.49,4.69.07,1.2.01,1.53-.26,2.4"/>
          <path class="st33" d="M348.82,465.3c2.79,7.13,3.76,5.88,4.65,4.32-1.11.26-2.12-1.36-2.65-4.36l-1.68-2.76c3.56,4.84,3.88,1.82,5.01.98-3.4.21-3.98-3.19-4.76-5.82,2.14,4.53,3.33,2.12,4.19.48-1.97.67-4.3-.9-4.33-4.69"/>
        </g>
        <g>
          <path class="st42" d="M300.35,417.83c-.72.74-1.68,2.88-2.01,3.98-.11.38-1.72,1.5-1.88,1.61"/>
          <path class="st42" d="M300.06,420.85c-.12.42-1.44,2.68-2.18,3.99-.86,1.51-.49,1.61-.46,3.25.01.64.02,1.29.04,1.93"/>
          <path class="st42" d="M294.8,427.39c.03,1.52-2.02,1.98-2.54,3.37-.49,1.3-1,2.2-1.68,2.89-.9.91-1.41,1.54-1.17,2.64"/>
          <path class="st42" d="M296.18,417.65c-1.03,1.03-1.72.97-1.67,3.32.02.92.37,1.68.57,2.54"/>
        </g>
      </g>
      <g>
        <g>
          <g>
            <path class="st6" d="M249.03,393.49v46.49l-4.06-4.19v-43.3l4.06,1Z"/>
            <path class="st6" d="M233.97,393.19v46.49l4.06-4.19v-43.3l-4.06,1Z"/>
            <path class="st6" d="M236.18,392.5v45.05h10.48v-45.05h-10.48Z"/>
          </g>
          <g>
            <path class="st41" d="M246.71,417.11l1.98,1.54"/>
            <path class="st41" d="M246.71,412.24l2.33,1.54"/>
            <path class="st41" d="M246.71,407.36l2.33,1.54"/>
            <path class="st41" d="M246.71,402.48l2.33,1.54"/>
            <path class="st41" d="M246.71,397.61l2.33,1.54"/>
            <path class="st41" d="M236.17,417.11l-1.98,1.54"/>
            <path class="st41" d="M236.17,412.24l-1.98,1.54"/>
            <path class="st41" d="M236.17,407.36l-1.98,1.54"/>
            <path class="st41" d="M236.17,402.48l-1.98,1.54"/>
            <path class="st41" d="M236.17,397.61l-1.98,1.54"/>
            <path class="st41" d="M241.35,412.07v-1.61"/>
            <path class="st41" d="M236.15,397.68h10.43"/>
            <path class="st41" d="M236.15,412.12h10.43"/>
            <path class="st41" d="M236.15,417.14h10.43"/>
            <path class="st41" d="M241.43,421.54v-4.26"/>
            <path class="st41" d="M239.69,416.99v-4.74"/>
            <path class="st41" d="M243.54,417.03v-4.78"/>
            <path class="st41" d="M239.69,397.46v-4.89"/>
            <path class="st41" d="M243.46,397.41l.07-4.83"/>
            <path class="st41" d="M246.71,421.82l1.98,1.54"/>
            <path class="st41" d="M236.17,421.82l-1.98,1.54"/>
            <path class="st41" d="M236.15,421.71h10.43"/>
            <path class="st41" d="M246.71,426.81l1.98,1.54"/>
            <path class="st41" d="M236.17,426.81l-1.98,1.54"/>
            <path class="st41" d="M236.15,426.84h10.43"/>
            <path class="st41" d="M239.69,426.69v-4.74"/>
            <path class="st41" d="M243.54,426.74v-4.78"/>
            <path class="st41" d="M241.43,437.28v-10.22"/>
            <path class="st41" d="M236.15,403.02h10.43"/>
            <path class="st41" d="M236.15,406.95h10.43"/>
            <path class="st41" d="M241.35,398.44v-.75"/>
          </g>
        </g>
        <path class="st14" d="M239.34,411.39s-.07-6.28-.04-9.32c.03-3.03,1.12-3.97,2.24-3.92,1.12.04,2.16.78,2.21,4,.05,3.21-.01,9.25-.01,9.25h-4.39Z"/>
      </g>
      <g>
        <path class="st18" d="M235.17,389.03l11.75-.31,3.25,3.52-1.02,3.33-2.68-2.03-10.04.08-2.52,2.27-.99-3.25,2.24-3.61Z"/>
        <g>
          <g>
            <g>
              <path class="st6" d="M235.66,390.08l.91,3.38"/>
              <path class="st6" d="M234.17,395.47l2.42-1.99"/>
              <path class="st6" d="M247.43,390.08l-.91,3.38"/>
              <path class="st6" d="M249.15,395.56l-2.65-2.09"/>
              <path class="st6" d="M236.57,393.48h9.94"/>
              <path class="st6" d="M249.41,384.17l-.45.44v3.22l.65-.64v-2.07l-.2-.95Z"/>
              <path class="st6" d="M247.4,380.93l1.04,1.68v2.81l.97,1.12v-2.36l.79,1.29v7.13l-2.81-2.41v-9.26Z"/>
              <path class="st6" d="M233.68,384.17l.45.44v3.22l-.65-.64v-2.07l.2-.95Z"/>
              <path class="st6" d="M235.69,380.93l-1.04,1.68v2.81l-.97,1.12v-2.36l-.79,1.29v7.13l2.81-2.16v-9.51Z"/>
            </g>
            <path class="st53" d="M235.66,380.68v9.54h11.72v-9.54h-1.57v3.94h-2.67v-3.94h-3.25v3.94h-2.49v-3.94h-1.75Z"/>
          </g>
          <g>
            <path class="st61" d="M236.74,393.49c0-1.37.32-2.47.71-2.47s.71,1.11.71,2.47h-1.41Z"/>
            <path class="st61" d="M238.38,393.49c0-1.37.32-2.47.71-2.47s.71,1.11.71,2.47h-1.41Z"/>
            <path class="st61" d="M244.94,393.49c0-1.37.32-2.47.71-2.47s.71,1.11.71,2.47h-1.41Z"/>
            <path class="st61" d="M243.3,393.49c0-1.37.32-2.47.71-2.47s.71,1.11.71,2.47h-1.41Z"/>
            <path class="st61" d="M241.66,393.49c0-1.37.32-2.47.71-2.47s.71,1.11.71,2.47h-1.41Z"/>
            <path class="st61" d="M240.02,393.49c0-1.37.32-2.47.71-2.47s.71,1.11.71,2.47h-1.41Z"/>
          </g>
        </g>
        <g>
          <g>
            <path class="st18" d="M234.17,395.47s-.8-2.22-.26-2.75c.53-.52,1.07,2.02,1.07,2.02"/>
            <path class="st18" d="M235.2,394.44s-.57-2.31-.02-2.85c.53-.52,1.07,2.02,1.07,2.02"/>
            <path class="st18" d="M249.15,395.56s.57-2.31.02-2.85c-.53-.52-1.07,2.02-1.07,2.02"/>
            <path class="st18" d="M247.89,394.44s.57-2.31.02-2.85c-.53-.52-1.07,2.02-1.07,2.02"/>
            <g>
              <path class="st6" d="M249.15,395.56l-2.56-2.06"/>
              <path class="st6" d="M230.27,382.46v49.82s-4.78-4.49-4.78-4.49v-46.4l4.78,1.07Z"/>
              <path class="st6" d="M212.56,382.14v49.82l4.77-4.49v-46.4l-4.77,1.07Z"/>
              <path class="st6" d="M215.17,381.41v48.28h12.32v-48.28h-12.32Z"/>
            </g>
          </g>
          <g>
            <path class="st56" d="M227.54,407.78l2.5,1.65"/>
            <path class="st56" d="M227.54,402.55l2.5,1.65"/>
            <path class="st56" d="M227.54,397.32l2.5,1.65"/>
            <path class="st56" d="M227.54,392.1l2.5,1.65"/>
            <path class="st56" d="M227.54,386.87l2.5,1.65"/>
            <path class="st56" d="M215.15,407.78l-2.33,1.65"/>
            <path class="st56" d="M215.15,402.55l-2.33,1.65"/>
            <path class="st56" d="M215.15,397.32l-2.33,1.65"/>
            <path class="st56" d="M215.15,392.1l-2.33,1.65"/>
            <path class="st56" d="M215.15,386.87l-2.33,1.65"/>
            <path class="st56" d="M221.25,402.37v-1.73"/>
            <path class="st56" d="M215.13,386.95h12.27"/>
            <path class="st56" d="M215.13,402.43h12.27"/>
            <path class="st56" d="M215.13,407.81h12.27"/>
            <path class="st56" d="M221.33,412.52v-4.57"/>
            <path class="st56" d="M219.29,407.64v-5.07"/>
            <path class="st56" d="M223.81,407.69v-5.12"/>
            <path class="st56" d="M219.29,386.72v-5.24"/>
            <path class="st56" d="M223.73,386.66l.09-5.17"/>
            <path class="st56" d="M227.54,412.82l2.33,1.65"/>
            <path class="st56" d="M215.15,412.82l-2.33,1.65"/>
            <path class="st56" d="M215.13,412.7h12.27"/>
            <path class="st56" d="M227.54,418.17l2.33,1.65"/>
            <path class="st56" d="M215.15,418.17l-2.33,1.65"/>
            <path class="st56" d="M215.13,418.2h12.27"/>
            <path class="st56" d="M219.29,418.04v-5.07"/>
            <path class="st56" d="M223.81,418.09v-5.12"/>
            <path class="st56" d="M221.33,429.39v-10.95"/>
            <path class="st56" d="M215.13,392.67h12.27"/>
            <path class="st56" d="M215.13,396.89h12.27"/>
            <path class="st56" d="M221.25,387.77v-.8"/>
          </g>
        </g>
      </g>
      <path class="st14" d="M218.88,401.65s-.09-6.73-.05-9.99c.04-3.25,1.32-4.25,2.63-4.2,1.31.05,2.54.84,2.6,4.28.06,3.44-.02,9.91-.02,9.91h-5.16Z"/>
      <g>
        <path class="st18" d="M213.98,377.68l13.81-.33,3.82,3.77-1.2,3.57-3.15-2.17-11.8.09-2.96,2.43-1.16-3.48,2.64-3.87Z"/>
        <g>
          <g>
            <g>
              <path class="st6" d="M214.55,378.8l1.07,3.62"/>
              <path class="st6" d="M212.53,384.69l3.12-2.24"/>
              <path class="st6" d="M228.39,378.8l-1.07,3.62"/>
              <path class="st6" d="M230.41,384.69l-3.12-2.24"/>
              <path class="st6" d="M215.63,382.45h11.68"/>
              <path class="st6" d="M230.72,372.47l-.53.47v3.45l.77-.69v-2.22l-.24-1.01Z"/>
              <path class="st6" d="M228.35,369l1.22,1.8v3.01l1.14,1.2v-2.53l.93,1.38-.03,7.25-3.27-2.19v-9.93Z"/>
              <path class="st6" d="M212.23,372.47l.53.47v3.45l-.77-.69v-2.22l.24-1.01Z"/>
              <path class="st6" d="M214.59,369l-1.22,1.8v3.01l-1.14,1.2v-2.53l-.93,1.38v7.65l3.3-2.32v-10.2Z"/>
            </g>
            <path class="st53" d="M214.55,368.73v10.22h13.78v-10.22h-1.84v4.22h-3.14v-4.22h-3.82v4.22h-2.92v-4.22h-2.06Z"/>
          </g>
          <g>
            <path class="st8" d="M215.82,382.46c0-1.46.37-2.65.83-2.65s.83,1.19.83,2.65h-1.66Z"/>
            <path class="st8" d="M217.75,382.46c0-1.46.37-2.65.83-2.65s.83,1.19.83,2.65h-1.66Z"/>
            <path class="st8" d="M225.46,382.46c0-1.46.37-2.65.83-2.65s.83,1.19.83,2.65h-1.66Z"/>
            <path class="st8" d="M223.53,382.46c0-1.46.37-2.65.83-2.65s.83,1.19.83,2.65h-1.66Z"/>
            <path class="st8" d="M221.6,382.46c0-1.46.37-2.65.83-2.65s.83,1.19.83,2.65h-1.66Z"/>
            <path class="st8" d="M219.68,382.46c0-1.46.37-2.65.83-2.65s.83,1.19.83,2.65h-1.66Z"/>
          </g>
        </g>
        <g>
          <g>
            <path class="st18" d="M212.53,384.69s-.67-2.48-.03-3.05c.62-.56,1.26,2.16,1.26,2.16"/>
            <path class="st18" d="M214.01,383.48s-.67-2.48-.03-3.05c.62-.56,1.26,2.16,1.26,2.16"/>
            <path class="st18" d="M230.41,384.69s.67-2.48.03-3.05c-.62-.56-1.26,2.16-1.26,2.16"/>
            <path class="st18" d="M228.93,383.48s.67-2.48.03-3.05c-.62-.56-1.26,2.16-1.26,2.16"/>
            <g>
              <path class="st6" d="M230.41,384.69l-3.01-2.21"/>
              <path class="st6" d="M208.88,392.87v46.49l-4.06-4.19v-43.3l4.06,1Z"/>
              <path class="st6" d="M193.82,392.57v46.49l4.06-4.19v-43.3l-4.06,1Z"/>
              <path class="st6" d="M196.04,391.89v45.05h10.48v-45.05h-10.48Z"/>
            </g>
          </g>
          <g>
            <path class="st41" d="M206.56,416.5l1.98,1.54"/>
            <path class="st41" d="M206.56,411.62l2.28,1.54"/>
            <path class="st41" d="M206.56,406.75l2.28,1.54"/>
            <path class="st41" d="M206.56,401.87l2.28,1.54"/>
            <path class="st41" d="M206.56,396.99l2.28,1.54"/>
            <path class="st41" d="M196.02,416.5l-1.98,1.54"/>
            <path class="st41" d="M196.02,411.62l-1.98,1.54"/>
            <path class="st41" d="M196.02,406.75l-1.98,1.54"/>
            <path class="st41" d="M196.02,401.87l-1.98,1.54"/>
            <path class="st41" d="M196.02,396.99l-1.98,1.54"/>
            <path class="st41" d="M201.21,411.45v-1.61"/>
            <path class="st41" d="M196.01,397.06h10.43"/>
            <path class="st41" d="M196.01,411.51h10.43"/>
            <path class="st41" d="M196.01,416.53h10.43"/>
            <path class="st41" d="M201.28,420.93v-4.26"/>
            <path class="st41" d="M199.54,416.37v-4.74"/>
            <path class="st41" d="M203.39,416.42v-4.78"/>
            <path class="st41" d="M199.54,396.85v-4.89"/>
            <path class="st41" d="M203.32,396.8l.07-4.83"/>
            <path class="st41" d="M206.56,421.21l1.98,1.54"/>
            <path class="st41" d="M196.02,421.21l-1.98,1.54"/>
            <path class="st41" d="M196.01,421.09h10.43"/>
            <path class="st41" d="M206.56,426.2l1.98,1.54"/>
            <path class="st41" d="M196.02,426.2l-1.98,1.54"/>
            <path class="st41" d="M196.01,426.23h10.43"/>
            <path class="st41" d="M199.54,426.07v-4.74"/>
            <path class="st41" d="M203.39,426.12v-4.78"/>
            <path class="st41" d="M201.28,436.66v-10.22"/>
            <path class="st41" d="M196.01,402.4h10.43"/>
            <path class="st41" d="M196.01,406.34h10.43"/>
            <path class="st41" d="M201.21,397.83v-.75"/>
          </g>
        </g>
      </g>
      <path class="st14" d="M199.19,410.78s-.07-6.28-.04-9.32c.03-3.03,1.12-3.97,2.24-3.92s2.16.78,2.21,4c.05,3.21-.01,9.25-.01,9.25h-4.39Z"/>
      <g>
        <path class="st18" d="M195.03,388.41l11.75-.31,3.25,3.52-1.21,3.05-2.49-1.75-10.04.08-2.52,2.27-.99-3.25,2.24-3.61Z"/>
        <g>
          <g>
            <g>
              <path class="st6" d="M195.51,389.46l.91,3.38"/>
              <path class="st6" d="M193.71,395.04l2.73-2.17"/>
              <path class="st6" d="M207.28,389.46l-.91,3.38"/>
              <path class="st6" d="M208.82,394.67l-2.46-1.81"/>
              <path class="st6" d="M196.43,392.87h9.94"/>
              <path class="st6" d="M209.26,383.56l-.45.44v3.22l.65-.64v-2.07l-.2-.95Z"/>
              <path class="st6" d="M207.25,380.31l1.04,1.68v2.81l.97,1.12v-2.36l.79,1.29v7.13l-2.81-2.41v-9.26Z"/>
              <path class="st6" d="M193.54,383.56l.45.44v3.22l-.65-.64v-2.07l.2-.95Z"/>
              <path class="st6" d="M195.55,380.31l-1.04,1.68v2.81l-.97,1.12v-2.36l-.79,1.29v7.13l2.81-2.16v-9.51Z"/>
            </g>
            <path class="st53" d="M195.51,380.06v9.54h11.72v-9.54h-1.57v3.94h-2.67v-3.94h-3.25v3.94h-2.49v-3.94h-1.75Z"/>
          </g>
          <g>
            <path class="st61" d="M196.59,392.87c0-1.37.32-2.47.71-2.47s.71,1.11.71,2.47h-1.41Z"/>
            <path class="st61" d="M198.23,392.87c0-1.37.32-2.47.71-2.47s.71,1.11.71,2.47h-1.41Z"/>
            <path class="st61" d="M204.79,392.87c0-1.37.32-2.47.71-2.47s.71,1.11.71,2.47h-1.41Z"/>
            <path class="st61" d="M203.15,392.87c0-1.37.32-2.47.71-2.47s.71,1.11.71,2.47h-1.41Z"/>
            <path class="st61" d="M201.51,392.87c0-1.37.32-2.47.71-2.47s.71,1.11.71,2.47h-1.41Z"/>
            <path class="st61" d="M199.87,392.87c0-1.37.32-2.47.71-2.47s.71,1.11.71,2.47h-1.41Z"/>
          </g>
        </g>
        <g>
          <g>
            <path class="st18" d="M194.02,394.79s-1.08-2.2-.54-2.74c.53-.52,1.57,1.77,1.57,1.77"/>
            <path class="st18" d="M195.05,393.82s-.57-2.31-.02-2.85c.53-.52,1.07,2.02,1.07,2.02"/>
            <path class="st18" d="M208.82,394.67s.75-2.03.21-2.57c-.53-.52-1.07,2.02-1.07,2.02"/>
            <path class="st18" d="M207.74,393.82s.57-2.31.02-2.85c-.53-.52-1.07,2.02-1.07,2.02"/>
            <path class="st6" d="M208.82,394.67l-2.38-1.78"/>
            <path class="st18" d="M216.03,430.01v.73l-22.87.47c-1.41,25.34-.64,51.91-10.99,70.31v.26c-.08.07-.16.14-.24.21l-.46,24.75,12.85,12.08,52.96,1.2,13.06-13.84-.46-24.75c-.08-.08-.16-.14-.24-.21v-.26c-10.36-18.39-8.39-44.68-9.8-70.03l-33.81-.93Z"/>
            <path class="st18" d="M196.95,423.94l44.31-.67,12.17,8.08-3.24,6.78-10.6-4.47-37.87.18-9.04,4.41-4.2-6.53,8.47-7.79Z"/>
            <g>
              <path class="st6" d="M198.79,426.2l3.43,7.28"/>
              <path class="st6" d="M192.68,438.25l9.61-4.72"/>
              <path class="st6" d="M243.19,426.2l-3.43,7.28"/>
              <path class="st6" d="M250.2,438.25l-10.51-4.72"/>
              <path class="st6" d="M202.23,433.54h37.5"/>
              <path class="st6" d="M250.66,413.46l-1.69.95v6.94l2.46-1.38v-4.47l-.77-2.04Z"/>
              <path class="st6" d="M243.07,406.47l3.91,3.63v6.06l3.67,2.42v-5.08l2.99,2.77-.21,15.09-10.38-4.9.02-19.98Z"/>
              <path class="st6" d="M191.32,413.46l1.69.95v6.94l-2.46-1.38v-4.47l.77-2.04Z"/>
              <path class="st6" d="M198.9,406.47l-3.91,3.63v6.06l-3.67,2.42v-5.08l-2.99,2.77v15.39l10.59-4.66-.02-20.52Z"/>
            </g>
          </g>
          <path class="st53" d="M198.79,405.93v20.57h44.23v-20.57h-5.91v8.5h-10.07v-8.5h-12.27v8.5h-9.38v-8.5h-6.6Z"/>
        </g>
        <path class="st28" d="M202.85,433.55c0-2.95,1.19-5.33,2.67-5.33s2.67,2.39,2.67,5.33h-5.33Z"/>
        <path class="st18" d="M202.78,515.81s3.23-7.6,3.18-11.82"/>
        <g>
          <path class="st28" d="M209.04,433.55c0-2.95,1.19-5.33,2.67-5.33s2.67,2.39,2.67,5.33h-5.33Z"/>
          <path class="st28" d="M233.8,433.55c0-2.95,1.19-5.33,2.67-5.33s2.67,2.39,2.67,5.33h-5.33Z"/>
          <path class="st28" d="M227.61,433.55c0-2.95,1.19-5.33,2.67-5.33s2.67,2.39,2.67,5.33h-5.33Z"/>
          <path class="st28" d="M221.42,433.55c0-2.95,1.19-5.33,2.67-5.33s2.67,2.39,2.67,5.33h-5.33Z"/>
          <path class="st28" d="M215.23,433.55c0-2.95,1.19-5.33,2.67-5.33s2.67,2.39,2.67,5.33h-5.33Z"/>
        </g>
      </g>
      <g>
        <g>
          <path class="st18" d="M193.21,437.76s-3.06-4.7-1.01-5.86c1.99-1.12,4.04,4.35,4.04,4.35"/>
          <path class="st18" d="M197.57,435.61s-2.66-4.98-.61-6.14c1.99-1.12,4.12,4.47,4.12,4.47"/>
          <path class="st18" d="M249.38,437.66s2.44-4.6.39-5.76c-1.99-1.12-4.04,4.35-4.04,4.35"/>
          <path class="st18" d="M244.41,435.81s2.66-5.18.61-6.34c-1.99-1.12-4.04,4.35-4.04,4.35"/>
          <g>
            <path class="st6" d="M182.13,502.42l12.89,13.61-.42,22.76"/>
            <path class="st6" d="M259.99,503.22l-12.23,12.62v23.46"/>
            <path class="st6" d="M227.49,515.81h20.14"/>
            <path class="st6" d="M194.72,515.81h20.14"/>
            <path class="st6" d="M247.81,526.99l12.26-12.83"/>
            <path class="st6" d="M253.95,532.72v-11.97"/>
            <path class="st6" d="M250.28,513.16v11.11"/>
            <path class="st6" d="M257.89,505.48v11.02"/>
            <path class="st6" d="M194.55,527.07l-12.26-12.96"/>
            <path class="st6" d="M194.57,526.99l-12.86-13.53"/>
            <path class="st6" d="M229.78,527.04h18.01"/>
            <path class="st6" d="M204.03,538.9l.1-11.74"/>
            <path class="st6" d="M237.83,539.7v-12.54"/>
            <path class="st6" d="M198.99,526.89v-10.99"/>
            <path class="st6" d="M207.84,526.89v-10.99"/>
            <path class="st6" d="M234.17,526.89v-10.99"/>
            <path class="st6" d="M243.02,526.89v-10.99"/>
            <path class="st6" d="M194.6,527.04h17.66"/>
            <path class="st6" d="M192.45,445.76l10.09-2.13"/>
            <path class="st6" d="M192.16,454.29l10.18-.87"/>
            <path class="st6" d="M191.45,462.96l10.99.25"/>
            <path class="st6" d="M190.86,471.32l11.68,1.38"/>
            <path class="st6" d="M196.61,444.94v8.95"/>
            <path class="st6" d="M196.41,463.14v8.95"/>
            <path class="st6" d="M199.63,453.71v9.41"/>
            <path class="st6" d="M199.48,472.34l-.56,9.1"/>
            <path class="st6" d="M193.09,471.77l-.56,7.54"/>
            <path class="st6" d="M188.21,485.8l12.41,7.13"/>
            <path class="st6" d="M185.28,495.13l12.94,8.99"/>
            <path class="st6" d="M190.7,498.89l-2.47,9.87"/>
            <path class="st6" d="M198.32,491.62l-2.86,10.54"/>
            <path class="st6" d="M191.58,487.65l-2.69,9.73"/>
            <path class="st6" d="M189.85,478.23l12.14,4.31"/>
            <path class="st6" d="M195.7,480.17l-1.95,8.48"/>
          </g>
          <g>
            <path class="st17" d="M212.62,524.78v8.74"/>
            <path class="st17" d="M217.76,524.78v8.74"/>
            <path class="st17" d="M222.91,524.78v8.74"/>
            <path class="st17" d="M228.24,524.78v8.74"/>
            <path class="st17" d="M229.32,533.44l-.11.08"/>
          </g>
        </g>
        <path class="st36" d="M194.63,515.79s4.61-10.67,7.34-30.05c1.94-20.5.4-51.96.4-51.96"/>
        <g>
          <g>
            <path class="st18" d="M247.72,515.61s-4.71-10.77-7.44-30.15c-1.34-20.5-.4-51.96-.4-51.96"/>
            <g>
              <g>
                <path class="st6" d="M193.49,454.14l.05,8.63"/>
                <path class="st6" d="M199.79,434.69v9.41"/>
                <path class="st6" d="M193.89,437.58l-.15,7.8"/>
                <path class="st6" d="M250.19,438.33l-10.17-4.74"/>
                <path class="st6" d="M250.16,445.82l-10.39-2.13"/>
                <path class="st6" d="M250.66,454.35l-11.18-.87"/>
                <path class="st6" d="M250.87,463.02l-11.29.25"/>
                <path class="st6" d="M251.45,471.38l-11.68,1.68"/>
                <path class="st6" d="M245.71,445v8.95"/>
                <path class="st6" d="M245.9,463.2v8.95"/>
                <path class="st6" d="M242.68,453.77v9.41"/>
                <path class="st6" d="M242.83,472.9l.56,8.6"/>
                <path class="st6" d="M249.22,471.83l.56,7.54"/>
                <path class="st6" d="M254.1,485.86l-12.41,7.13"/>
                <path class="st6" d="M256.73,495.29l-12.54,8.89"/>
                <path class="st6" d="M251.61,498.95l2.67,10.07"/>
                <path class="st6" d="M244.19,491.58l2.56,10.54"/>
                <path class="st6" d="M250.94,487.61l2.49,9.83"/>
                <path class="st6" d="M252.46,478.29l-12.14,4.31"/>
                <path class="st6" d="M246.61,480.23l1.95,8.48"/>
                <path class="st6" d="M248.82,454.2l-.05,8.63"/>
                <path class="st6" d="M242.53,434.75v9.41"/>
                <path class="st6" d="M248.42,437.54l.15,7.9"/>
                <path class="st6" d="M202.77,443.28h36.95"/>
                <path class="st6" d="M202.55,453.44h36.95"/>
                <path class="st6" d="M202.55,463.27h36.95"/>
                <path class="st6" d="M202.75,472.82h36.95"/>
                <path class="st6" d="M202.36,482.65h37.73"/>
                <path class="st6" d="M201.19,493.04h40.08"/>
                <path class="st6" d="M198.64,504.28h45.17"/>
              </g>
              <path class="st22" d="M211.06,539.13s.18-15.62-.19-27.43c-.39-12.45,5.24-15.43,9.96-15.26,4.72.17,9.38,2.14,9.33,15.55-.05,12.52-.4,27.28-.4,27.28l-18.71-.14Z"/>
            </g>
            <g>
              <path class="st17" d="M208.94,533.69h5.7c-.75.5-.83,4.86.16,6.01l-5.89-.14s.09-5.82.04-5.87h0Z"/>
              <path class="st17" d="M232,533.74h-5.7c.75.5.83,4.98-.16,6.13l5.89.05s-.09-6.12-.04-6.17h0Z"/>
              <path class="st17" d="M217.73,492h5.54l-1.19,9.33-3.11.05-1.24-9.39Z"/>
              <path class="st17" d="M208.89,510.12h5.7c-.75.5-.83,4.84.16,5.99h-5.89s.09-5.94.04-5.99h0Z"/>
              <path class="st17" d="M208.86,522.09h5.7c-.75.5-.83,4.84.16,5.99h-5.86s.05-5.94,0-5.99h0Z"/>
              <path class="st17" d="M232.49,521.79h-5.7c.52.54.63,4.87-.16,5.99h5.89s-.09-5.94-.04-5.99h0Z"/>
              <path class="st17" d="M232.44,509.72h-5.7c.75.5.83,4.84-.16,5.99h5.89s-.04-5.99-.04-5.99Z"/>
              <path class="st17" d="M227.86,496.69l-3.59,6.71c.74-.58,2.53,2.42,2.29,4.45l3.98-7.08c-.45-1.71-1.41-3.02-2.68-4.08Z"/>
              <path class="st17" d="M213.25,496.64l3.59,6.71c-.74-.58-2.53,2.42-2.29,4.45l-3.98-7.08c.45-1.71,1.41-3.02,2.68-4.08Z"/>
            </g>
            <path class="st18" d="M238.89,515.65s-3.23-7.3-3.18-11.52"/>
            <g>
              <path class="st6" d="M204.04,493.15l-1.24,11.01"/>
              <path class="st6" d="M237.92,493.05l1.14,11.01"/>
              <path class="st6" d="M209.74,493.29v10.98"/>
              <path class="st6" d="M231.55,493.17v10.98"/>
              <path class="st6" d="M206.74,482.91v10.02"/>
              <path class="st6" d="M234.72,482.98v9.72"/>
              <path class="st6" d="M215.47,482.84v10.12"/>
              <path class="st6" d="M225.4,482.7v10.22"/>
              <path class="st6" d="M210.71,472.73v9.72"/>
              <path class="st6" d="M220.33,472.87v9.72"/>
              <path class="st6" d="M230.36,472.73v9.72"/>
              <path class="st6" d="M220.14,453.35v9.72"/>
              <path class="st6" d="M210.34,433.92v9.21"/>
              <path class="st6" d="M219.96,434.05v9.21"/>
              <path class="st6" d="M229.99,433.92v9.21"/>
              <path class="st6" d="M206.54,463.11v9.72"/>
              <path class="st6" d="M234.53,463.18v9.72"/>
              <path class="st6" d="M215.27,463.34v9.42"/>
              <path class="st6" d="M225.2,463.2v9.42"/>
            </g>
            <path class="st18" d="M230.69,443.35c-2.13,0-3.86,2.11-3.86,4.7v15.11h7.71v-15.11c0-2.6-1.72-4.7-3.85-4.7Z"/>
          </g>
          <path class="st63" d="M213.76,539.7s.13-14.18-.13-24.92c-.27-11.33,3.72-14.05,7.08-13.89,3.36.16,6.67,1.95,6.63,14.15-.03,11.39-.28,24.83-.28,24.83l-13.29-.17Z"/>
          <path class="st55" d="M230.71,446.24c-1.4,0-2.54,1.53-2.54,3.41v10.94h5.08v-10.94c0-1.88-1.14-3.41-2.54-3.41Z"/>
          <path class="st18" d="M210.76,443.39c-2.13,0-3.86,2.11-3.86,4.7v15.11h7.71v-15.11c0-2.6-1.72-4.7-3.85-4.7Z"/>
          <path class="st55" d="M210.79,446.28c-1.4,0-2.54,1.53-2.54,3.41v10.94h5.08v-10.94c0-1.88-1.14-3.41-2.54-3.41h0Z"/>
          <g>
            <path class="st6" d="M188.37,533.01l.07-12.27"/>
            <path class="st6" d="M184.5,504.98v11.53"/>
            <path class="st6" d="M192.11,513.16v11.11"/>
          </g>
        </g>
      </g>
    </g>
  </g>
</svg>